<?xml version="1.0" encoding="utf-8"?>
<!-- Generator: Adobe Illustrator 19.0.0, SVG Export Plug-In . SVG Version: 6.00 Build 0)  -->
<svg version="1.1" id="Layer_1" xmlns="http://www.w3.org/2000/svg" xmlns:xlink="http://www.w3.org/1999/xlink" x="0px" y="0px"
	 viewBox="0 0 338.6 338.6" style="enable-background:new 0 0 338.6 338.6;" xml:space="preserve">
<style type="text/css">
	.st0{fill-rule:evenodd;clip-rule:evenodd;fill:#FFFFFF;}
	.st1{fill:#FFFFFF;}
	.st2{font-family:'RobotoSlab-Regular';}
	.st3{font-size:36px;}
	.st4{font-family:'Roboto-Light';}
	.st5{font-size:24px;}
	.st6{font-size:22px;}
</style>
<g id="XMLID_77_">
	<g id="XMLID_116_">
		<path id="XMLID_75_" class="st0" d="M264.3,33c-5.4,0.4-10.7,0.9-16.1,1.3c4.1,2.7,8.2,5.4,12.2,8.2c5.4-0.4,10.7-0.9,16.1-1.3
			C272.5,38.5,268.4,35.7,264.3,33L264.3,33z"/>
		<path id="XMLID_74_" class="st0" d="M265.2,31.7c-1.7-5.1-3.3-10.2-5-15.3c4.1,2.7,8.2,5.4,12.2,8.2c1.7,5.1,3.3,10.2,5,15.3
			C273.4,37.1,269.3,34.4,265.2,31.7L265.2,31.7z"/>
		<path id="XMLID_73_" class="st0" d="M279.4,45.8c-5.4-0.3-10.7-0.7-16.1-1c3.7,3.3,7.3,6.6,11,9.8c5.4,0.3,10.7,0.7,16.1,1
			C286.7,52.3,283.1,49.1,279.4,45.8L279.4,45.8z"/>
		<path id="XMLID_72_" class="st0" d="M280.5,44.6c-0.9-5.3-1.8-10.6-2.8-15.9c3.6,3.3,7.3,6.6,11,9.8c0.9,5.3,1.8,10.6,2.8,15.9
			C287.8,51.2,284.2,47.9,280.5,44.6L280.5,44.6z"/>
		<path id="XMLID_71_" class="st0" d="M292.8,60.4c-5.3-1.1-10.5-2.2-15.8-3.3c3.2,3.8,6.3,7.5,9.4,11.3c5.3,1.1,10.5,2.2,15.8,3.3
			C299.1,67.9,296,64.1,292.8,60.4L292.8,60.4z"/>
		<path id="XMLID_70_" class="st0" d="M294.1,59.4c-0.2-5.4-0.3-10.8-0.5-16.1c3.1,3.8,6.3,7.5,9.4,11.3c0.2,5.4,0.3,10.7,0.5,16.1
			C300.3,66.9,297.2,63.1,294.1,59.4L294.1,59.4z"/>
		<path id="XMLID_69_" class="st0" d="M304.3,76.5c-5-1.9-10.1-3.7-15.1-5.6c2.6,4.2,5.1,8.4,7.7,12.5c5.1,1.9,10.1,3.7,15.1,5.6
			C309.4,84.9,306.9,80.7,304.3,76.5L304.3,76.5z"/>
		<path id="XMLID_68_" class="st0" d="M305.6,75.7c0.6-5.3,1.3-10.7,1.9-16c2.6,4.2,5.1,8.4,7.7,12.5c-0.6,5.3-1.2,10.7-1.9,16
			C310.8,84,308.2,79.8,305.6,75.7L305.6,75.7z"/>
		<path id="XMLID_67_" class="st0" d="M313.5,93.9c-4.8-2.3-9.7-4.7-14.5-7c2.2,4.4,4.3,8.8,6.5,13.2c4.8,2.3,9.7,4.7,14.5,7
			C317.8,102.8,315.6,98.4,313.5,93.9L313.5,93.9z"/>
		<path id="XMLID_66_" class="st0" d="M314.9,93.2c1.1-5.3,2.3-10.5,3.4-15.8c2.2,4.4,4.3,8.8,6.5,13.2c-1.1,5.3-2.3,10.5-3.4,15.8
			C319.2,102.1,317,97.7,314.9,93.2L314.9,93.2z"/>
		<path id="XMLID_65_" class="st0" d="M320.4,112.5c-4.4-3-8.9-6-13.3-9.1c1.5,4.7,3,9.4,4.4,14c4.4,3,8.9,6,13.3,9.1
			C323.4,121.8,321.9,117.2,320.4,112.5L320.4,112.5z"/>
		<path id="XMLID_64_" class="st0" d="M321.9,112c1.9-5,3.8-10.1,5.7-15.1c1.5,4.7,3,9.4,4.4,14c-1.9,5-3.8,10.1-5.7,15.1
			C324.9,121.4,323.4,116.7,321.9,112L321.9,112z"/>
		<path id="XMLID_63_" class="st0" d="M324.9,131.7c-4.1-3.5-8.2-6.9-12.4-10.4c1,4.8,2,9.6,3,14.4c4.1,3.5,8.2,6.9,12.4,10.4
			C326.9,141.3,325.9,136.5,324.9,131.7L324.9,131.7z"/>
		<path id="XMLID_62_" class="st0" d="M326.5,131.4c2.4-4.8,4.8-9.6,7.2-14.4c1,4.8,2,9.6,3,14.4c-2.4,4.8-4.8,9.6-7.2,14.4
			C328.5,141,327.5,136.2,326.5,131.4L326.5,131.4z"/>
		<path id="XMLID_61_" class="st0" d="M326.9,151.4c-3.6-4-7.1-8.1-10.7-12.1c0.3,4.9,0.5,9.8,0.8,14.7c3.6,4,7.1,8.1,10.7,12.1
			C327.4,161.2,327.2,156.3,326.9,151.4L326.9,151.4z"/>
		<path id="XMLID_60_" class="st0" d="M328.5,151.3c3.1-4.4,6.2-8.8,9.3-13.2c0.3,4.9,0.5,9.8,0.8,14.7c-3.1,4.4-6.2,8.8-9.3,13.2
			C329,161.1,328.7,156.2,328.5,151.3L328.5,151.3z"/>
		<path id="XMLID_59_" class="st0" d="M326.4,171.1c-3.1-4.4-6.2-8.8-9.4-13.1c-0.2,4.9-0.5,9.8-0.7,14.7c3.1,4.4,6.2,8.8,9.4,13.1
			C325.9,180.9,326.2,176,326.4,171.1L326.4,171.1z"/>
		<path id="XMLID_58_" class="st0" d="M328,171.2c3.5-4.1,7.1-8.1,10.6-12.2c-0.2,4.9-0.5,9.8-0.7,14.7c-3.5,4.1-7,8.1-10.6,12.2
			C327.5,181,327.7,176.1,328,171.2L328,171.2z"/>
		<path id="XMLID_57_" class="st0" d="M323.4,190.7c-2.4-4.8-4.9-9.6-7.3-14.4c-1,4.8-1.9,9.6-2.9,14.4c2.4,4.8,4.9,9.6,7.3,14.4
			C321.4,200.3,322.4,195.5,323.4,190.7L323.4,190.7z"/>
		<path id="XMLID_56_" class="st0" d="M324.9,191c4.1-3.5,8.2-7,12.3-10.5c-1,4.8-1.9,9.6-2.9,14.4c-4.1,3.5-8.2,7-12.3,10.5
			C323,200.6,323.9,195.8,324.9,191L324.9,191z"/>
		<path id="XMLID_55_" class="st0" d="M317.9,209.7c-1.7-5.1-3.4-10.2-5.1-15.3c-1.7,4.6-3.3,9.2-5,13.8c1.7,5.1,3.4,10.2,5.1,15.3
			C314.5,218.9,316.2,214.3,317.9,209.7L317.9,209.7z"/>
		<path id="XMLID_54_" class="st0" d="M319.4,210.2c4.6-2.8,9.1-5.7,13.7-8.5c-1.7,4.6-3.3,9.2-5,13.8c-4.6,2.8-9.1,5.7-13.7,8.5
			C316,219.5,317.7,214.9,319.4,210.2L319.4,210.2z"/>
		<path id="XMLID_53_" class="st0" d="M310,227.8c-1.2-5.3-2.4-10.5-3.5-15.8c-2.1,4.4-4.2,8.9-6.3,13.3c1.2,5.3,2.4,10.5,3.5,15.8
			C305.7,236.6,307.8,232.2,310,227.8L310,227.8z"/>
		<path id="XMLID_52_" class="st0" d="M311.4,228.4c4.8-2.4,9.6-4.7,14.5-7.1c-2.1,4.4-4.2,8.8-6.4,13.3c-4.8,2.4-9.7,4.7-14.5,7.1
			C307.2,237.3,309.3,232.9,311.4,228.4L311.4,228.4z"/>
		<path id="XMLID_51_" class="st0" d="M299.8,244.7c-0.4-5.4-0.8-10.7-1.2-16.1c-2.7,4.1-5.5,8.2-8.2,12.2
			c0.4,5.4,0.8,10.7,1.2,16.1C294.3,252.9,297,248.8,299.8,244.7L299.8,244.7z"/>
		<path id="XMLID_50_" class="st0" d="M300.7,246.1c5.1-1.6,10.3-3.3,15.4-4.9c-2.7,4.1-5.5,8.1-8.3,12.2
			c-5.1,1.6-10.2,3.3-15.4,4.9C295.2,254.3,298,250.2,300.7,246.1L300.7,246.1z"/>
		<path id="XMLID_49_" class="st0" d="M287.2,260.7c0.1-5.4,0.3-10.8,0.4-16.1c-3.1,3.8-6.3,7.6-9.4,11.3
			c-0.1,5.4-0.3,10.8-0.4,16.1C280.9,268.3,284.1,264.5,287.2,260.7L287.2,260.7z"/>
		<path id="XMLID_48_" class="st0" d="M288.4,261.7c5.2-1.1,10.5-2.3,15.8-3.4c-3.1,3.8-6.3,7.6-9.4,11.3
			c-5.2,1.1-10.5,2.2-15.8,3.4C282.1,269.3,285.3,265.5,288.4,261.7L288.4,261.7z"/>
		<path id="XMLID_47_" class="st0" d="M273,274.5c0.9-5.3,1.8-10.6,2.7-15.9c-3.6,3.3-7.3,6.6-10.9,9.9c-0.9,5.3-1.8,10.6-2.7,15.9
			C265.7,281.1,269.3,277.8,273,274.5L273,274.5z"/>
		<path id="XMLID_46_" class="st0" d="M274,275.6c5.4-0.4,10.7-0.7,16.1-1.1c-3.6,3.3-7.3,6.6-10.9,9.9c-5.4,0.4-10.7,0.7-16.1,1.1
			C266.8,282.2,270.4,278.9,274,275.6L274,275.6z"/>
		<path id="XMLID_45_" class="st0" d="M257.1,286.3c1.6-5.1,3.3-10.2,4.9-15.4c-4.1,2.7-8.1,5.5-12.2,8.2
			c-1.6,5.1-3.3,10.2-4.9,15.4C249,291.8,253.1,289.1,257.1,286.3L257.1,286.3z"/>
		<path id="XMLID_44_" class="st0" d="M258,287.7c5.4,0.4,10.7,0.8,16.1,1.2c-4.1,2.7-8.1,5.5-12.2,8.2c-5.4-0.4-10.7-0.8-16.1-1.2
			C249.9,293.1,254,290.4,258,287.7L258,287.7z"/>
		<path id="XMLID_43_" class="st0" d="M240,296.1c2.1-4.9,4.3-9.9,6.4-14.8c-4.3,2.3-8.6,4.7-12.9,7c-2.1,4.9-4.3,9.9-6.4,14.8
			C231.4,300.7,235.7,298.4,240,296.1L240,296.1z"/>
		<path id="XMLID_42_" class="st0" d="M240.8,297.5c5.3,0.9,10.6,1.8,15.9,2.8c-4.3,2.3-8.6,4.7-13,7c-5.3-0.9-10.6-1.9-15.9-2.8
			C232.1,302.1,236.5,299.8,240.8,297.5L240.8,297.5z"/>
		<path id="XMLID_41_" class="st0" d="M221.7,303.5c2.8-4.6,5.7-9.1,8.5-13.7c-4.6,1.7-9.2,3.3-13.8,5c-2.8,4.6-5.7,9.1-8.5,13.7
			C212.4,306.9,217.1,305.2,221.7,303.5L221.7,303.5z"/>
		<path id="XMLID_40_" class="st0" d="M222.2,305c5.1,1.7,10.2,3.4,15.3,5.1c-4.6,1.7-9.2,3.3-13.8,5c-5.1-1.7-10.2-3.4-15.3-5.1
			C213,308.3,217.6,306.7,222.2,305L222.2,305z"/>
		<polygon id="XMLID_39_" class="st0" points="247.8,27.8 236.9,15.1 253.2,18.9 264,31.6 247.8,27.8 		"/>
	</g>
	<g id="XMLID_78_">
		<path id="XMLID_38_" class="st0" d="M73.2,33.8c5.4,0.4,10.7,0.8,16.1,1.2c-4.1,2.8-8.1,5.5-12.2,8.3c-5.4-0.4-10.7-0.8-16.1-1.2
			C65.1,39.3,69.2,36.6,73.2,33.8L73.2,33.8z"/>
		<path id="XMLID_37_" class="st0" d="M72.3,32.5c1.6-5.1,3.2-10.3,4.9-15.4c-4.1,2.7-8.1,5.5-12.2,8.3c-1.6,5.1-3.3,10.3-4.9,15.4
			C64.2,38,68.3,35.3,72.3,32.5L72.3,32.5z"/>
		<path id="XMLID_36_" class="st0" d="M58.2,46.7c5.4-0.4,10.7-0.8,16.1-1.2c-3.6,3.3-7.2,6.6-10.9,9.9c-5.4,0.4-10.7,0.8-16.1,1.2
			C51,53.4,54.6,50,58.2,46.7L58.2,46.7z"/>
		<path id="XMLID_35_" class="st0" d="M57.1,45.6c0.9-5.3,1.7-10.6,2.6-15.9c-3.6,3.3-7.2,6.6-10.9,9.9c-0.9,5.3-1.8,10.6-2.6,15.9
			C49.9,52.2,53.5,48.9,57.1,45.6L57.1,45.6z"/>
		<path id="XMLID_34_" class="st0" d="M44.9,61.4c5.3-1.2,10.5-2.3,15.7-3.5c-3.1,3.8-6.2,7.6-9.3,11.4c-5.2,1.1-10.5,2.3-15.8,3.4
			C38.7,69,41.8,65.2,44.9,61.4L44.9,61.4z"/>
		<path id="XMLID_33_" class="st0" d="M43.7,60.4c0.1-5.4,0.2-10.8,0.3-16.1c-3.1,3.8-6.2,7.6-9.3,11.4c-0.1,5.4-0.2,10.8-0.3,16.1
			C37.5,68,40.6,64.2,43.7,60.4L43.7,60.4z"/>
		<path id="XMLID_32_" class="st0" d="M33.6,77.7c5-1.9,10.1-3.8,15.1-5.7c-2.5,4.2-5.1,8.4-7.6,12.6c-5,1.9-10.1,3.8-15.1,5.7
			C28.6,86.1,31.1,81.8,33.6,77.7L33.6,77.7z"/>
		<path id="XMLID_31_" class="st0" d="M32.3,76.8c-0.7-5.3-1.3-10.7-2-16c-2.5,4.2-5.1,8.4-7.6,12.6c0.7,5.3,1.3,10.7,2,16
			C27.2,85.2,29.7,81,32.3,76.8L32.3,76.8z"/>
		<path id="XMLID_30_" class="st0" d="M24.6,95.2c4.8-2.4,9.7-4.8,14.5-7.1c-2.1,4.4-4.2,8.9-6.3,13.3c-4.8,2.4-9.6,4.7-14.5,7.1
			C20.4,104,22.5,99.6,24.6,95.2L24.6,95.2z"/>
		<path id="XMLID_29_" class="st0" d="M23.2,94.5C22,89.2,20.8,84,19.6,78.7c-2.1,4.4-4.2,8.9-6.3,13.3c1.2,5.3,2.4,10.5,3.5,15.7
			C18.9,103.3,21,98.9,23.2,94.5L23.2,94.5z"/>
		<path id="XMLID_28_" class="st0" d="M17.8,113.8c4.4-3.1,8.9-6.1,13.3-9.2c-1.4,4.7-2.9,9.4-4.3,14.1c-4.4,3.1-8.8,6.1-13.3,9.2
			C14.9,123.2,16.4,118.5,17.8,113.8L17.8,113.8z"/>
		<path id="XMLID_27_" class="st0" d="M16.3,113.3c-1.9-5-3.9-10-5.8-15c-1.4,4.7-2.9,9.4-4.3,14.1c1.9,5,3.9,10,5.8,15
			C13.4,122.7,14.8,118,16.3,113.3L16.3,113.3z"/>
		<path id="XMLID_26_" class="st0" d="M13.5,133c4.1-3.5,8.2-7,12.3-10.5c-1,4.8-1.9,9.6-2.9,14.4c-4.1,3.5-8.2,7-12.3,10.5
			C11.5,142.6,12.5,137.8,13.5,133L13.5,133z"/>
		<path id="XMLID_25_" class="st0" d="M11.9,132.7c-2.4-4.8-4.9-9.6-7.3-14.4c-1,4.8-1.9,9.6-2.9,14.4c2.4,4.8,4.9,9.6,7.3,14.4
			C10,142.3,11,137.5,11.9,132.7L11.9,132.7z"/>
		<path id="XMLID_24_" class="st0" d="M11.7,152.7c3.5-4.1,7-8.1,10.6-12.2c-0.2,4.9-0.4,9.8-0.7,14.7c-3.5,4.1-7,8.1-10.5,12.2
			C11.2,162.5,11.4,157.6,11.7,152.7L11.7,152.7z"/>
		<path id="XMLID_23_" class="st0" d="M10.1,152.7c-3.1-4.4-6.3-8.7-9.4-13.1c-0.2,4.9-0.4,9.8-0.7,14.7c3.1,4.4,6.3,8.7,9.4,13.1
			C9.6,162.5,9.8,157.6,10.1,152.7L10.1,152.7z"/>
		<path id="XMLID_22_" class="st0" d="M12.3,172.4c3.1-4.4,6.2-8.8,9.3-13.2c0.3,4.9,0.6,9.8,0.8,14.7c-3.1,4.4-6.2,8.8-9.3,13.2
			C12.9,182.2,12.6,177.3,12.3,172.4L12.3,172.4z"/>
		<path id="XMLID_21_" class="st0" d="M10.7,172.5c-3.6-4-7.1-8.1-10.7-12.1c0.3,4.9,0.5,9.8,0.8,14.7c3.6,4,7.1,8.1,10.7,12.1
			C11.3,182.3,11,177.4,10.7,172.5L10.7,172.5z"/>
		<path id="XMLID_20_" class="st0" d="M15.5,192c2.4-4.8,4.8-9.6,7.2-14.5c1,4.8,2,9.6,3,14.4c-2.4,4.8-4.8,9.6-7.2,14.5
			C17.6,201.6,16.5,196.8,15.5,192L15.5,192z"/>
		<path id="XMLID_19_" class="st0" d="M14,192.3c-4.1-3.5-8.3-6.9-12.4-10.3c1,4.8,2,9.6,3,14.4c4.1,3.4,8.3,6.9,12.4,10.3
			C16,201.9,15,197.1,14,192.3L14,192.3z"/>
		<path id="XMLID_18_" class="st0" d="M21.2,211c1.6-5.1,3.3-10.2,4.9-15.4c1.7,4.6,3.4,9.2,5.1,13.8c-1.6,5.1-3.3,10.2-4.9,15.4
			C24.6,220.2,22.9,215.6,21.2,211L21.2,211z"/>
		<path id="XMLID_17_" class="st0" d="M19.7,211.5c-4.6-2.8-9.2-5.6-13.8-8.4c1.7,4.6,3.4,9.2,5.1,13.8c4.6,2.8,9.2,5.6,13.8,8.4
			C23.1,220.7,21.4,216.1,19.7,211.5L19.7,211.5z"/>
		<path id="XMLID_16_" class="st0" d="M29.2,229c1.1-5.3,2.3-10.5,3.4-15.8c2.2,4.4,4.3,8.8,6.5,13.2c-1.1,5.3-2.3,10.5-3.4,15.8
			C33.5,237.8,31.4,233.4,29.2,229L29.2,229z"/>
		<path id="XMLID_15_" class="st0" d="M27.8,229.6c-4.8-2.3-9.7-4.7-14.5-7c2.2,4.4,4.3,8.8,6.5,13.2c4.8,2.3,9.7,4.7,14.5,7
			C32.1,238.5,30,234.1,27.8,229.6L27.8,229.6z"/>
		<path id="XMLID_14_" class="st0" d="M39.6,245.8c0.4-5.4,0.7-10.7,1.1-16.1c2.8,4,5.5,8.1,8.3,12.1c-0.4,5.4-0.7,10.7-1.1,16.1
			C45.1,253.9,42.3,249.9,39.6,245.8L39.6,245.8z"/>
		<path id="XMLID_13_" class="st0" d="M37.9,246.1c-5.1-1.6-10.3-3.3-15.4-4.9c2.8,4.1,5.5,8.1,8.3,12.2c5.1,1.6,10.2,3.3,15.4,4.9
			C43.4,254.3,40.6,250.2,37.9,246.1L37.9,246.1z"/>
		<path id="XMLID_12_" class="st0" d="M51.4,260.7c-0.1-5.4-0.3-10.8-0.4-16.1c3.1,3.8,6.3,7.6,9.4,11.3c0.1,5.4,0.3,10.8,0.4,16.1
			C57.7,268.3,54.6,264.5,51.4,260.7L51.4,260.7z"/>
		<path id="XMLID_11_" class="st0" d="M50.2,261.7c-5.2-1.1-10.5-2.3-15.8-3.4c3.1,3.8,6.3,7.6,9.4,11.3c5.2,1.1,10.5,2.2,15.8,3.4
			C56.5,269.3,53.3,265.5,50.2,261.7L50.2,261.7z"/>
		<path id="XMLID_10_" class="st0" d="M65.7,274.5c-0.9-5.3-1.8-10.6-2.7-15.9c3.6,3.3,7.3,6.6,10.9,9.9c0.9,5.3,1.8,10.6,2.7,15.9
			C72.9,281.1,69.3,277.8,65.7,274.5L65.7,274.5z"/>
		<path id="XMLID_9_" class="st0" d="M64.6,275.6c-5.4-0.4-10.7-0.7-16.1-1.1c3.6,3.3,7.3,6.6,10.9,9.9c5.4,0.4,10.7,0.7,16.1,1.1
			C71.9,282.2,68.2,278.9,64.6,275.6L64.6,275.6z"/>
		<path id="XMLID_8_" class="st0" d="M81.5,286.3c-1.7-5.1-3.3-10.2-4.9-15.4c4.1,2.7,8.1,5.5,12.2,8.2c1.6,5.1,3.3,10.2,4.9,15.4
			C89.6,291.8,85.6,289.1,81.5,286.3L81.5,286.3z"/>
		<path id="XMLID_7_" class="st0" d="M80.6,287.7c-5.4,0.4-10.7,0.8-16.1,1.2c4.1,2.7,8.1,5.5,12.2,8.2c5.4-0.4,10.7-0.8,16.1-1.2
			C88.7,293.1,84.7,290.4,80.6,287.7L80.6,287.7z"/>
		<path id="XMLID_6_" class="st0" d="M98.6,296.1c-2.1-4.9-4.3-9.9-6.4-14.8c4.3,2.3,8.6,4.7,12.9,7c2.1,4.9,4.3,9.9,6.4,14.8
			C107.2,300.7,102.9,298.4,98.6,296.1L98.6,296.1z"/>
		<path id="XMLID_5_" class="st0" d="M97.9,297.5c-5.3,0.9-10.6,1.8-15.9,2.8c4.3,2.3,8.6,4.7,12.9,7c5.3-0.9,10.6-1.9,15.9-2.8
			C106.5,302.1,102.2,299.8,97.9,297.5L97.9,297.5z"/>
		<path id="XMLID_4_" class="st0" d="M117,303.5c-2.8-4.6-5.7-9.1-8.5-13.7c4.6,1.7,9.2,3.3,13.8,5c2.8,4.6,5.7,9.1,8.5,13.7
			C126.2,306.9,121.6,305.2,117,303.5L117,303.5z"/>
		<path id="XMLID_3_" class="st0" d="M116.4,305c-5.1,1.7-10.2,3.4-15.3,5.1c4.6,1.7,9.2,3.3,13.8,5c5.1-1.7,10.2-3.4,15.3-5.1
			C125.6,308.3,121,306.7,116.4,305L116.4,305z"/>
		<polygon id="XMLID_2_" class="st0" points="89.7,28.4 100.5,15.7 84.3,19.6 73.5,32.4 89.7,28.4 		"/>
	</g>
</g>
<text id="XMLID_76_" transform="matrix(1 0 0 1 77.4568 85.7163)"><tspan x="0" y="0" class="st1 st2 st3">COMPANY</tspan><tspan x="-26.9" y="43.2" class="st1 st2 st3">OF THE YEAR</tspan></text>
<text id="XMLID_79_" transform="matrix(1 0 0 1 39.7635 171.5491)"><tspan x="0" y="0" class="st1 st4 st5">AZERBAIJAN NATIONAL</tspan><tspan x="30.3" y="28.8" class="st1 st4 st5">BUSINESS AWARD</tspan></text>
<path id="XMLID_81_" class="st1" d="M55.6,141.5c0,0,3.6-0.1,9.8-0.3c6.2-0.2,15.1-0.6,25.8-0.8c10.7-0.2,23.1-0.6,36.4-0.6
	c13.3-0.1,27.5-0.2,41.8-0.3c14.2,0.1,28.4,0.2,41.8,0.3c13.3,0.1,25.8,0.5,36.4,0.6c10.7,0.2,19.5,0.6,25.8,0.8
	c6.2,0.2,9.8,0.3,9.8,0.3v0.2H55.6V141.5z"/>
<path id="XMLID_80_" class="st1" d="M294.8,216.2c0,0-3.9,0.1-10.8,0.4c-6.9,0.2-16.7,0.7-28.4,0.9c-11.8,0.2-25.5,0.6-40.2,0.7
	c-14.7,0.1-30.4,0.2-46.1,0.3c-15.7-0.1-31.4-0.2-46.1-0.3c-14.7-0.1-28.4-0.5-40.2-0.7c-11.8-0.2-21.6-0.7-28.4-0.9
	c-6.9-0.2-10.8-0.4-10.8-0.4v-0.3h251V216.2z"/>
<text id="XMLID_83_" transform="matrix(1 0 0 1 75.9188 248.6223)"><tspan x="0" y="0" class="st1 st4 st6">FOR ENGINEERING</tspan><tspan x="44" y="26.4" class="st1 st4 st6">SERVICES</tspan></text>
<text id="XMLID_84_" transform="matrix(1 0 0 1 144.6046 316.8646)" class="st1 st2 st6">2007</text>
</svg>
