<?xml version="1.0" encoding="utf-8"?>
<!-- Generator: Adobe Illustrator 19.0.0, SVG Export Plug-In . SVG Version: 6.00 Build 0)  -->
<svg version="1.1" id="Layer_1" xmlns="http://www.w3.org/2000/svg" xmlns:xlink="http://www.w3.org/1999/xlink" x="0px" y="0px"
	 viewBox="-80 81.4 338.6 338.6" style="enable-background:new -80 81.4 338.6 338.6;" xml:space="preserve">
<style type="text/css">
	.st0{fill:#FFFFFF;}
	.st1{enable-background:new    ;}
</style>
<g id="XMLID_77_">
	<g id="XMLID_116_">
		<path id="XMLID_75_" class="st0" d="M184.3,114.4c-5.4,0.4-10.7,0.9-16.1,1.3c4.1,2.7,8.2,5.4,12.2,8.2c5.4-0.4,10.7-0.9,16.1-1.3
			C192.5,119.9,188.4,117.1,184.3,114.4L184.3,114.4z"/>
		<path id="XMLID_74_" class="st0" d="M185.2,113.1c-1.7-5.1-3.3-10.2-5-15.3c4.1,2.7,8.2,5.4,12.2,8.2c1.7,5.1,3.3,10.2,5,15.3
			C193.4,118.5,189.3,115.8,185.2,113.1L185.2,113.1z"/>
		<path id="XMLID_73_" class="st0" d="M199.4,127.2c-5.4-0.3-10.7-0.7-16.1-1c3.7,3.3,7.3,6.6,11,9.8c5.4,0.3,10.7,0.7,16.1,1
			C206.7,133.7,203.1,130.5,199.4,127.2L199.4,127.2z"/>
		<path id="XMLID_72_" class="st0" d="M200.5,126c-0.9-5.3-1.8-10.6-2.8-15.9c3.6,3.3,7.3,6.6,11,9.8c0.9,5.3,1.8,10.6,2.8,15.9
			C207.8,132.6,204.2,129.3,200.5,126L200.5,126z"/>
		<path id="XMLID_71_" class="st0" d="M212.8,141.8c-5.3-1.1-10.5-2.2-15.8-3.3c3.2,3.8,6.3,7.5,9.4,11.3c5.3,1.1,10.5,2.2,15.8,3.3
			C219.1,149.3,216,145.5,212.8,141.8L212.8,141.8z"/>
		<path id="XMLID_70_" class="st0" d="M214.1,140.8c-0.2-5.4-0.3-10.8-0.5-16.1c3.1,3.8,6.3,7.5,9.4,11.3c0.2,5.4,0.3,10.7,0.5,16.1
			C220.3,148.3,217.2,144.5,214.1,140.8L214.1,140.8z"/>
		<path id="XMLID_69_" class="st0" d="M224.3,157.9c-5-1.9-10.1-3.7-15.1-5.6c2.6,4.2,5.1,8.4,7.7,12.5c5.1,1.9,10.1,3.7,15.1,5.6
			C229.4,166.3,226.9,162.1,224.3,157.9L224.3,157.9z"/>
		<path id="XMLID_68_" class="st0" d="M225.6,157.1c0.6-5.3,1.3-10.7,1.9-16c2.6,4.2,5.1,8.4,7.7,12.5c-0.6,5.3-1.2,10.7-1.9,16
			C230.8,165.4,228.2,161.2,225.6,157.1L225.6,157.1z"/>
		<path id="XMLID_67_" class="st0" d="M233.5,175.3c-4.8-2.3-9.7-4.7-14.5-7c2.2,4.4,4.3,8.8,6.5,13.2c4.8,2.3,9.7,4.7,14.5,7
			C237.8,184.2,235.6,179.8,233.5,175.3L233.5,175.3z"/>
		<path id="XMLID_66_" class="st0" d="M234.9,174.6c1.1-5.3,2.3-10.5,3.4-15.8c2.2,4.4,4.3,8.8,6.5,13.2c-1.1,5.3-2.3,10.5-3.4,15.8
			C239.2,183.5,237,179.1,234.9,174.6L234.9,174.6z"/>
		<path id="XMLID_65_" class="st0" d="M240.4,193.9c-4.4-3-8.9-6-13.3-9.1c1.5,4.7,3,9.4,4.4,14c4.4,3,8.9,6,13.3,9.1
			C243.4,203.2,241.9,198.6,240.4,193.9L240.4,193.9z"/>
		<path id="XMLID_64_" class="st0" d="M241.9,193.4c1.9-5,3.8-10.1,5.7-15.1c1.5,4.7,3,9.4,4.4,14c-1.9,5-3.8,10.1-5.7,15.1
			C244.9,202.8,243.4,198.1,241.9,193.4L241.9,193.4z"/>
		<path id="XMLID_63_" class="st0" d="M244.9,213.1c-4.1-3.5-8.2-6.9-12.4-10.4c1,4.8,2,9.6,3,14.4c4.1,3.5,8.2,6.9,12.4,10.4
			C246.9,222.7,245.9,217.9,244.9,213.1L244.9,213.1z"/>
		<path id="XMLID_62_" class="st0" d="M246.5,212.8c2.4-4.8,4.8-9.6,7.2-14.4c1,4.8,2,9.6,3,14.4c-2.4,4.8-4.8,9.6-7.2,14.4
			C248.5,222.4,247.5,217.6,246.5,212.8L246.5,212.8z"/>
		<path id="XMLID_61_" class="st0" d="M246.9,232.8c-3.6-4-7.1-8.1-10.7-12.1c0.3,4.9,0.5,9.8,0.8,14.7c3.6,4,7.1,8.1,10.7,12.1
			C247.4,242.6,247.2,237.7,246.9,232.8L246.9,232.8z"/>
		<path id="XMLID_60_" class="st0" d="M248.5,232.7c3.1-4.4,6.2-8.8,9.3-13.2c0.3,4.9,0.5,9.8,0.8,14.7c-3.1,4.4-6.2,8.8-9.3,13.2
			C249,242.5,248.7,237.6,248.5,232.7L248.5,232.7z"/>
		<path id="XMLID_59_" class="st0" d="M246.4,252.5c-3.1-4.4-6.2-8.8-9.4-13.1c-0.2,4.9-0.5,9.8-0.7,14.7c3.1,4.4,6.2,8.8,9.4,13.1
			C245.9,262.3,246.2,257.4,246.4,252.5L246.4,252.5z"/>
		<path id="XMLID_58_" class="st0" d="M248,252.6c3.5-4.1,7.1-8.1,10.6-12.2c-0.2,4.9-0.5,9.8-0.7,14.7c-3.5,4.1-7,8.1-10.6,12.2
			C247.5,262.4,247.7,257.5,248,252.6L248,252.6z"/>
		<path id="XMLID_57_" class="st0" d="M243.4,272.1c-2.4-4.8-4.9-9.6-7.3-14.4c-1,4.8-1.9,9.6-2.9,14.4c2.4,4.8,4.9,9.6,7.3,14.4
			C241.4,281.7,242.4,276.9,243.4,272.1L243.4,272.1z"/>
		<path id="XMLID_56_" class="st0" d="M244.9,272.4c4.1-3.5,8.2-7,12.3-10.5c-1,4.8-1.9,9.6-2.9,14.4c-4.1,3.5-8.2,7-12.3,10.5
			C243,282,243.9,277.2,244.9,272.4L244.9,272.4z"/>
		<path id="XMLID_55_" class="st0" d="M237.9,291.1c-1.7-5.1-3.4-10.2-5.1-15.3c-1.7,4.6-3.3,9.2-5,13.8c1.7,5.1,3.4,10.2,5.1,15.3
			C234.5,300.3,236.2,295.7,237.9,291.1L237.9,291.1z"/>
		<path id="XMLID_54_" class="st0" d="M239.4,291.6c4.6-2.8,9.1-5.7,13.7-8.5c-1.7,4.6-3.3,9.2-5,13.8c-4.6,2.8-9.1,5.7-13.7,8.5
			C236,300.9,237.7,296.3,239.4,291.6L239.4,291.6z"/>
		<path id="XMLID_53_" class="st0" d="M230,309.2c-1.2-5.3-2.4-10.5-3.5-15.8c-2.1,4.4-4.2,8.9-6.3,13.3c1.2,5.3,2.4,10.5,3.5,15.8
			C225.7,318,227.8,313.6,230,309.2L230,309.2z"/>
		<path id="XMLID_52_" class="st0" d="M231.4,309.8c4.8-2.4,9.6-4.7,14.5-7.1c-2.1,4.4-4.2,8.8-6.4,13.3c-4.8,2.4-9.7,4.7-14.5,7.1
			C227.2,318.7,229.3,314.3,231.4,309.8L231.4,309.8z"/>
		<path id="XMLID_51_" class="st0" d="M219.8,326.1c-0.4-5.4-0.8-10.7-1.2-16.1c-2.7,4.1-5.5,8.2-8.2,12.2
			c0.4,5.4,0.8,10.7,1.2,16.1C214.3,334.3,217,330.2,219.8,326.1L219.8,326.1z"/>
		<path id="XMLID_50_" class="st0" d="M220.7,327.5c5.1-1.6,10.3-3.3,15.4-4.9c-2.7,4.1-5.5,8.1-8.3,12.2
			c-5.1,1.6-10.2,3.3-15.4,4.9C215.2,335.7,218,331.6,220.7,327.5L220.7,327.5z"/>
		<path id="XMLID_49_" class="st0" d="M207.2,342.1c0.1-5.4,0.3-10.8,0.4-16.1c-3.1,3.8-6.3,7.6-9.4,11.3
			c-0.1,5.4-0.3,10.8-0.4,16.1C200.9,349.7,204.1,345.9,207.2,342.1L207.2,342.1z"/>
		<path id="XMLID_48_" class="st0" d="M208.4,343.1c5.2-1.1,10.5-2.3,15.8-3.4c-3.1,3.8-6.3,7.6-9.4,11.3
			c-5.2,1.1-10.5,2.2-15.8,3.4C202.1,350.7,205.3,346.9,208.4,343.1L208.4,343.1z"/>
		<path id="XMLID_47_" class="st0" d="M193,355.9c0.9-5.3,1.8-10.6,2.7-15.9c-3.6,3.3-7.3,6.6-10.9,9.9c-0.9,5.3-1.8,10.6-2.7,15.9
			C185.7,362.5,189.3,359.2,193,355.9L193,355.9z"/>
		<path id="XMLID_46_" class="st0" d="M194,357c5.4-0.4,10.7-0.7,16.1-1.1c-3.6,3.3-7.3,6.6-10.9,9.9c-5.4,0.4-10.7,0.7-16.1,1.1
			C186.8,363.6,190.4,360.3,194,357L194,357z"/>
		<path id="XMLID_45_" class="st0" d="M177.1,367.7c1.6-5.1,3.3-10.2,4.9-15.4c-4.1,2.7-8.1,5.5-12.2,8.2
			c-1.6,5.1-3.3,10.2-4.9,15.4C169,373.2,173.1,370.5,177.1,367.7L177.1,367.7z"/>
		<path id="XMLID_44_" class="st0" d="M178,369.1c5.4,0.4,10.7,0.8,16.1,1.2c-4.1,2.7-8.1,5.5-12.2,8.2c-5.4-0.4-10.7-0.8-16.1-1.2
			C169.9,374.5,174,371.8,178,369.1L178,369.1z"/>
		<path id="XMLID_43_" class="st0" d="M160,377.5c2.1-4.9,4.3-9.9,6.4-14.8c-4.3,2.3-8.6,4.7-12.9,7c-2.1,4.9-4.3,9.9-6.4,14.8
			C151.4,382.1,155.7,379.8,160,377.5L160,377.5z"/>
		<path id="XMLID_42_" class="st0" d="M160.8,378.9c5.3,0.9,10.6,1.8,15.9,2.8c-4.3,2.3-8.6,4.7-13,7c-5.3-0.9-10.6-1.9-15.9-2.8
			C152.1,383.5,156.5,381.2,160.8,378.9L160.8,378.9z"/>
		<path id="XMLID_41_" class="st0" d="M141.7,384.9c2.8-4.6,5.7-9.1,8.5-13.7c-4.6,1.7-9.2,3.3-13.8,5c-2.8,4.6-5.7,9.1-8.5,13.7
			C132.4,388.3,137.1,386.6,141.7,384.9L141.7,384.9z"/>
		<path id="XMLID_40_" class="st0" d="M142.2,386.4c5.1,1.7,10.2,3.4,15.3,5.1c-4.6,1.7-9.2,3.3-13.8,5c-5.1-1.7-10.2-3.4-15.3-5.1
			C133,389.7,137.6,388.1,142.2,386.4L142.2,386.4z"/>
		<polygon id="XMLID_39_" class="st0" points="167.8,109.2 156.9,96.5 173.2,100.3 184,113 		"/>
	</g>
	<g id="XMLID_78_">
		<path id="XMLID_38_" class="st0" d="M-6.8,115.2c5.4,0.4,10.7,0.8,16.1,1.2c-4.1,2.8-8.1,5.5-12.2,8.3c-5.4-0.4-10.7-0.8-16.1-1.2
			C-14.9,120.7-10.8,118-6.8,115.2L-6.8,115.2z"/>
		<path id="XMLID_37_" class="st0" d="M-7.7,113.9c1.6-5.1,3.2-10.3,4.9-15.4c-4.1,2.7-8.1,5.5-12.2,8.3c-1.6,5.1-3.3,10.3-4.9,15.4
			C-15.8,119.4-11.7,116.7-7.7,113.9L-7.7,113.9z"/>
		<path id="XMLID_36_" class="st0" d="M-21.8,128.1c5.4-0.4,10.7-0.8,16.1-1.2c-3.6,3.3-7.2,6.6-10.9,9.9
			c-5.4,0.4-10.7,0.8-16.1,1.2C-29,134.8-25.4,131.4-21.8,128.1L-21.8,128.1z"/>
		<path id="XMLID_35_" class="st0" d="M-22.9,127c0.9-5.3,1.7-10.6,2.6-15.9c-3.6,3.3-7.2,6.6-10.9,9.9c-0.9,5.3-1.8,10.6-2.6,15.9
			C-30.1,133.6-26.5,130.3-22.9,127L-22.9,127z"/>
		<path id="XMLID_34_" class="st0" d="M-35.1,142.8c5.3-1.2,10.5-2.3,15.7-3.5c-3.1,3.8-6.2,7.6-9.3,11.4
			c-5.2,1.1-10.5,2.3-15.8,3.4C-41.3,150.4-38.2,146.6-35.1,142.8L-35.1,142.8z"/>
		<path id="XMLID_33_" class="st0" d="M-36.3,141.8c0.1-5.4,0.2-10.8,0.3-16.1c-3.1,3.8-6.2,7.6-9.3,11.4
			c-0.1,5.4-0.2,10.8-0.3,16.1C-42.5,149.4-39.4,145.6-36.3,141.8L-36.3,141.8z"/>
		<path id="XMLID_32_" class="st0" d="M-46.4,159.1c5-1.9,10.1-3.8,15.1-5.7c-2.5,4.2-5.1,8.4-7.6,12.6c-5,1.9-10.1,3.8-15.1,5.7
			C-51.4,167.5-48.9,163.2-46.4,159.1L-46.4,159.1z"/>
		<path id="XMLID_31_" class="st0" d="M-47.7,158.2c-0.7-5.3-1.3-10.7-2-16c-2.5,4.2-5.1,8.4-7.6,12.6c0.7,5.3,1.3,10.7,2,16
			C-52.8,166.6-50.3,162.4-47.7,158.2L-47.7,158.2z"/>
		<path id="XMLID_30_" class="st0" d="M-55.4,176.6c4.8-2.4,9.7-4.8,14.5-7.1c-2.1,4.4-4.2,8.9-6.3,13.3c-4.8,2.4-9.6,4.7-14.5,7.1
			C-59.6,185.4-57.5,181-55.4,176.6L-55.4,176.6z"/>
		<path id="XMLID_29_" class="st0" d="M-56.8,175.9c-1.2-5.3-2.4-10.5-3.6-15.8c-2.1,4.4-4.2,8.9-6.3,13.3
			c1.2,5.3,2.4,10.5,3.5,15.7C-61.1,184.7-59,180.3-56.8,175.9L-56.8,175.9z"/>
		<path id="XMLID_28_" class="st0" d="M-62.2,195.2c4.4-3.1,8.9-6.1,13.3-9.2c-1.4,4.7-2.9,9.4-4.3,14.1c-4.4,3.1-8.8,6.1-13.3,9.2
			C-65.1,204.6-63.6,199.9-62.2,195.2L-62.2,195.2z"/>
		<path id="XMLID_27_" class="st0" d="M-63.7,194.7c-1.9-5-3.9-10-5.8-15c-1.4,4.7-2.9,9.4-4.3,14.1c1.9,5,3.9,10,5.8,15
			C-66.6,204.1-65.2,199.4-63.7,194.7L-63.7,194.7z"/>
		<path id="XMLID_26_" class="st0" d="M-66.5,214.4c4.1-3.5,8.2-7,12.3-10.5c-1,4.8-1.9,9.6-2.9,14.4c-4.1,3.5-8.2,7-12.3,10.5
			C-68.5,224-67.5,219.2-66.5,214.4L-66.5,214.4z"/>
		<path id="XMLID_25_" class="st0" d="M-68.1,214.1c-2.4-4.8-4.9-9.6-7.3-14.4c-1,4.8-1.9,9.6-2.9,14.4c2.4,4.8,4.9,9.6,7.3,14.4
			C-70,223.7-69,218.9-68.1,214.1L-68.1,214.1z"/>
		<path id="XMLID_24_" class="st0" d="M-68.3,234.1c3.5-4.1,7-8.1,10.6-12.2c-0.2,4.9-0.4,9.8-0.7,14.7c-3.5,4.1-7,8.1-10.5,12.2
			C-68.8,243.9-68.6,239-68.3,234.1L-68.3,234.1z"/>
		<path id="XMLID_23_" class="st0" d="M-69.9,234.1c-3.1-4.4-6.3-8.7-9.4-13.1c-0.2,4.9-0.4,9.8-0.7,14.7c3.1,4.4,6.3,8.7,9.4,13.1
			C-70.4,243.9-70.2,239-69.9,234.1L-69.9,234.1z"/>
		<path id="XMLID_22_" class="st0" d="M-67.7,253.8c3.1-4.4,6.2-8.8,9.3-13.2c0.3,4.9,0.6,9.8,0.8,14.7c-3.1,4.4-6.2,8.8-9.3,13.2
			C-67.1,263.6-67.4,258.7-67.7,253.8L-67.7,253.8z"/>
		<path id="XMLID_21_" class="st0" d="M-69.3,253.9c-3.6-4-7.1-8.1-10.7-12.1c0.3,4.9,0.5,9.8,0.8,14.7c3.6,4,7.1,8.1,10.7,12.1
			C-68.7,263.7-69,258.8-69.3,253.9L-69.3,253.9z"/>
		<path id="XMLID_20_" class="st0" d="M-64.5,273.4c2.4-4.8,4.8-9.6,7.2-14.5c1,4.8,2,9.6,3,14.4c-2.4,4.8-4.8,9.6-7.2,14.5
			C-62.4,283-63.5,278.2-64.5,273.4L-64.5,273.4z"/>
		<path id="XMLID_19_" class="st0" d="M-66,273.7c-4.1-3.5-8.3-6.9-12.4-10.3c1,4.8,2,9.6,3,14.4c4.1,3.4,8.3,6.9,12.4,10.3
			C-64,283.3-65,278.5-66,273.7L-66,273.7z"/>
		<path id="XMLID_18_" class="st0" d="M-58.8,292.4c1.6-5.1,3.3-10.2,4.9-15.4c1.7,4.6,3.4,9.2,5.1,13.8c-1.6,5.1-3.3,10.2-4.9,15.4
			C-55.4,301.6-57.1,297-58.8,292.4L-58.8,292.4z"/>
		<path id="XMLID_17_" class="st0" d="M-60.3,292.9c-4.6-2.8-9.2-5.6-13.8-8.4c1.7,4.6,3.4,9.2,5.1,13.8c4.6,2.8,9.2,5.6,13.8,8.4
			C-56.9,302.1-58.6,297.5-60.3,292.9L-60.3,292.9z"/>
		<path id="XMLID_16_" class="st0" d="M-50.8,310.4c1.1-5.3,2.3-10.5,3.4-15.8c2.2,4.4,4.3,8.8,6.5,13.2c-1.1,5.3-2.3,10.5-3.4,15.8
			C-46.5,319.2-48.6,314.8-50.8,310.4L-50.8,310.4z"/>
		<path id="XMLID_15_" class="st0" d="M-52.2,311c-4.8-2.3-9.7-4.7-14.5-7c2.2,4.4,4.3,8.8,6.5,13.2c4.8,2.3,9.7,4.7,14.5,7
			C-47.9,319.9-50,315.5-52.2,311L-52.2,311z"/>
		<path id="XMLID_14_" class="st0" d="M-40.4,327.2c0.4-5.4,0.7-10.7,1.1-16.1c2.8,4,5.5,8.1,8.3,12.1c-0.4,5.4-0.7,10.7-1.1,16.1
			C-34.9,335.3-37.7,331.3-40.4,327.2L-40.4,327.2z"/>
		<path id="XMLID_13_" class="st0" d="M-42.1,327.5c-5.1-1.6-10.3-3.3-15.4-4.9c2.8,4.1,5.5,8.1,8.3,12.2c5.1,1.6,10.2,3.3,15.4,4.9
			C-36.6,335.7-39.4,331.6-42.1,327.5L-42.1,327.5z"/>
		<path id="XMLID_12_" class="st0" d="M-28.6,342.1c-0.1-5.4-0.3-10.8-0.4-16.1c3.1,3.8,6.3,7.6,9.4,11.3c0.1,5.4,0.3,10.8,0.4,16.1
			C-22.3,349.7-25.4,345.9-28.6,342.1L-28.6,342.1z"/>
		<path id="XMLID_11_" class="st0" d="M-29.8,343.1c-5.2-1.1-10.5-2.3-15.8-3.4c3.1,3.8,6.3,7.6,9.4,11.3c5.2,1.1,10.5,2.2,15.8,3.4
			C-23.5,350.7-26.7,346.9-29.8,343.1L-29.8,343.1z"/>
		<path id="XMLID_10_" class="st0" d="M-14.3,355.9c-0.9-5.3-1.8-10.6-2.7-15.9c3.6,3.3,7.3,6.6,10.9,9.9c0.9,5.3,1.8,10.6,2.7,15.9
			C-7.1,362.5-10.7,359.2-14.3,355.9L-14.3,355.9z"/>
		<path id="XMLID_9_" class="st0" d="M-15.4,357c-5.4-0.4-10.7-0.7-16.1-1.1c3.6,3.3,7.3,6.6,10.9,9.9c5.4,0.4,10.7,0.7,16.1,1.1
			C-8.1,363.6-11.8,360.3-15.4,357L-15.4,357z"/>
		<path id="XMLID_8_" class="st0" d="M1.5,367.7c-1.7-5.1-3.3-10.2-4.9-15.4c4.1,2.7,8.1,5.5,12.2,8.2c1.6,5.1,3.3,10.2,4.9,15.4
			C9.6,373.2,5.6,370.5,1.5,367.7L1.5,367.7z"/>
		<path id="XMLID_7_" class="st0" d="M0.6,369.1c-5.4,0.4-10.7,0.8-16.1,1.2c4.1,2.7,8.1,5.5,12.2,8.2c5.4-0.4,10.7-0.8,16.1-1.2
			C8.7,374.5,4.7,371.8,0.6,369.1L0.6,369.1z"/>
		<path id="XMLID_6_" class="st0" d="M18.6,377.5c-2.1-4.9-4.3-9.9-6.4-14.8c4.3,2.3,8.6,4.7,12.9,7c2.1,4.9,4.3,9.9,6.4,14.8
			C27.2,382.1,22.9,379.8,18.6,377.5L18.6,377.5z"/>
		<path id="XMLID_5_" class="st0" d="M17.9,378.9c-5.3,0.9-10.6,1.8-15.9,2.8c4.3,2.3,8.6,4.7,12.9,7c5.3-0.9,10.6-1.9,15.9-2.8
			C26.5,383.5,22.2,381.2,17.9,378.9L17.9,378.9z"/>
		<path id="XMLID_4_" class="st0" d="M37,384.9c-2.8-4.6-5.7-9.1-8.5-13.7c4.6,1.7,9.2,3.3,13.8,5c2.8,4.6,5.7,9.1,8.5,13.7
			C46.2,388.3,41.6,386.6,37,384.9L37,384.9z"/>
		<path id="XMLID_3_" class="st0" d="M36.4,386.4c-5.1,1.7-10.2,3.4-15.3,5.1c4.6,1.7,9.2,3.3,13.8,5c5.1-1.7,10.2-3.4,15.3-5.1
			C45.6,389.7,41,388.1,36.4,386.4L36.4,386.4z"/>
		<polygon id="XMLID_2_" class="st0" points="9.7,109.8 20.5,97.1 4.3,101 -6.5,113.8 		"/>
	</g>
</g>
<g class="st1">
	<path class="st0" d="M18.6,149.4h-2.4l-0.7-3.6c-0.6-0.6-1.3-1-2.1-1.4s-1.8-0.5-2.9-0.5c-2.7,0-4.7,1-6.1,2.9s-2.1,4.4-2.1,7.3
		v0.4c0,3,0.7,5.4,2.1,7.4s3.3,2.9,5.8,2.9c1.2,0,2.2-0.2,3.2-0.5s1.7-0.8,2.2-1.3l0.7-3.6h2.4v4.6c-0.7,0.9-1.8,1.8-3.3,2.5
		s-3.2,1.1-5.1,1.1c-3.3,0-6.1-1.2-8.2-3.7s-3.2-5.6-3.2-9.3v-0.4c0-3.8,1-6.9,3.1-9.3s4.8-3.7,8.2-3.7c1.9,0,3.7,0.4,5.1,1.1
		s2.6,1.6,3.3,2.5V149.4z"/>
	<path class="st0" d="M44.7,154.5c0,3.7-1.1,6.8-3.2,9.3s-4.9,3.7-8.3,3.7c-3.3,0-6-1.2-8.1-3.7s-3.1-5.6-3.1-9.3v-0.4
		c0-3.7,1-6.8,3.1-9.3s4.7-3.7,8.1-3.7c3.4,0,6.2,1.2,8.3,3.7s3.2,5.6,3.2,9.3V154.5z M41.3,154.1c0-3-0.7-5.4-2.1-7.3
		s-3.4-2.8-5.9-2.8c-2.4,0-4.3,0.9-5.7,2.8s-2,4.3-2,7.3v0.4c0,3,0.7,5.4,2,7.3s3.2,2.8,5.7,2.8c2.6,0,4.5-0.9,5.9-2.8
		s2.1-4.3,2.1-7.3V154.1z"/>
	<path class="st0" d="M72.3,146.6L72.3,146.6L64,167.1h-2.3l-8.3-20.5l-0.1,0l0.4,10.4v7.4l2.9,0.5v2.2h-9.2v-2.2l2.9-0.5v-20.2
		l-2.9-0.5v-2.2h2.9h4.4l8.2,20.8h0.1l8.1-20.8h7.3v2.2l-2.9,0.5v20.2l2.9,0.5v2.2h-9.2v-2.2l2.9-0.5V157L72.3,146.6z"/>
	<path class="st0" d="M92.6,141.5c2.7,0,4.9,0.7,6.4,2.1s2.3,3.3,2.3,5.6c0,2.3-0.8,4.2-2.3,5.6s-3.6,2.1-6.4,2.1h-5.4v7.6l2.9,0.5
		v2.2h-9.2v-2.2l2.9-0.5v-20.2l-2.9-0.5v-2.2h2.9H92.6z M87.1,154.1h5.4c1.7,0,3-0.5,3.9-1.4s1.3-2.1,1.3-3.5s-0.4-2.6-1.3-3.6
		s-2.2-1.4-3.9-1.4h-5.4V154.1z"/>
	<path class="st0" d="M98.9,164.9l1.9-0.3l8.9-23.1h3l8.8,23.1l1.9,0.3v2.2H116v-2.2l1.9-0.3l-1.7-4.7H106l-1.7,4.7l1.9,0.3v2.2
		h-7.3V164.9z M107.1,157h8.1l-4-11h-0.1L107.1,157z"/>
	<path class="st0" d="M150.6,141.5v2.2l-2.9,0.5v22.9h-3.5L132,147.4l-0.1,0v17l2.9,0.5v2.2h-9.2v-2.2l2.9-0.5v-20.2l-2.9-0.5v-2.2
		h2.9h3.5l12.3,19.7l0.1,0v-17l-2.9-0.5v-2.2h6.3H150.6z"/>
	<path class="st0" d="M161,143.8l-2.8,0.3l5.4,10.4l5.4-10.4l-2.7-0.3v-2.2h8.8v2.2l-2.2,0.3l-7.6,14v6.3l2.9,0.5v2.2h-9.2v-2.2
		l2.9-0.5v-6.6l-7.5-13.8l-2.1-0.3v-2.2h8.8V143.8z"/>
</g>
<g class="st1">
	<path class="st0" d="M-5.4,197.7c0,3.7-1.1,6.8-3.2,9.3s-4.9,3.7-8.3,3.7c-3.3,0-6-1.2-8.1-3.7s-3.1-5.6-3.1-9.3v-0.4
		c0-3.7,1-6.8,3.1-9.3s4.7-3.7,8.1-3.7c3.4,0,6.2,1.2,8.3,3.7s3.2,5.6,3.2,9.3V197.7z M-8.9,197.3c0-3-0.7-5.4-2.1-7.3
		s-3.4-2.8-5.9-2.8c-2.4,0-4.3,0.9-5.7,2.8s-2,4.3-2,7.3v0.4c0,3,0.7,5.4,2,7.3s3.2,2.8,5.7,2.8c2.6,0,4.5-0.9,5.9-2.8
		s2.1-4.3,2.1-7.3V197.3z"/>
	<path class="st0" d="M-2.8,208.1l2.9-0.5v-20.2l-2.9-0.5v-2.2H17v6.2h-3l-0.3-3.4H3.5v8.8h9.9v2.7H3.5v8.6l2.9,0.5v2.2h-9.2V208.1z
		"/>
	<path class="st0" d="M49.2,184.7v5.7h-3l-0.3-2.9h-5.7v20.2l2.9,0.5v2.2H34v-2.2l2.9-0.5v-20.2h-5.7l-0.2,2.9h-3v-5.7H49.2z"/>
	<path class="st0" d="M51.1,187v-2.2h9.2v2.2l-2.9,0.5v8.8h12.4v-8.8L67,187v-2.2h2.9h3.5h2.9v2.2l-2.9,0.5v20.2l2.9,0.5v2.2H67
		v-2.2l2.9-0.5V199H57.4v8.6l2.9,0.5v2.2h-9.2v-2.2l2.9-0.5v-20.2L51.1,187z"/>
	<path class="st0" d="M78.8,210.3v-2.2l2.9-0.5v-20.2l-2.9-0.5v-2.2h19.7v6.2h-3l-0.3-3.4H85.1v8.3h9.8v2.7h-9.8v9.2h10.3l0.3-3.4h3
		v6.1H78.8z"/>
	<path class="st0" d="M119.2,187l-2.8,0.3l5.4,10.4l5.4-10.4l-2.7-0.3v-2.2h8.8v2.2l-2.2,0.3l-7.6,14v6.3l2.9,0.5v2.2h-9.2v-2.2
		l2.9-0.5v-6.6l-7.5-13.8l-2.1-0.3v-2.2h8.8V187z"/>
	<path class="st0" d="M135.5,210.3v-2.2l2.9-0.5v-20.2l-2.9-0.5v-2.2h19.7v6.2h-3l-0.3-3.4h-10.1v8.3h9.8v2.7h-9.8v9.2h10.3l0.3-3.4
		h3v6.1H135.5z"/>
	<path class="st0" d="M158.2,208.1l1.9-0.3l8.9-23.1h3l8.8,23.1l1.9,0.3v2.2h-7.3v-2.2l1.9-0.3l-1.7-4.7h-10.2l-1.7,4.7l1.9,0.3v2.2
		h-7.3V208.1z M166.4,200.2h8.1l-4-11h-0.1L166.4,200.2z"/>
	<path class="st0" d="M196.1,184.7c2.8,0,4.9,0.6,6.4,1.9s2.2,3,2.2,5.3c0,1.2-0.3,2.3-1,3.3s-1.7,1.7-3,2.3c1.4,0.5,2.4,1.2,3,2.2
		s0.9,2.3,0.9,3.8v2.1c0,0.8,0.1,1.4,0.3,1.7s0.5,0.6,1,0.7l0.8,0.1v2.3h-1.9c-1.3,0-2.3-0.5-2.9-1.4s-0.9-2.1-0.9-3.4v-2
		c0-1.4-0.4-2.5-1.2-3.4s-1.9-1.3-3.3-1.3h-5.6v8.7l2.9,0.5v2.2h-9.2v-2.2l2.9-0.5v-20.2l-2.9-0.5v-2.2h2.9H196.1z M191.2,196.2h4.6
		c1.9,0,3.3-0.4,4.2-1.1s1.3-1.8,1.3-3.2c0-1.3-0.4-2.4-1.3-3.2s-2.2-1.2-3.9-1.2h-4.9V196.2z"/>
</g>
<g class="st1">
	<path class="st0" d="M-28.9,248.2h-7.7l-1.8,4.8h-1.5l6.5-17.1h1.4l6.5,17.1h-1.5L-28.9,248.2z M-36.2,246.9h6.8l-3.4-9.3
		L-36.2,246.9z"/>
	<path class="st0" d="M-22.4,251.7h10.5v1.2h-12.3v-1.1l10.1-14.8h-9.8v-1.2h11.6v1L-22.4,251.7z"/>
	<path class="st0" d="M0.7,244.8h-8v7h9.2v1.2H-8.7v-17.1H1.8v1.2h-9.1v6.4h8V244.8z"/>
	<path class="st0" d="M11.3,245.8h-5v7.1H4.9v-17.1h5.5c1.8,0,3.2,0.4,4.3,1.3c1,0.9,1.5,2.1,1.5,3.7c0,1.1-0.3,2.1-1,2.9
		s-1.5,1.4-2.6,1.7l4.3,7.3v0.2h-1.5L11.3,245.8z M6.3,244.6h4.4c1.2,0,2.2-0.3,2.9-1c0.7-0.7,1.1-1.6,1.1-2.7
		c0-1.2-0.4-2.1-1.1-2.8s-1.8-1-3.2-1H6.3V244.6z"/>
	<path class="st0" d="M20.2,252.9v-17.1h5c1.8,0,3.2,0.4,4.2,1.1c0.9,0.8,1.4,1.9,1.4,3.3c0,0.9-0.2,1.7-0.7,2.3
		c-0.5,0.7-1.1,1.1-2,1.4c1,0.2,1.8,0.7,2.4,1.5c0.6,0.8,0.9,1.6,0.9,2.6c0,1.5-0.5,2.7-1.5,3.5c-1,0.8-2.3,1.3-4.1,1.3H20.2z
		 M21.6,243.5h3.9c1.2,0,2.1-0.3,2.8-0.9c0.7-0.5,1-1.3,1-2.4c0-1.1-0.3-1.9-1-2.4s-1.7-0.8-3.1-0.8h-3.6V243.5z M21.6,244.8v7h4.3
		c1.2,0,2.2-0.3,2.9-0.9c0.7-0.6,1.1-1.5,1.1-2.6c0-1.1-0.3-1.9-1-2.5c-0.7-0.6-1.6-0.9-2.9-0.9H21.6z"/>
	<path class="st0" d="M44.1,248.2h-7.7l-1.8,4.8h-1.5l6.5-17.1h1.4l6.5,17.1h-1.5L44.1,248.2z M36.8,246.9h6.8l-3.4-9.3L36.8,246.9z
		"/>
	<path class="st0" d="M51.6,252.9h-1.4v-17.1h1.4V252.9z"/>
	<path class="st0" d="M63.8,235.9h1.5v12c0,1.6-0.5,2.9-1.4,3.9c-0.9,1-2.2,1.4-3.8,1.4c-1.7,0-2.9-0.4-3.8-1.3
		c-0.9-0.9-1.3-2.1-1.3-3.6h1.4c0,1.2,0.3,2.2,1,2.8c0.6,0.6,1.6,0.9,2.7,0.9c1.1,0,2-0.4,2.7-1.1c0.7-0.7,1-1.7,1-2.9V235.9z"/>
	<path class="st0" d="M78.4,248.2h-7.7l-1.8,4.8h-1.5l6.5-17.1h1.4l6.5,17.1h-1.5L78.4,248.2z M71.1,246.9h6.8l-3.4-9.3L71.1,246.9z
		"/>
	<path class="st0" d="M96.9,252.9h-1.4l-9.8-14.6v14.6h-1.5v-17.1h1.5l9.8,14.6v-14.6h1.4V252.9z"/>
	<path class="st0" d="M119.7,252.9h-1.4l-9.8-14.6v14.6H107v-17.1h1.5l9.8,14.6v-14.6h1.4V252.9z"/>
	<path class="st0" d="M133.5,248.2h-7.7l-1.8,4.8h-1.5l6.5-17.1h1.4l6.5,17.1h-1.5L133.5,248.2z M126.2,246.9h6.8l-3.4-9.3
		L126.2,246.9z"/>
	<path class="st0" d="M149.3,237.1h-5.8v15.8h-1.4v-15.8h-5.8v-1.2h13.1V237.1z"/>
	<path class="st0" d="M153.9,252.9h-1.4v-17.1h1.4V252.9z"/>
	<path class="st0" d="M171.1,245.3c0,1.6-0.3,2.9-0.8,4.1s-1.3,2.1-2.3,2.7s-2.2,1-3.5,1c-2,0-3.6-0.7-4.8-2.1
		c-1.2-1.4-1.8-3.3-1.8-5.8v-1.8c0-1.6,0.3-2.9,0.8-4.1s1.3-2.1,2.3-2.8s2.2-1,3.5-1s2.5,0.3,3.5,0.9s1.8,1.5,2.3,2.7s0.8,2.5,0.9,4
		V245.3z M169.7,243.5c0-2.1-0.5-3.7-1.4-4.8s-2.2-1.7-3.8-1.7c-1.6,0-2.8,0.6-3.8,1.8s-1.4,2.8-1.4,4.9v1.8c0,2,0.5,3.6,1.4,4.8
		s2.2,1.8,3.8,1.8c1.6,0,2.9-0.6,3.8-1.8s1.4-2.8,1.4-4.9V243.5z"/>
	<path class="st0" d="M187.4,252.9H186l-9.8-14.6v14.6h-1.5v-17.1h1.5l9.8,14.6v-14.6h1.4V252.9z"/>
	<path class="st0" d="M201.2,248.2h-7.7l-1.8,4.8h-1.5l6.5-17.1h1.4l6.5,17.1H203L201.2,248.2z M193.9,246.9h6.8l-3.4-9.3
		L193.9,246.9z"/>
	<path class="st0" d="M208.4,251.7h8.4v1.2H207v-17.1h1.5V251.7z"/>
</g>
<g class="st1">
	<path class="st0" d="M-7.8,281.7v-17.1h5c1.8,0,3.2,0.4,4.2,1.1c0.9,0.8,1.4,1.9,1.4,3.3c0,0.9-0.2,1.7-0.7,2.3
		c-0.5,0.7-1.1,1.1-2,1.4c1,0.2,1.8,0.7,2.4,1.5c0.6,0.8,0.9,1.6,0.9,2.6c0,1.5-0.5,2.7-1.5,3.5c-1,0.8-2.3,1.3-4.1,1.3H-7.8z
		 M-6.3,272.3h3.9c1.2,0,2.1-0.3,2.8-0.9c0.7-0.5,1-1.3,1-2.4c0-1.1-0.3-1.9-1-2.4s-1.7-0.8-3.1-0.8h-3.6V272.3z M-6.3,273.6v7H-2
		c1.2,0,2.2-0.3,2.9-0.9S2,278.1,2,277c0-1.1-0.3-1.9-1-2.5c-0.7-0.6-1.6-0.9-2.9-0.9H-6.3z"/>
	<path class="st0" d="M18.7,264.7v11.6c0,1.1-0.3,2.1-0.8,3s-1.2,1.5-2.1,2s-2,0.7-3.1,0.7c-1.8,0-3.2-0.5-4.3-1.5s-1.6-2.3-1.7-4.1
		v-11.8h1.4v11.5c0,1.4,0.4,2.6,1.2,3.3s1.9,1.2,3.3,1.2s2.5-0.4,3.3-1.2s1.2-1.9,1.2-3.3v-11.6H18.7z"/>
	<path class="st0" d="M32.4,277.6c0-0.9-0.3-1.7-1-2.2s-1.9-1.1-3.6-1.6s-3.1-1-3.9-1.6c-1.2-0.8-1.7-1.9-1.7-3.3
		c0-1.3,0.5-2.4,1.6-3.2s2.4-1.2,4.1-1.2c1.1,0,2.1,0.2,3,0.7s1.6,1,2.1,1.8s0.7,1.7,0.7,2.6h-1.5c0-1.2-0.4-2.1-1.2-2.8
		c-0.8-0.7-1.9-1.1-3.2-1.1c-1.3,0-2.3,0.3-3.1,0.9c-0.8,0.6-1.2,1.3-1.2,2.3c0,0.9,0.3,1.6,1,2.1s1.8,1,3.3,1.4s2.7,0.9,3.5,1.3
		s1.4,1,1.8,1.6s0.6,1.4,0.6,2.2c0,1.3-0.5,2.4-1.6,3.2S29.7,282,28,282c-1.2,0-2.3-0.2-3.3-0.6s-1.8-1-2.3-1.8s-0.8-1.7-0.8-2.7H23
		c0,1.2,0.4,2.2,1.3,2.8s2.1,1,3.6,1c1.3,0,2.4-0.3,3.2-0.9S32.4,278.5,32.4,277.6z"/>
	<path class="st0" d="M38.7,281.7h-1.4v-17.1h1.4V281.7z"/>
	<path class="st0" d="M56,281.7h-1.4l-9.8-14.6v14.6h-1.5v-17.1h1.5l9.8,14.6v-14.6H56V281.7z"/>
	<path class="st0" d="M69.8,273.6h-8v7H71v1.2H60.3v-17.1h10.6v1.2h-9.1v6.4h8V273.6z"/>
	<path class="st0" d="M83.6,277.6c0-0.9-0.3-1.7-1-2.2s-1.9-1.1-3.6-1.6s-3.1-1-3.9-1.6c-1.2-0.8-1.7-1.9-1.7-3.3
		c0-1.3,0.5-2.4,1.6-3.2s2.4-1.2,4.1-1.2c1.1,0,2.1,0.2,3,0.7s1.6,1,2.1,1.8s0.7,1.7,0.7,2.6h-1.5c0-1.2-0.4-2.1-1.2-2.8
		c-0.8-0.7-1.9-1.1-3.2-1.1c-1.3,0-2.3,0.3-3.1,0.9c-0.8,0.6-1.2,1.3-1.2,2.3c0,0.9,0.3,1.6,1,2.1s1.8,1,3.3,1.4s2.7,0.9,3.5,1.3
		s1.4,1,1.8,1.6s0.6,1.4,0.6,2.2c0,1.3-0.5,2.4-1.6,3.2S81,282,79.2,282c-1.2,0-2.3-0.2-3.3-0.6s-1.8-1-2.3-1.8s-0.8-1.7-0.8-2.7
		h1.4c0,1.2,0.4,2.2,1.3,2.8s2.1,1,3.6,1c1.3,0,2.4-0.3,3.2-0.9S83.6,278.5,83.6,277.6z"/>
	<path class="st0" d="M97.9,277.6c0-0.9-0.3-1.7-1-2.2s-1.9-1.1-3.6-1.6s-3.1-1-3.9-1.6c-1.2-0.8-1.7-1.9-1.7-3.3
		c0-1.3,0.5-2.4,1.6-3.2s2.4-1.2,4.1-1.2c1.1,0,2.1,0.2,3,0.7s1.6,1,2.1,1.8s0.7,1.7,0.7,2.6h-1.5c0-1.2-0.4-2.1-1.2-2.8
		c-0.8-0.7-1.9-1.1-3.2-1.1c-1.3,0-2.3,0.3-3.1,0.9c-0.8,0.6-1.2,1.3-1.2,2.3c0,0.9,0.3,1.6,1,2.1s1.8,1,3.3,1.4s2.7,0.9,3.5,1.3
		s1.4,1,1.8,1.6s0.6,1.4,0.6,2.2c0,1.3-0.5,2.4-1.6,3.2s-2.5,1.2-4.2,1.2c-1.2,0-2.3-0.2-3.3-0.6s-1.8-1-2.3-1.8s-0.8-1.7-0.8-2.7
		h1.4c0,1.2,0.4,2.2,1.3,2.8s2.1,1,3.6,1c1.3,0,2.4-0.3,3.2-0.9S97.9,278.5,97.9,277.6z"/>
	<path class="st0" d="M117.5,277h-7.7l-1.8,4.8h-1.5l6.5-17.1h1.4l6.5,17.1h-1.5L117.5,277z M110.2,275.7h6.8l-3.4-9.3L110.2,275.7z
		"/>
	<path class="st0" d="M125.6,277.1l0.5,2.6l0.6-2.5l3.7-12.6h1.3l3.7,12.6l0.6,2.6l0.6-2.7l3.1-12.5h1.5l-4.4,17.1h-1.4l-3.9-13.3
		l-0.4-1.7l-0.4,1.7l-4,13.3h-1.4l-4.4-17.1h1.5L125.6,277.1z"/>
	<path class="st0" d="M152.7,277h-7.7l-1.8,4.8h-1.5l6.5-17.1h1.4l6.5,17.1h-1.5L152.7,277z M145.4,275.7h6.8l-3.4-9.3L145.4,275.7z
		"/>
	<path class="st0" d="M164.8,274.6h-5v7.1h-1.5v-17.1h5.5c1.8,0,3.2,0.4,4.3,1.3c1,0.9,1.5,2.1,1.5,3.7c0,1.1-0.3,2.1-1,2.9
		s-1.5,1.4-2.6,1.7l4.3,7.3v0.2h-1.5L164.8,274.6z M159.9,273.4h4.4c1.2,0,2.2-0.3,2.9-1c0.7-0.7,1.1-1.6,1.1-2.7
		c0-1.2-0.4-2.1-1.1-2.8s-1.8-1-3.2-1h-4.1V273.4z"/>
	<path class="st0" d="M173.7,281.7v-17.1h4.8c1.4,0,2.7,0.3,3.8,1s2,1.5,2.6,2.7s0.9,2.5,0.9,4.1v1.6c0,1.5-0.3,2.9-0.9,4.1
		s-1.5,2.1-2.6,2.7s-2.4,1-3.9,1H173.7z M175.1,265.9v14.6h3.2c1.8,0,3.2-0.6,4.3-1.8c1.1-1.2,1.6-2.8,1.6-4.8v-1.5
		c0-2-0.5-3.5-1.6-4.7c-1.1-1.2-2.5-1.8-4.2-1.8H175.1z"/>
</g>
<path id="XMLID_81_" class="st0" d="M-24.4,222.9c0,0,3.6-0.1,9.8-0.3c6.2-0.2,15.1-0.6,25.8-0.8s23.1-0.6,36.4-0.6
	c13.3-0.1,27.5-0.2,41.8-0.3c14.2,0.1,28.4,0.2,41.8,0.3c13.3,0.1,25.8,0.5,36.4,0.6c10.7,0.2,19.5,0.6,25.8,0.8
	c6.2,0.2,9.8,0.3,9.8,0.3v0.2H-24.4V222.9z"/>
<path id="XMLID_80_" class="st0" d="M214.8,297.6c0,0-3.9,0.1-10.8,0.4c-6.9,0.2-16.7,0.7-28.4,0.9c-11.8,0.2-25.5,0.6-40.2,0.7
	c-14.7,0.1-30.4,0.2-46.1,0.3c-15.7-0.1-31.4-0.2-46.1-0.3s-28.4-0.5-40.2-0.7c-11.8-0.2-21.6-0.7-28.4-0.9
	c-6.9-0.2-10.8-0.4-10.8-0.4v-0.3h251L214.8,297.6L214.8,297.6z"/>
<g class="st1">
	<path class="st0" d="M6.5,322.7h-7.3v7.3h-1.3v-15.6h9.7v1.1h-8.4v6.1h7.3V322.7z"/>
	<path class="st0" d="M21.8,323.1c0,1.4-0.2,2.7-0.7,3.8c-0.5,1.1-1.2,1.9-2.1,2.5s-2,0.9-3.2,0.9c-1.8,0-3.3-0.7-4.4-2
		c-1.1-1.3-1.7-3.1-1.7-5.3v-1.6c0-1.4,0.3-2.7,0.8-3.8c0.5-1.1,1.2-1.9,2.1-2.5c0.9-0.6,2-0.9,3.2-0.9s2.3,0.3,3.2,0.9
		c0.9,0.6,1.6,1.4,2.1,2.5c0.5,1.1,0.8,2.3,0.8,3.7V323.1z M20.5,321.4c0-1.9-0.4-3.4-1.3-4.4c-0.9-1.1-2-1.6-3.5-1.6
		c-1.5,0-2.6,0.5-3.5,1.6c-0.9,1.1-1.3,2.6-1.3,4.5v1.6c0,1.9,0.4,3.3,1.3,4.4c0.9,1.1,2,1.6,3.5,1.6c1.5,0,2.7-0.5,3.5-1.6
		c0.8-1.1,1.3-2.6,1.3-4.5V321.4z"/>
	<path class="st0" d="M31,323.5h-4.5v6.5h-1.3v-15.6h5.1c1.7,0,3,0.4,3.9,1.2c0.9,0.8,1.4,1.9,1.4,3.4c0,1-0.3,1.9-0.9,2.6
		c-0.6,0.8-1.4,1.3-2.4,1.6l3.9,6.7v0.1h-1.4L31,323.5z M26.5,322.4h4c1.1,0,2-0.3,2.7-0.9c0.7-0.6,1-1.4,1-2.5c0-1.1-0.4-2-1.1-2.6
		c-0.7-0.6-1.7-0.9-3-0.9h-3.7V322.4z"/>
	<path class="st0" d="M53.1,322.5h-7.3v6.4h8.4v1.1h-9.7v-15.6h9.7v1.1h-8.4v5.9h7.3V322.5z"/>
	<path class="st0" d="M68.6,330h-1.3l-9-13.4V330H57v-15.6h1.3l9,13.4v-13.4h1.3V330z"/>
	<path class="st0" d="M83.9,328.2c-0.5,0.7-1.2,1.2-2.2,1.5s-2.1,0.5-3.3,0.5c-1.2,0-2.3-0.3-3.3-0.9c-1-0.6-1.7-1.4-2.2-2.5
		c-0.5-1.1-0.8-2.3-0.8-3.7v-2c0-2.2,0.5-3.9,1.6-5.1c1.1-1.3,2.6-1.9,4.4-1.9c1.6,0,2.9,0.4,3.9,1.2c1,0.8,1.6,1.9,1.8,3.4h-1.3
		c-0.2-1.1-0.7-2-1.4-2.6c-0.7-0.6-1.7-0.9-2.9-0.9c-1.5,0-2.6,0.5-3.5,1.6c-0.9,1-1.3,2.5-1.3,4.4v1.8c0,1.2,0.2,2.2,0.6,3.2
		c0.4,0.9,1,1.6,1.7,2.1c0.8,0.5,1.6,0.8,2.6,0.8c1.1,0,2.1-0.2,2.9-0.5c0.5-0.2,0.9-0.5,1.2-0.8v-4h-4.2v-1.1h5.5V328.2z"/>
	<path class="st0" d="M89.3,330h-1.3v-15.6h1.3V330z"/>
	<path class="st0" d="M105.1,330h-1.3l-9-13.4V330h-1.3v-15.6h1.3l9,13.4v-13.4h1.3V330z"/>
	<path class="st0" d="M117.8,322.5h-7.3v6.4h8.4v1.1h-9.7v-15.6h9.7v1.1h-8.4v5.9h7.3V322.5z"/>
	<path class="st0" d="M130.3,322.5H123v6.4h8.4v1.1h-9.7v-15.6h9.7v1.1H123v5.9h7.3V322.5z"/>
	<path class="st0" d="M140,323.5h-4.5v6.5h-1.3v-15.6h5.1c1.7,0,3,0.4,3.9,1.2c0.9,0.8,1.4,1.9,1.4,3.4c0,1-0.3,1.9-0.9,2.6
		c-0.6,0.8-1.4,1.3-2.4,1.6l3.9,6.7v0.1h-1.4L140,323.5z M135.4,322.4h4c1.1,0,2-0.3,2.7-0.9c0.7-0.6,1-1.4,1-2.5
		c0-1.1-0.4-2-1.1-2.6c-0.7-0.6-1.7-0.9-3-0.9h-3.7V322.4z"/>
	<path class="st0" d="M149.7,330h-1.3v-15.6h1.3V330z"/>
	<path class="st0" d="M165.6,330h-1.3l-9-13.4V330H154v-15.6h1.3l9,13.4v-13.4h1.3V330z"/>
	<path class="st0" d="M180.9,328.2c-0.5,0.7-1.2,1.2-2.2,1.5s-2.1,0.5-3.3,0.5c-1.2,0-2.3-0.3-3.3-0.9c-1-0.6-1.7-1.4-2.2-2.5
		c-0.5-1.1-0.8-2.3-0.8-3.7v-2c0-2.2,0.5-3.9,1.6-5.1c1.1-1.3,2.6-1.9,4.4-1.9c1.6,0,2.9,0.4,3.9,1.2c1,0.8,1.6,1.9,1.8,3.4h-1.3
		c-0.2-1.1-0.7-2-1.4-2.6c-0.7-0.6-1.7-0.9-2.9-0.9c-1.5,0-2.6,0.5-3.5,1.6c-0.9,1-1.3,2.5-1.3,4.4v1.8c0,1.2,0.2,2.2,0.6,3.2
		c0.4,0.9,1,1.6,1.7,2.1c0.8,0.5,1.6,0.8,2.6,0.8c1.1,0,2.1-0.2,2.9-0.5c0.5-0.2,0.9-0.5,1.2-0.8v-4h-4.2v-1.1h5.5V328.2z"/>
</g>
<g class="st1">
	<path class="st0" d="M50.7,352.6c0-0.9-0.3-1.6-0.9-2.1c-0.6-0.5-1.7-1-3.3-1.4c-1.6-0.5-2.8-1-3.5-1.5c-1.1-0.8-1.6-1.8-1.6-3
		c0-1.2,0.5-2.2,1.5-2.9c1-0.7,2.2-1.1,3.8-1.1c1,0,2,0.2,2.8,0.6c0.8,0.4,1.5,1,1.9,1.7s0.7,1.5,0.7,2.4h-1.3
		c0-1.1-0.4-1.9-1.1-2.6c-0.7-0.7-1.7-1-2.9-1c-1.2,0-2.1,0.3-2.9,0.8s-1.1,1.2-1.1,2.1c0,0.8,0.3,1.4,1,1.9
		c0.6,0.5,1.7,0.9,3.1,1.3c1.4,0.4,2.5,0.8,3.2,1.2c0.7,0.4,1.3,0.9,1.6,1.5s0.5,1.2,0.5,2c0,1.2-0.5,2.2-1.5,3
		c-1,0.7-2.3,1.1-3.9,1.1c-1.1,0-2.1-0.2-3-0.6c-0.9-0.4-1.6-0.9-2.1-1.7c-0.5-0.7-0.7-1.5-0.7-2.4h1.3c0,1.1,0.4,2,1.2,2.6
		c0.8,0.6,1.9,1,3.3,1c1.2,0,2.2-0.3,2.9-0.8C50.4,354.2,50.7,353.5,50.7,352.6z"/>
	<path class="st0" d="M63.6,348.9h-7.3v6.4h8.4v1.1h-9.7v-15.6h9.7v1.1h-8.4v5.9h7.3V348.9z"/>
	<path class="st0" d="M73.3,349.9h-4.5v6.5h-1.3v-15.6h5.1c1.7,0,3,0.4,3.9,1.2c0.9,0.8,1.4,1.9,1.4,3.4c0,1-0.3,1.9-0.9,2.6
		c-0.6,0.8-1.4,1.3-2.4,1.6l3.9,6.7v0.1h-1.4L73.3,349.9z M68.7,348.8h4c1.1,0,2-0.3,2.7-0.9c0.7-0.6,1-1.4,1-2.5
		c0-1.1-0.4-2-1.1-2.6c-0.7-0.6-1.7-0.9-3-0.9h-3.7V348.8z"/>
	<path class="st0" d="M85.9,354.5l0.1,0.3l0.1-0.3l4.9-13.7h1.5l-5.8,15.6h-1.3l-5.8-15.6H81L85.9,354.5z"/>
	<path class="st0" d="M96.4,356.4h-1.3v-15.6h1.3V356.4z"/>
	<path class="st0" d="M111.7,351.5c-0.2,1.6-0.8,2.9-1.8,3.8s-2.3,1.3-4,1.3c-1.2,0-2.2-0.3-3.1-0.9s-1.6-1.4-2.1-2.5
		c-0.5-1.1-0.7-2.3-0.7-3.6v-2c0-1.4,0.2-2.6,0.7-3.7c0.5-1.1,1.2-1.9,2.1-2.5c0.9-0.6,2-0.9,3.2-0.9c1.7,0,3,0.5,4,1.4
		s1.5,2.2,1.7,3.7h-1.3c-0.3-2.7-1.8-4-4.3-4c-1.4,0-2.5,0.5-3.4,1.6c-0.8,1.1-1.3,2.5-1.3,4.4v1.9c0,1.8,0.4,3.2,1.2,4.3
		s1.9,1.6,3.3,1.6c1.4,0,2.4-0.3,3.1-1c0.7-0.7,1.1-1.7,1.3-3H111.7z"/>
	<path class="st0" d="M123.5,348.9h-7.3v6.4h8.4v1.1h-9.7v-15.6h9.7v1.1h-8.4v5.9h7.3V348.9z"/>
	<path class="st0" d="M136.3,352.6c0-0.9-0.3-1.6-0.9-2.1c-0.6-0.5-1.7-1-3.3-1.4c-1.6-0.5-2.8-1-3.5-1.5c-1.1-0.8-1.6-1.8-1.6-3
		c0-1.2,0.5-2.2,1.5-2.9c1-0.7,2.2-1.1,3.8-1.1c1,0,2,0.2,2.8,0.6s1.5,1,1.9,1.7s0.7,1.5,0.7,2.4h-1.3c0-1.1-0.4-1.9-1.1-2.6
		c-0.7-0.7-1.7-1-2.9-1c-1.2,0-2.1,0.3-2.9,0.8s-1.1,1.2-1.1,2.1c0,0.8,0.3,1.4,1,1.9c0.6,0.5,1.7,0.9,3.1,1.3
		c1.4,0.4,2.5,0.8,3.2,1.2c0.7,0.4,1.3,0.9,1.6,1.5s0.5,1.2,0.5,2c0,1.2-0.5,2.2-1.5,3s-2.3,1.1-3.9,1.1c-1.1,0-2.1-0.2-3-0.6
		s-1.6-0.9-2.1-1.7s-0.7-1.5-0.7-2.4h1.3c0,1.1,0.4,2,1.2,2.6c0.8,0.6,1.9,1,3.3,1c1.2,0,2.2-0.3,2.9-0.8
		C135.9,354.2,136.3,353.5,136.3,352.6z"/>
</g>
<g class="st1">
	<path class="st0" d="M65.6,398.3v-1.5l5.1-5.7c0.9-1,1.5-1.8,1.9-2.4c0.3-0.6,0.5-1.2,0.5-1.8c0-0.8-0.2-1.4-0.7-2
		c-0.5-0.5-1.1-0.8-1.8-0.8c-1.1,0-1.9,0.3-2.4,0.8c-0.5,0.6-0.8,1.3-0.8,2.3h-2l0-0.1c0-1.3,0.4-2.5,1.3-3.4
		c0.9-0.9,2.2-1.4,3.9-1.4c1.4,0,2.5,0.4,3.4,1.2c0.8,0.8,1.3,1.9,1.3,3.1c0,0.9-0.3,1.7-0.8,2.6s-1.2,1.8-2.1,2.8l-4.1,4.5l0,0.1
		h5.6l0.2-1.8h1.8v3.4H65.6z"/>
	<path class="st0" d="M88,392.3c0,2-0.4,3.5-1.3,4.6c-0.9,1.1-2.1,1.6-3.6,1.6c-1.5,0-2.7-0.5-3.6-1.6c-0.9-1.1-1.3-2.6-1.3-4.6
		v-3.7c0-2,0.4-3.5,1.3-4.6c0.9-1.1,2.1-1.6,3.6-1.6c1.5,0,2.8,0.5,3.7,1.6c0.9,1.1,1.3,2.6,1.3,4.6V392.3z M85.9,388.1
		c0-1.4-0.2-2.4-0.7-3.1c-0.5-0.7-1.2-1-2.1-1c-0.9,0-1.6,0.3-2.1,1c-0.5,0.7-0.7,1.7-0.7,3.1v4.6c0,1.4,0.2,2.4,0.7,3.1
		c0.5,0.7,1.2,1,2.1,1c0.9,0,1.6-0.3,2.1-1s0.7-1.7,0.7-3.1V388.1z"/>
	<path class="st0" d="M100.6,392.3c0,2-0.4,3.5-1.3,4.6c-0.9,1.1-2.1,1.6-3.6,1.6c-1.5,0-2.7-0.5-3.6-1.6s-1.3-2.6-1.3-4.6v-3.7
		c0-2,0.4-3.5,1.3-4.6c0.9-1.1,2.1-1.6,3.6-1.6c1.5,0,2.8,0.5,3.7,1.6c0.9,1.1,1.3,2.6,1.3,4.6V392.3z M98.4,388.1
		c0-1.4-0.2-2.4-0.7-3.1c-0.5-0.7-1.2-1-2.1-1c-0.9,0-1.6,0.3-2.1,1c-0.5,0.7-0.7,1.7-0.7,3.1v4.6c0,1.4,0.2,2.4,0.7,3.1
		c0.5,0.7,1.2,1,2.1,1c0.9,0,1.6-0.3,2.1-1s0.7-1.7,0.7-3.1V388.1z"/>
	<path class="st0" d="M113.2,384.3c-1.9,2.2-3.2,4.2-3.8,6c-0.7,1.7-1.1,3.8-1.4,6.3l-0.2,1.7h-2.1l0.2-1.7c0.3-2.5,0.9-4.7,1.8-6.6
		s2.1-3.8,3.6-5.7h-6.5l-0.2,1.8h-1.8v-3.5h10.6V384.3z"/>
</g>
</svg>
