<?xml version="1.0" encoding="utf-8"?>
<!-- Generator: Adobe Illustrator 19.0.0, SVG Export Plug-In . SVG Version: 6.00 Build 0)  -->
<svg version="1.1" id="Layer_1" xmlns="http://www.w3.org/2000/svg" xmlns:xlink="http://www.w3.org/1999/xlink" x="0px" y="0px"
	 viewBox="0 0 700 700" style="enable-background:new 0 0 700 700;" xml:space="preserve">
<style type="text/css">
	.st0{fill:#01579B;}
</style>
<g id="XMLID_1_">
	<g id="XMLID_290_">
		<path id="XMLID_94_" class="st0" d="M451,531.4c0-0.7,0-1.5,0-2.2c0-0.3,0-0.7,0-1c0-0.6,0-1.3,0-1.9c0-0.4,0-0.7,0-1
			c0-0.6,0-1.2,0-1.8c0-0.3,0-0.7,0-1c0-0.6,0-1.2,0-1.7c0-0.3,0-0.7,0-1c0-0.6,0-1.1-0.1-1.7c0-0.3,0-0.6,0-1c0-0.6,0-1.1-0.1-1.6
			c0-0.2,0-0.4,0-0.6l0.3,0.5c-0.2-5-0.5-9.3-0.8-12.8l-0.3-0.6c0,0,0,0,0-0.1c0-0.2,0-0.4-0.1-0.6c0-0.3-0.1-0.7-0.1-1
			c0-0.2,0-0.4-0.1-0.6c0-0.3-0.1-0.6-0.1-0.9c0-0.2,0-0.4,0-0.5c0-0.3,0-0.5-0.1-0.8c0-0.2,0-0.3,0-0.5c0-0.2,0-0.4-0.1-0.7
			c0-0.1,0-0.3,0-0.4c0-0.2,0-0.4-0.1-0.5c0-0.1,0-0.3,0-0.4c0-0.1,0-0.2,0-0.3c0-0.1,0-0.2,0-0.4c-0.1-0.7-0.1-1-0.1-1
			s-2.4-1.4-6.4-3.3l-0.1-0.2c-3.2-1.5-7.3-3.4-11.9-5.1l0.1,0.2c-4.1-1.6-8.5-3.1-13-4.2l-9.2-137.4c2.5-2.3,5.1-5.3,7.5-9
			c8.3-12.8-15.2-21.7-15.2-21.7s0.4-5.8-1.7-23.5s-17.6-28-43.3-28.7s-49,14.9-50,29.9c-1,15-1.4,21.5-1.4,21.5s-16,3.1-19.1,14.7
			c-2,7.5,5.7,13.2,11.4,16.3L287,486.2c-10.7,4-27.8,11-35.8,16.5c-0.1,0-0.2,0-0.2,0.1l-0.2,0.2c0,0-0.1,0.1-0.4,0.4
			c-0.2,0.3-0.6,0.7-0.9,1.2c-0.3,0.5-0.8,1.1-1.2,1.8c-0.4,0.7-0.8,1.5-1.2,2.3c-0.8,1.7-1.5,3.7-1.9,5.8c-0.1,0.5-0.2,1.1-0.3,1.6
			c-0.1,0.5-0.2,1.1-0.2,1.7c-0.1,1.1-0.2,2.3-0.2,3.4c0,0,0.2,40.5,6.2,57.3c2.1,8.6,14.5,15.6,24.2,19.9c1.6,0.7,3.1,1.3,4.5,1.9
			l-5.3,78.9c1.7,0,3.4-0.1,5.2-0.2l0-0.7c10.7-9.1,43.7-15.7,82.7-15.7c24.9,0,47.3,2.7,63.1,7l0.6,9.2c1.7,0,3.5,0,5.2,0
			l-5.1-76.1c-1.5,0.7-3.2,1.3-5,2l0,0.5c-10.6-6.8-37.6-11.9-69.3-11.9c-29.8,0-55.6,4.6-67.3,10.8l0.1-1.9c0.1,0,0.2,0.1,0.3,0.1
			l1.1-16c13.6-7.5,38.4-12.6,66.8-12.6c28.5,0,53.5,5.1,67,12.7l1.1,16.3c1.6-0.6,3.3-1.4,5-2.2c0.7-0.4,1.5-0.7,2.2-1.2
			c0.8-0.4,1.5-0.8,2.3-1.3c1.8-1.1,3.6-2.3,5.3-3.7c3.4-2.7,6.5-6,8.7-10c0.4-0.7,0.8-1.4,1.1-2.1c0.2-0.3,0.3-0.7,0.4-1
			c0.6-1.5,1.2-3.2,1.5-4.9c0.2-0.9,0.4-1.9,0.5-2.8c0,0,0,0,0,0c0,0,0,0,0-0.1c0,0,0,0,0,0c0.3-1.6,0.5-3.2,0.8-4.8c0,0,0,0,0,0
			c0.2-1.1,0.3-2.1,0.4-3.2c0-0.4,0.1-0.7,0.1-1.1c0.1-0.7,0.2-1.4,0.3-2.2c0-0.4,0.1-0.9,0.1-1.3c0.1-0.7,0.1-1.3,0.2-2
			c0-0.5,0.1-0.9,0.1-1.4c0.1-0.6,0.1-1.3,0.2-1.9c0-0.5,0.1-0.9,0.1-1.4c0-0.6,0.1-1.3,0.1-1.9c0-0.5,0.1-0.9,0.1-1.3
			c0-0.6,0.1-1.3,0.1-1.9c0-0.4,0.1-0.9,0.1-1.3c0-0.6,0.1-1.3,0.1-1.9c0-0.4,0-0.8,0.1-1.3c0-0.7,0.1-1.3,0.1-2c0-0.4,0-0.8,0-1.1
			c0-0.8,0-1.5,0.1-2.3c0-0.3,0-0.6,0-0.9c0-2.1,0.1-4.1,0.1-6.1C451,531.9,451,531.6,451,531.4z M251.6,537.6c0-1,0.1-2.4,0.1-4
			c0-1.7,0.1-3.7,0.1-5.8c0-2.1,0-4.4,0-6.7c0-2.3,0-4.5,0-6.7c0-1.1,0-2.2-0.1-3.2l3.4-5.1c4.8-2.3,13.9-6.6,22.6-10.5l-16.1,36.1
			c0,0,0,0,0.1,0C256.8,534.5,253.3,536.6,251.6,537.6z M425,668.2c-12.6-6.7-40.4-11.4-72.7-11.4c-32,0-59.5,4.6-72.3,11.2
			l0.8-12.1c10.3-8.9,42.5-15.4,80.8-15.4c24.6,0,46.7,2.7,62.1,7L425,668.2z M423.6,646.2c-11.9-6.7-39.4-11.5-71.5-11.5
			c-31.3,0-58.3,4.5-70.6,11l0.8-11.5c10-8.7,41.5-15.1,78.9-15.1c24.3,0,46.1,2.7,61.1,7L423.6,646.2z M360.6,598.8
			c24,0,45.6,2.7,60.3,7l1.3,19.2c-11.3-6.8-38.5-11.5-70.3-11.5c-30.6,0-56.9,4.4-69,10.7l0.7-10.7
			C293.3,605,324.1,598.8,360.6,598.8z M284.6,521.6c-5.7,2.2-14.9,6.3-14.7,6.2l16.5-33.2L284.6,521.6z M413.9,499.9
			c-0.6-0.4-1.2-0.7-1.9-1c0-0.4,0-0.8,0-1.2c0-2.3,0-4.5,0-6.7c0-2.1-0.1-4.1-0.1-5.8c0-0.2,0-0.4,0-0.6c0.3,0.1,0.7,0.1,1,0.2
			L413.9,499.9z M398,295.1c0,0-2-1.2-5.3-1.9c-3.3-0.8-6.9-1.6-6.9-1.6s0.2-2.5-3.3-10.1c-3.5-7.6-13.9-13.8-13.9-13.8
			C391.7,270.2,398,295.1,398,295.1z M294.2,453.8c7.8-7.3,33.7-12.6,64.6-12.6c20.5,0,38.8,2.4,51.1,6.1l0-0.4
			c-8.3-6-31.4-10.3-58.6-10.3c-25.2,0-46.8,3.7-56.5,8.9l0.5-8.1c7.8-7.1,33.3-12.3,63.6-12.3c20.2,0,38.3,2.3,50.4,6l0-0.4
			c-3.6-2.6-10-4.9-18.4-6.6L384.8,323l-1.6,20.2c-4.9-12.6-16.6-21.5-30.3-21.5c-0.5,0-1.1,0-1.6,0l-0.1-0.7l0,0.8
			c-12.5,0.7-23.2,8.9-28.1,20.4l-1.5-19.2l-6.1,100.6c-8.4,1.5-15.2,3.5-19.6,5.9l6.9-103.1c11.4-6.3,29.6-10.3,50.1-10.3
			c20.1,0,38.1,3.9,49.5,10l9.1,137.9c-8.5-6.1-32.2-10.4-60-10.4c-25.8,0-47.9,3.7-57.8,9.1L294.2,453.8z M325,353.6
			c0-15.8,11.5-28.7,26.1-29.7l-3.6,59C334.7,380.1,325,368.1,325,353.6z M347,391.1l-1.8,29.7c-5.6,0.1-10.9,0.5-15.9,0.9
			l-3.6-45.4C330.6,383.9,338.2,389.4,347,391.1z M356.1,383.2l-4.6-59.4c0.5,0,1,0,1.4,0c15.4,0,27.9,13.3,27.9,29.8
			C380.8,368.9,370,381.5,356.1,383.2z M380.7,375.3L377,422c-5.6-0.6-11.6-1.1-18-1.3l-2.3-29.4C366.8,390.2,375.5,384,380.7,375.3
			z M291.8,489.7c0.1-0.1,0.3-0.1,0.4-0.2c-0.2,0.4-0.3,0.9-0.5,1.4L291.8,489.7z M290.3,519.6c-0.1,0-0.3,0.1-0.4,0.1l0.8-11.8
			c0.1-0.1,0.1-0.1,0.2-0.2c0.5,2,1.1,3.9,1.9,5.6c0.4,0.8,0.8,1.6,1.2,2.3c0.4,0.7,0.8,1.3,1.2,1.8c0.1,0.2,0.2,0.3,0.3,0.5
			C293.7,518.4,291.9,519,290.3,519.6z M333.9,510.1c-13.3,1.1-25.7,3.9-36.7,7.3c0-1,0.1-2.4,0.1-4c0-1.7,0.1-3.7,0.1-5.8
			c0-1.2,0-2.5,0-3.8c10.8-4.8,29.8-8.2,52.1-9.1c0,0.4,0,0.7,0.1,1.1c0,0.6,0.1,1.1,0.2,1.6c0.1,0.5,0.2,1.1,0.3,1.6
			c0.5,2.1,1.2,4.1,1.9,5.8c0.4,0.8,0.8,1.6,1.2,2.3c0.4,0.7,0.8,1.3,1.2,1.8c0.1,0.1,0.2,0.2,0.2,0.3
			C347.8,509.2,340.8,509.5,333.9,510.1z M297.3,487.7c11.1-3.6,35.9-7.6,55.1-8.2c-0.1,0.2-0.2,0.3-0.3,0.5
			c-0.8,1.7-1.5,3.7-1.9,5.8c-0.1,0.5-0.2,1.1-0.3,1.6c-0.1,0.5-0.2,1.1-0.2,1.6c0,0.2,0,0.4,0,0.5c-21.5,0.2-40.5,2.8-52.1,6.9
			c0-0.7,0-1.5,0-2.2c0-2.1-0.1-4.1-0.1-5.8C297.3,488.2,297.3,488,297.3,487.7z M356.5,509.3c0-0.1,0-0.2,0-0.4
			c0-1,0.1-2.4,0.1-4.1c0-1.7,0.1-3.7,0.1-5.8c0-1.5,0-3,0-4.5c1,0,2.1,0,3.1,0c16.9,0,32.3,1.5,44.6,4c0,0.9,0.1,1.7,0.2,2.5
			c0,0.6,0.1,1.1,0.2,1.7c0.1,0.5,0.2,1.1,0.3,1.6c0.5,2.1,1.2,4.1,1.9,5.8c0.4,0.8,0.8,1.6,1.2,2.3c0.4,0.7,0.8,1.3,1.2,1.8
			c0.3,0.5,0.7,0.9,0.9,1.1C394.6,511.8,375.7,509.5,356.5,509.3z M356.7,479.5c18.3,0,34.6,1.7,51.2,4.5c-0.2,0.4-0.4,0.8-0.6,1.2
			c-0.8,1.7-1.5,3.7-1.9,5.8c-0.1,0.5-0.2,1.1-0.3,1.6c-0.1,0.5-0.2,1.1-0.2,1.7c-0.1,0.5-0.1,1.1-0.1,1.7
			c-11.2-3.5-28.3-5.9-47.8-6.3c0-1.3,0-2.6,0-3.8c0-2.1-0.1-4.1-0.1-5.8C356.7,479.8,356.7,479.6,356.7,479.5z M411.3,479.6
			c-17.8-3.1-35.2-4.7-54.9-4.7c0,0-0.1,0-0.1,0c-0.1,0-0.2-0.4-0.3-0.3c-19.8,0.1-48,4.3-59.4,8.2c-0.8,0.3-1.7,0.6-2.7,1
			c-0.5,0.2-1.1,0.4-1.7,0.6l0.9-13.2c8-7.4,34.6-12.9,66.1-12.9c21,0,39.7,2.4,52.3,6.2l1,15.1c-0.3-0.1-0.6-0.1-0.8-0.1
			c-0.1,0-0.2,0-0.3,0C411.3,479.3,411.3,479.6,411.3,479.6z M414.8,516.3c-1-0.3-2.1-0.5-3.2-0.7c0-0.2,0-0.7,0.1-1.4
			c0-1,0.1-2.4,0.1-4.1c0-1.7,0.1-3.7,0.1-5.8c0-1.3,0-2.7,0-4.1c0.7,0.2,1.3,0.3,1.9,0.5l1,15.7
			C414.9,516.4,414.9,516.4,414.8,516.3z M420.1,517.7l-0.8-11.4l6.5,13.1C424,518.8,422.1,518.3,420.1,517.7z M434,522.3l-16-35.9
			l0-0.3c6.2,1.6,12.3,3.9,17.4,6.1l7.4,11.1c-0.2,0.6-0.3,1.1-0.4,1.7c-0.1,0.5-0.2,1.1-0.3,1.6c-0.1,0.5-0.2,1.1-0.2,1.6
			c-0.1,1.1-0.2,2.2-0.2,3.4c0,1.1,0.1,2.3,0.2,3.4c0,0.6,0.1,1.1,0.2,1.6c0.1,0.5,0.2,1.1,0.3,1.6c0.5,2.1,1.2,4.1,1.9,5.8
			c0.4,0.8,0.8,1.6,1.2,2.3c0.4,0.7,0.8,1.3,1.2,1.8c0.3,0.4,0.6,0.8,0.8,1C444.1,526.7,439.5,524.4,434,522.3z"/>
		<path id="XMLID_384_" class="st0" d="M388.2,265.7c2,1.3,3.8,2.8,5.4,4.4l99.3-223L385.3,264C386.3,264.5,387.3,265.1,388.2,265.7
			z"/>
		<path id="XMLID_385_" class="st0" d="M372.6,259.3l40.3-238.2l-50.3,236.6C366.2,258,369.5,258.6,372.6,259.3z"/>
		<path id="XMLID_386_" class="st0" d="M383.8,263.2l69.9-231.6l-79.4,228.1C377.7,260.6,380.9,261.8,383.8,263.2z"/>
		<path id="XMLID_387_" class="st0" d="M349.2,257.5L328.9,15.8l10.2,243.2C342.4,258.3,345.8,257.7,349.2,257.5z"/>
		<path id="XMLID_388_" class="st0" d="M337.8,259.4L287.1,21.1L328,262.7C331.1,261.4,334.4,260.3,337.8,259.4z"/>
		<path id="XMLID_389_" class="st0" d="M354.3,257.3c0.6,0,1.2,0,1.8,0c1.6,0,3.2,0.1,4.8,0.3l10.1-241.7l-20.3,241.5
			C352,257.3,353.1,257.3,354.3,257.3L354.3,257.3z"/>
		<path id="XMLID_390_" class="st0" d="M400.5,281L529.8,67.4L394.5,271.1C397.1,274,399.1,277.3,400.5,281z"/>
		<path id="XMLID_391_" class="st0" d="M284.7,480.2l-2,4.6c0.6-0.2,1.2-0.5,1.8-0.7L284.7,480.2z"/>
		<path id="XMLID_392_" class="st0" d="M439.6,485.2L419,451.1l1.2,18l7.5,11.3C432.1,482,436.2,483.7,439.6,485.2z"/>
		<path id="XMLID_393_" class="st0" d="M287.4,440.7l-35.2,58.1c3.3-2,7.5-4.2,12.1-6.3l21.8-32.8L287.4,440.7z"/>
		<path id="XMLID_394_" class="st0" d="M270.2,376.7L37.9,474.3l236.1-87.8l-218.2,126l223.3-116.7L78.5,548.1l206.9-143.8
			l-180,176.3l183.7-165.5l4.8-70.8c-9-5.4-13-12-11.1-18.8c2.8-10.5,14.2-14.8,19.1-16.2l1.3-19.3c0.3-4.6,2.4-9.2,5.9-13.6
			l-138.8-209l130.5,215.5L136.1,92.2l156.5,197.4L105.3,121l180,176.3L78.5,153.5l200.7,152.3L55.9,189.1l218.2,126L37.9,227.2
			l232.3,97.6L24.9,267.3l242.7,67.7L17,308.7l249.2,36.8l-251.9,5.3l251.9,5.3L17,392.9l250.6-26.3L24.9,434.3L270.2,376.7z"/>
		<path id="XMLID_395_" class="st0" d="M432,600.6c-0.7,0.4-1.4,0.8-2.1,1.2l23.8,68.2l-21.1-69.8
			C432.4,600.3,432.2,600.4,432,600.6z"/>
		<path id="XMLID_396_" class="st0" d="M451.8,569c-0.1,0.7-0.2,1.4-0.3,2.1l41.4,83.4l-40.4-90.7
			C452.3,565.5,452.1,567.3,451.8,569z"/>
		<path id="XMLID_397_" class="st0" d="M319.6,267.2c2.3-1.5,4.8-2.8,7.3-4L246.3,31.6l71.5,236.8C318.4,268,319,267.6,319.6,267.2z
			"/>
		<path id="XMLID_398_" class="st0" d="M454,520.1l75.8,114.1l-76.4-126.1C453.7,511.6,453.9,515.7,454,520.1z"/>
		<polygon id="XMLID_399_" class="st0" points="416.9,420.5 594.7,580.5 415.9,405.5 		"/>
		<path id="XMLID_400_" class="st0" d="M433.7,356.1l251.9-5.3l-251.9-5.3L683,308.7l-250.6,26.3l242.7-67.7l-245.3,57.5l232.3-97.6
			l-236.1,87.8l218.2-126L420.8,305.8l200.7-152.3L414.7,297.3l180-176.3L407.4,289.6L563.9,92.2L400.6,281.4
			c0.8,2.3,1.4,4.7,1.7,7.3c1.4,12.2,1.7,18.8,1.7,21.9c4.3,1.9,13.9,7,16.4,14.6c1.2,3.6,0.6,7.3-1.7,10.8c-2,3.1-4.3,6-6.9,8.5
			l4.1,60.7l205.6,142.9L420.8,395.8l223.3,116.7l-218.2-126l236.1,87.8l-232.3-97.6l245.3,57.5l-242.7-67.7L683,392.9L433.7,356.1z
			"/>
		<polygon id="XMLID_401_" class="st0" points="418.3,440.6 563.9,609.4 417.2,424.3 		"/>
		<path id="XMLID_402_" class="st0" d="M317.2,268.8L207.1,47.1l102,229.1C311.3,273.6,314,271.1,317.2,268.8z"/>
		<polygon id="XMLID_403_" class="st0" points="289,416.5 136.1,609.4 287.8,433.6 		"/>
		<path id="XMLID_404_" class="st0" d="M207.1,654.5l39.6-79.8c-0.5-1.9-0.9-4-1.3-6.2L207.1,654.5z"/>
		<path id="XMLID_405_" class="st0" d="M267.9,598.3L246.3,670l24.5-70.3C269.8,599.2,268.9,598.8,267.9,598.3z"/>
		<path id="XMLID_406_" class="st0" d="M241.7,526.3c-0.1-2.9-0.2-4.8-0.2-5.1v-0.1l0.2-0.1l0.1-0.5c0-1,0.1-2,0.2-3.1
			c0.1-0.6,0.2-1.2,0.3-1.9l0.1-0.3c0-0.1,0-0.2,0-0.2l-72.1,119.1L241.7,526.3z"/>
	</g>
	<g id="XMLID_37_">
		<path id="XMLID_51_" class="st0" d="M350,700c-47.2,0-93.1-9.3-136.2-27.5c-41.7-17.6-79.1-42.9-111.2-75
			c-32.1-32.1-57.4-69.6-75-111.2C9.3,443.1,0,397.2,0,350c0-47.2,9.3-93.1,27.5-136.2c17.6-41.7,42.9-79.1,75-111.2
			c32.1-32.1,69.6-57.4,111.2-75C256.9,9.3,302.8,0,350,0s93.1,9.3,136.2,27.5c41.7,17.6,79.1,42.9,111.2,75
			c32.1,32.1,57.4,69.6,75,111.2c18.3,43.2,27.5,89,27.5,136.2c0,47.2-9.3,93.1-27.5,136.2c-17.6,41.7-42.9,79.1-75,111.2
			c-32.1,32.1-69.6,57.4-111.2,75C443.1,690.7,397.2,700,350,700z M350,24.8c-43.9,0-86.5,8.6-126.6,25.5
			c-38.7,16.4-73.5,39.8-103.4,69.7c-29.9,29.9-53.3,64.6-69.7,103.4c-17,40.1-25.5,82.7-25.5,126.6s8.6,86.5,25.5,126.6
			c16.4,38.7,39.8,73.5,69.7,103.4c29.9,29.9,64.6,53.3,103.4,69.7c40.1,17,82.7,25.5,126.6,25.5s86.5-8.6,126.6-25.5
			c38.7-16.4,73.5-39.8,103.4-69.7c29.9-29.9,53.3-64.6,69.7-103.4c17-40.1,25.5-82.7,25.5-126.6s-8.6-86.5-25.5-126.6
			c-16.4-38.7-39.8-73.5-69.7-103.4c-29.9-29.9-64.6-53.3-103.4-69.7C436.5,33.4,393.9,24.8,350,24.8z"/>
	</g>
</g>
</svg>
