<?xml version="1.0" encoding="utf-8"?>
<!-- Generator: Adobe Illustrator 19.0.0, SVG Export Plug-In . SVG Version: 6.00 Build 0)  -->
<svg version="1.1" id="Layer_1" xmlns="http://www.w3.org/2000/svg" xmlns:xlink="http://www.w3.org/1999/xlink" x="0px" y="0px"
	 viewBox="0 0 671.3 916.8" style="enable-background:new 0 0 671.3 916.8;" xml:space="preserve">
<style type="text/css">
	.st0{fill:#FFFFFF;}
</style>
<g id="XMLID_50_">
	<g id="XMLID_3_">
		<g id="XMLID_1_">
			<path id="XMLID_2_" class="st0" d="M335.1,244.6L314.6,0l10.3,246.2C328.2,245.4,331.6,244.9,335.1,244.6z"/>
			<path id="XMLID_10_" class="st0" d="M324,246.4L272.7,5.3l41.4,244.6C317.2,248.5,320.5,247.3,324,246.4z"/>
			<path id="XMLID_15_" class="st0" d="M341.4,244.5c1.7,0,3.4,0.1,5.1,0.3L356.7,0l-20.5,244.5
				C337.9,244.4,339.6,244.4,341.4,244.5z"/>
			<path id="XMLID_16_" class="st0" d="M313.5,250.1L231.9,15.8l72.4,239.7C307,253.5,310.1,251.7,313.5,250.1z"/>
			<path id="XMLID_17_" class="st0" d="M277.6,396.7l4.7-69.9c-5.7-3.1-13.4-8.8-11.4-16.3C274,299,290,295.8,290,295.8
				s0.4-6.5,1.4-21.5c0.4-6.6,5.2-13.3,12.6-18.7L192.7,31.3l102.5,230.2L155.8,51.6l130.5,215.5L121.7,76.4l156.5,197.4L91,105.2
				l180,176.3L64.1,137.7L264.8,290L41.5,173.3l218.2,126L23.6,211.4L255.8,309L10.5,251.5l242.7,67.7L2.6,292.9l249.2,36.8L0,335
				l251.9,5.3L2.6,377l250.6-26.3L10.5,418.4l245.3-57.5L23.6,458.5l236.1-87.8l-218.2,126l223.3-116.7L64.1,532.2L271,388.5
				L91,564.7L277.6,396.7z"/>
			<path id="XMLID_18_" class="st0" d="M272.6,470.4l0.9-13.2l-6.9,15.5C268.8,471.9,270.8,471.1,272.6,470.4z"/>
			<path id="XMLID_19_" class="st0" d="M428.2,474.2l-27.3-45l1.2,18.6l14.1,21.2C420.9,470.8,425,472.7,428.2,474.2z"/>
			<path id="XMLID_20_" class="st0" d="M368.5,250.4l70.9-234.7l-80.5,231C362.4,247.8,365.6,249,368.5,250.4z"/>
			<path id="XMLID_21_" class="st0" d="M357.7,246.5L398.5,5.3l-50.9,239.6C351.2,245.2,354.6,245.8,357.7,246.5z"/>
			<path id="XMLID_22_" class="st0" d="M369.5,251c3.3,1.8,6.1,4,8.3,6.5L478.5,31.3L369.5,251z"/>
			<path id="XMLID_23_" class="st0" d="M436.2,499l79.3,119.3l-80.1-132.2C435.7,489.6,436,494,436.2,499z"/>
			<polygon id="XMLID_24_" class="st0" points="400.3,420.7 549.6,593.6 399.2,403.9 			"/>
			<path id="XMLID_25_" class="st0" d="M419.4,340.2l251.9-5.3l-251.9-5.3l249.2-36.8l-250.6,26.3l242.7-67.7L415.4,309l232.3-97.6
				l-236.1,87.8l218.2-126L406.5,290l200.7-152.3L400.3,281.5l180-176.3L393.1,273.8L549.6,76.4L385,267.1L515.5,51.6L378.3,258.1
				c3.5,4.2,5.7,9.2,6.4,15.1c2,17.8,1.7,23.5,1.7,23.5s23.5,8.9,15.2,21.7c-2.4,3.7-5,6.6-7.5,9l5,74.1l181.2,163.2l-180-176.3
				l206.9,143.8L406.5,379.9l223.3,116.7l-218.2-126l236.1,87.8l-232.3-97.6l245.3,57.5l-242.7-67.7L668.6,377L419.4,340.2z"/>
			<polygon id="XMLID_26_" class="st0" points="277.6,396.9 121.7,593.6 276.4,414.3 			"/>
			<path id="XMLID_27_" class="st0" d="M434.6,550.1l44,88.6l-43.1-96.7C435.2,544.6,434.9,547.4,434.6,550.1z"/>
			<path id="XMLID_28_" class="st0" d="M230.1,505.4c0-1.1,0-2.3,0.2-3.4c0-0.6,0.1-1.1,0.2-1.7c0.1-0.5,0.2-1.1,0.3-1.6
				c0.5-2.1,1.1-4.1,1.9-5.8c0.4-0.9,0.8-1.6,1.2-2.3c0.4-0.7,0.8-1.3,1.2-1.8c0.3-0.5,0.7-0.9,0.9-1.2c0.2-0.3,0.4-0.4,0.4-0.4
				l0.2-0.2c0.1-0.1,0.2-0.1,0.2-0.1c2.6-1.8,6.1-3.7,10-5.6l27.9-42l1.3-19.5L155.8,618.4l74.3-111.9
				C230.1,505.8,230.1,505.4,230.1,505.4z"/>
			<path id="XMLID_29_" class="st0" d="M233,548.2l-40.3,90.5l41.5-83.6C233.8,552.9,233.4,550.6,233,548.2z"/>
			<path id="XMLID_30_" class="st0" d="M254.4,579.7l-22.5,74.5l25.4-73C256.4,580.7,255.4,580.2,254.4,579.7z"/>
			<path id="XMLID_31_" class="st0" d="M415.8,582.2c-0.4,0.3-0.9,0.5-1.3,0.7l24.8,71.3l-22-72.9
				C416.8,581.5,416.3,581.9,415.8,582.2z"/>
		</g>
		<path id="XMLID_151_" class="st0" d="M386.8,302.7"/>
		<g id="XMLID_5_">
			<path id="XMLID_49_" class="st0" d="M427.4,899.6c-5.5,1.8-11.2,3-16.9,4.1c-2.9,0.4-5.7,1-8.6,1.3c-2.9,0.4-5.8,0.8-8.7,1
				c-5.8,0.6-11.6,0.8-17.4,1.1l-8.7,0.1c-1.5,0-2.9,0-4.4-0.1l-4.4-0.1c-5.8-0.1-11.6-0.7-17.4-1.1c-1.5-0.1-2.9-0.3-4.3-0.4
				l-4.3-0.5c-2.9-0.4-5.8-0.6-8.7-1.1l-8.6-1.4c-2.9-0.5-5.8-0.9-8.6-1.6l-8.6-1.8l-4.3-0.9l-4.2-1.1l-8.5-2.1l-4.2-1.1l-4.2-1.1
				c-5.6-1.5-11.1-3.1-16.7-4.6c-5.6-1.4-11.1-2.9-16.7-4.3l-8.4-2.1l-8.4-2c-2.8-0.7-5.6-1.3-8.4-1.9c-2.8-0.6-5.6-1.3-8.4-1.8
				l-8.4-1.7l-8.4-1.6l-8.4-1.4c-2.8-0.4-5.6-0.9-8.4-1.2c-2.8-0.4-5.6-0.7-8.4-1c-1.4-0.1-2.8-0.3-4.2-0.3c-0.7-0.1-1.4-0.1-2-0.1
				c-0.3,0-0.7,0-1,0l-0.8,0l3.4-8.4c1.6,1.7,3,3.3,4.5,4.9c1.4,1.7,2.9,3.4,4.2,5.1c1.4,1.8,2.7,3.6,4,5.5c1.3,2,2.5,4,3.5,6.5
				c0.5,1.3,1,2.6,1.1,4.5c0.1,0.9,0.1,2.1-0.3,3.4c-0.4,1.3-1.2,2.7-2.3,3.6c-1.1,1-2.2,1.4-3.2,1.7c-1,0.3-1.8,0.4-2.6,0.4
				c-1.6,0.1-2.9-0.1-4.2-0.2c-1.3-0.2-2.5-0.4-3.6-0.7c-0.6-0.1-1.1-0.3-1.7-0.5l-1.5-0.4l-3.1-0.9c-1-0.3-2.1-0.6-3-0.8
				c-2-0.5-3.9-1-6-1.3l-3.1-0.6l-3.1-0.5c-2-0.4-4.1-0.6-6.2-0.9c-2.1-0.3-4.1-0.4-6.2-0.6c-2.1-0.2-4.2-0.3-6.2-0.4
				c-2.1-0.1-4.2-0.1-6.2-0.2c-2.1,0-4.2,0-6.2,0.1c-2,0.1-4.2,0.2-6.1,0.4l2-7.3c2.4,2,4.6,3.9,6.9,5.9c2.3,2,4.5,4.1,6.6,6.2
				c2.2,2.1,4.3,4.4,6.3,6.8c1,1.2,2,2.5,2.9,3.9c0.5,0.7,0.9,1.4,1.3,2.3c0.4,0.8,0.8,1.7,1.1,3c0.1,0.3,0.1,0.6,0.1,1l0,0.5
				c0,0.2,0,0.4,0,0.6c-0.1,0.8-0.4,1.8-0.9,2.6c-0.5,0.8-1.3,1.4-2,1.8c-0.7,0.4-1.3,0.6-1.9,0.7c-1.1,0.3-2.1,0.3-3,0.3
				c-0.9,0-1.8-0.1-2.6-0.2c-1.7-0.2-3.2-0.5-4.7-0.9c-1.4-0.3-2.9-0.7-4.3-1c-2.9-0.7-5.7-1.2-8.6-1.7c-2.9-0.5-5.8-0.9-8.7-1.3
				l-4.4-0.5c-1.5-0.2-2.9-0.4-4.4-0.5c-2.9-0.3-5.9-0.6-8.8-0.9c-2.9-0.3-5.9-0.5-8.9-0.7c-3-0.2-5.9-0.4-8.9-0.6
				c-5.9-0.4-11.9-0.6-17.8-0.8c-5.9-0.2-11.9-0.4-17.8-0.5c3-0.3,5.9-0.5,8.9-0.6c3-0.2,5.9-0.4,8.9-0.5c5.9-0.3,11.9-0.4,17.9-0.5
				c3,0,6-0.1,8.9,0c3,0,6,0.1,9,0.1c3,0,6,0.2,9,0.3c3,0.1,6,0.4,9,0.5c3,0.3,6,0.5,9,0.9c3,0.4,6.1,0.7,9,1.3
				c1.5,0.3,2.9,0.5,4.4,0.8c1.4,0.3,2.8,0.5,4.1,0.6c1.3,0.1,2.6,0.1,3.2-0.2c0.1,0,0.2-0.1,0.2-0.1c0,0-0.2,0.1-0.3,0.3
				c-0.2,0.2-0.2,0.5-0.2,0.5c0,0,0,0,0,0.1c0,0,0,0,0,0c0,0,0-0.1,0-0.1c-0.1-0.2-0.3-0.7-0.5-1.2c-0.3-0.5-0.6-1-1-1.5
				c-0.7-1-1.6-2.1-2.6-3.1c-1.9-2.1-3.9-4.1-6.1-6c-2.1-2-4.3-3.9-6.6-5.7c-2.2-1.9-4.5-3.7-6.8-5.4l-7.9-6l9.9-1.3
				c1.2-0.2,2.3-0.3,3.4-0.4c1.1-0.1,2.2-0.2,3.3-0.3c2.2-0.1,4.4-0.2,6.6-0.2c2.2,0,4.4,0,6.6,0c2.2,0,4.4,0.1,6.6,0.3
				c2.2,0.1,4.4,0.3,6.6,0.5c2.2,0.2,4.4,0.4,6.5,0.8l3.3,0.5l3.3,0.6c2.2,0.3,4.4,0.9,6.6,1.3c1.1,0.2,2.2,0.5,3.2,0.8l3.1,0.8
				l1.6,0.4c0.5,0.1,0.9,0.2,1.4,0.4c0.9,0.2,1.8,0.4,2.7,0.5c0.8,0.1,1.7,0.2,2.2,0.1c0.5,0,0.8-0.3,0.1,0.2
				c-0.3,0.2-0.6,0.7-0.6,0.9c-0.1,0.3,0,0.3-0.1,0.2c0-0.2-0.2-0.9-0.5-1.6c-0.6-1.5-1.6-3.1-2.7-4.7c-1.1-1.6-2.3-3.2-3.6-4.8
				c-1.3-1.6-2.6-3.2-3.9-4.7c-1.3-1.5-2.8-3.1-4.1-4.5l-7.8-8.1l11.2-0.3c0.6,0,0.9,0,1.3,0c0.4,0,0.8,0,1.2,0
				c0.8,0,1.5,0.1,2.3,0.1c1.5,0.1,3,0.2,4.5,0.3c3,0.3,5.9,0.6,8.8,1c2.9,0.4,5.8,0.9,8.7,1.3l8.6,1.5l8.6,1.7l8.5,1.8
				c2.8,0.6,5.7,1.3,8.5,2c2.8,0.6,5.7,1.3,8.5,2l8.4,2.1l8.4,2.3c5.6,1.5,11.2,3.1,16.8,4.7c5.6,1.6,11.1,3.3,16.6,4.9l4.2,1.2
				l4.1,1.2l8.2,2.4l4.1,1.2l4.2,1l8.3,2c2.8,0.7,5.6,1.3,8.4,1.8l8.4,1.7c2.8,0.6,5.6,1,8.5,1.5l4.2,0.7c1.4,0.2,2.8,0.5,4.2,0.6
				c5.7,0.7,11.4,1.5,17.1,1.9c2.9,0.2,5.7,0.6,8.6,0.7l8.6,0.5c5.7,0.2,11.5,0.2,17.2,0.1c2.9,0,5.7-0.2,8.6-0.3
				c2.9-0.1,5.7-0.4,8.6-0.6C416,901.6,421.7,900.9,427.4,899.6z"/>
			<g id="XMLID_4_">
				<path id="XMLID_186_" class="st0" d="M338.2,662.6c32.6,0,60.7,4.6,73.9,11.4l-1.3-20.2c-15.8-4.3-38.2-7-63.1-7
					c-39,0-72,6.6-82.7,15.7l-0.8,11.6C277.2,667.3,305.5,662.6,338.2,662.6z"/>
				<path id="XMLID_185_" class="st0" d="M338.5,685.5c32.9,0,61.4,4.6,75.1,11.4l-1.4-21.2c-16.1-4.3-38.8-7-64-7
					c-40,0-73.7,6.8-84.7,16.1l-0.8,12.5C276,690.3,305,685.5,338.5,685.5z"/>
				<path id="XMLID_184_" class="st0" d="M338.7,710.1c33.3,0,62.2,4.6,76.5,11.4l-1.5-22.7c-16.5-4.3-39.5-7-65-7
					c-40.9,0-75.5,6.9-86.8,16.4L261,722C274.9,714.9,304.4,710.1,338.7,710.1z"/>
				<path id="XMLID_183_" class="st0" d="M337.7,618.9c32,0,59.5,4.7,71.5,11.5l-1.3-20.1c-15.1-4.3-36.9-7-61.1-7
					c-37.4,0-68.9,6.4-78.9,15.1l-0.8,11.5C279.5,623.4,306.4,618.9,337.7,618.9z"/>
				<path id="XMLID_182_" class="st0" d="M337.9,640.9c32.4,0,60.2,4.7,72.7,11.4l-1.4-20.8c-15.4-4.3-37.5-7-62.1-7
					c-38.2,0-70.5,6.5-80.8,15.4l-0.8,12.1C278.4,645.5,305.9,640.9,337.9,640.9z"/>
				<path id="XMLID_181_" class="st0" d="M337.5,597.7c31.8,0,59,4.8,70.3,11.5l-1.3-19.2c-14.7-4.3-36.3-7-60.3-7
					c-36.5,0-67.3,6.2-77,14.8l-0.7,10.7C280.6,602.1,306.9,597.7,337.5,597.7z"/>
				<path id="XMLID_180_" class="st0" d="M416.8,744.8l-1.4-21.3c-16.9-4.4-40.3-7-66.2-7c-41.8,0-77.1,7-89,16.7l-0.8,12.6
					c14.2-7.2,44.5-12.2,79.6-12.2C372.7,733.5,401.9,738.1,416.8,744.8z"/>
				<path id="XMLID_178_" class="st0" d="M425.1,871.1l-1.4-21.2c-18.8-4.5-44-7.2-71.7-7.2c-46.9,0-86.7,7.8-100.4,18.7l-0.8,11.8
					c16.2-8.1,50.2-13.6,89.5-13.6C376.2,859.6,407.6,864.2,425.1,871.1z"/>
				<path id="XMLID_176_" class="st0" d="M421.8,820.4l-1.5-22.7c-18-4.4-42.5-7.1-69.4-7.1c-44.7,0-82.6,7.5-95.6,17.8l-0.9,13.6
					c15.4-7.7,47.9-13.1,85.6-13.1C374.8,809,405.2,813.6,421.8,820.4z"/>
				<path id="XMLID_168_" class="st0" d="M423.5,847l-1.6-23.8c-18.4-4.4-43.2-7.2-70.5-7.2c-45.8,0-84.6,7.7-98,18.2l-1,14.7
					c15.8-7.9,49.1-13.4,87.7-13.4C375.5,835.6,406.5,840.1,423.5,847z"/>
				<path id="XMLID_161_" class="st0" d="M420.1,795.2l-1.5-23.3c-17.6-4.4-41.7-7.1-68.2-7.1c-43.8,0-80.8,7.4-93.4,17.5l-0.9,14.2
					c15.1-7.5,46.8-12.7,83.5-12.7C374,783.8,404.1,788.4,420.1,795.2z"/>
				<path id="XMLID_159_" class="st0" d="M418.4,769.5l-1.5-22.5c-17.3-4.4-41-7.1-67.2-7.1c-42.8,0-79,7.2-91.1,17.1l-0.9,13.5
					c14.6-7.4,45.6-12.5,81.6-12.5C373.3,758.1,403,762.7,418.4,769.5z"/>
				<g id="XMLID_153_">
					<path id="XMLID_158_" class="st0" d="M338.5,308c-0.5,0-1,0-1.4,0l4.6,59.4c13.9-1.7,24.7-14.3,24.7-29.6
						C366.5,321.3,354,308,338.5,308z"/>
					<path id="XMLID_157_" class="st0" d="M388,310.2c-11.5-6.1-29.4-10-49.5-10c-20.5,0-38.7,4.1-50.1,10.3l-6.9,103.1
						c4.4-2.4,11.2-4.4,19.6-5.9l6.1-100.6l1.5,19.2c5-11.6,15.6-19.7,28.1-20.4l0-0.8l0.1,0.7c0.5,0,1.1,0,1.6,0
						c13.6,0,25.3,8.9,30.3,21.5l1.6-20.2l6.1,101.2c8.4,1.7,14.8,4,18.4,6.6l0,0.4c-12.1-3.7-30.2-6-50.4-6
						c-30.3,0-55.8,5.2-63.6,12.3l-0.5,8.1c9.7-5.3,31.3-8.9,56.5-8.9c27.3,0,50.4,4.3,58.6,10.3l0,0.4c-12.3-3.7-30.6-6.1-51.1-6.1
						c-30.9,0-56.8,5.3-64.6,12.6l-0.6,8.8c9.9-5.4,32.1-9.1,57.8-9.1c27.8,0,51.5,4.4,60,10.4L388,310.2z"/>
					<path id="XMLID_156_" class="st0" d="M330.8,404.9l1.8-29.7c-8.8-1.7-16.4-7.2-21.3-14.8l3.6,45.4
						C319.9,405.4,325.3,405.1,330.8,404.9z"/>
					<path id="XMLID_155_" class="st0" d="M310.6,337.8c0,14.5,9.7,26.5,22.5,29.2l3.6-59C322.1,309,310.6,322,310.6,337.8z"/>
					<path id="XMLID_154_" class="st0" d="M344.7,405c6.3,0.2,12.4,0.6,18,1.3l3.7-46.8c-5.2,8.7-13.8,14.9-23.9,16.1L344.7,405z"/>
				</g>
				<path id="XMLID_150_" class="st0" d="M354.2,251.8c0,0,10.4,6.2,13.9,13.8c3.5,7.6,3.3,10.1,3.3,10.1s3.7,0.8,6.9,1.6
					c3.3,0.8,5.3,1.9,5.3,1.9S377.3,254.4,354.2,251.8z"/>
				<g id="XMLID_82_">
					<g id="XMLID_143_">
						<path id="XMLID_149_" class="st0" d="M335.3,473.2c0-0.6,0.1-1.1,0.2-1.6c0.1-0.5,0.2-1.1,0.3-1.6c0.5-2.1,1.1-4.1,1.9-5.8
							c0.1-0.2,0.2-0.3,0.3-0.5c-19.1,0.5-44,4.6-55.1,8.2c0,0.3,0,0.5,0,0.8c0,1.7,0.1,3.7,0.1,5.8c0,0.7,0,1.4,0,2.2
							c11.7-4,30.6-6.7,52.1-6.9C335.2,473.6,335.2,473.4,335.3,473.2z"/>
						<path id="XMLID_148_" class="st0" d="M399.5,484l-1-15c-0.3-0.1-0.7-0.1-1-0.2c0,0.2,0,0.4,0,0.6c0,1.7,0.1,3.7,0.1,5.8
							c0,2.1,0,4.4,0,6.7c0,0.4,0,0.8,0,1.2C398.3,483.3,398.9,483.7,399.5,484z"/>
						<path id="XMLID_147_" class="st0" d="M390.4,478.4c0-0.6,0.1-1.1,0.2-1.7c0.1-0.5,0.2-1.1,0.3-1.6c0.5-2.1,1.1-4.1,1.9-5.8
							c0.2-0.4,0.4-0.8,0.6-1.2c-16.5-2.8-32.8-4.5-51.2-4.5c0,0.2,0,0.4,0,0.6c0,1.7,0.1,3.7,0.1,5.8c0,1.2,0,2.5,0,3.8
							c19.4,0.3,36.6,2.7,47.8,6.3C390.3,479.5,390.3,479,390.4,478.4z"/>
						<path id="XMLID_145_" class="st0" d="M277.4,475.1c0.2-0.5,0.3-0.9,0.5-1.4c-0.1,0.1-0.3,0.1-0.4,0.2L277.4,475.1z"/>
						<path id="XMLID_144_" class="st0" d="M279.6,467.8c1-0.4,1.9-0.7,2.7-1c11.4-3.9,39.6-7.7,59.4-7.8c0.1,0,0.2,0.7,0.3,0.7
							c0,0,0.1,0,0.1,0c19.7,0,37.1,1.2,54.9,4.4c0,0,0-0.4,0.1-0.4c0.1,0,0.2-0.1,0.3-0.1c0.3,0,0.6,0,0.8,0.1l-1-15.2
							c-12.6-3.8-31.3-6.2-52.3-6.2c-31.6,0-58.1,5.4-66.1,12.9l-0.9,13.2C278.5,468.2,279.1,468,279.6,467.8z"/>
					</g>
					<g id="XMLID_98_">
						<path id="XMLID_134_" class="st0" d="M283.1,491.7c0,2.1-0.1,4.1-0.1,5.8c0,1.7-0.1,3-0.1,4c11-3.4,23.4-6.1,36.7-7.3
							c6.9-0.6,13.9-0.8,20.9-0.8c-0.1-0.1-0.2-0.2-0.2-0.3c-0.3-0.5-0.8-1.1-1.2-1.8c-0.4-0.7-0.8-1.5-1.2-2.3
							c-0.8-1.7-1.5-3.7-1.9-5.8c-0.1-0.5-0.2-1.1-0.3-1.6c-0.1-0.5-0.2-1.1-0.2-1.6c0-0.4-0.1-0.7-0.1-1.1
							c-22.3,0.8-41.3,4.3-52.1,9.1C283.1,489.2,283.1,490.5,283.1,491.7z"/>
						<path id="XMLID_122_" class="st0" d="M275.5,503.9c0.1,0,0.3-0.1,0.4-0.1c1.7-0.6,3.4-1.2,5.2-1.7c-0.1-0.1-0.2-0.3-0.3-0.5
							c-0.3-0.5-0.8-1.1-1.2-1.8c-0.4-0.7-0.8-1.5-1.2-2.3c-0.8-1.6-1.4-3.5-1.9-5.6c-0.1,0.1-0.1,0.1-0.2,0.2L275.5,503.9z"/>
						<path id="XMLID_120_" class="st0" d="M342.5,478.7c0,1.5,0,3.1,0,4.5c0,2.1-0.1,4.1-0.1,5.8c0,1.7-0.1,3.1-0.1,4.1
							c0,0.1,0,0.2,0,0.4c19.2,0.2,38,2.5,54,6.1c-0.2-0.3-0.6-0.6-0.9-1.1c-0.3-0.5-0.8-1.1-1.2-1.8c-0.4-0.7-0.8-1.5-1.2-2.3
							c-0.8-1.7-1.5-3.7-1.9-5.8c-0.1-0.5-0.2-1.1-0.3-1.6c-0.1-0.5-0.2-1.1-0.2-1.7c-0.1-0.8-0.1-1.7-0.2-2.5
							c-12.3-2.5-27.8-4-44.6-4C344.6,478.7,343.5,478.7,342.5,478.7z"/>
						<path id="XMLID_118_" class="st0" d="M400.6,500.6l-1-15.7c-0.6-0.2-1.3-0.4-1.9-0.5c0,1.4,0,2.8,0,4.1c0,2.1-0.1,4.1-0.1,5.8
							c0,1.7-0.1,3.1-0.1,4.1c0,0.7,0,1.2-0.1,1.4c1.1,0.2,2.1,0.5,3.2,0.7C400.5,500.5,400.5,500.5,400.6,500.6z"/>
						<path id="XMLID_99_" class="st0" d="M436.7,480.3l-0.1-0.8l-0.7-0.4c0,0-0.4-0.2-1.2-0.6l-0.1,0c0,0.1,0,0.3,0,0.4
							c0,0.1,0,0.2,0,0.3c0,0.1,0,0.3,0,0.4c0,0.2,0,0.3,0.1,0.5c0,0.1,0,0.3,0,0.4c0,0.2,0,0.4,0.1,0.7c0,0.2,0,0.3,0,0.5
							c0,0.3,0,0.5,0.1,0.8c0,0.2,0,0.3,0,0.5c0,0.3,0.1,0.6,0.1,0.9c0,0.2,0,0.4,0.1,0.6c0,0.3,0.1,0.7,0.1,1c0,0.2,0,0.4,0.1,0.6
							c0,0.4,0.1,0.8,0.1,1.2c0,0.2,0,0.4,0,0.6c0,0.5,0.1,1,0.1,1.5c0,0.2,0,0.3,0,0.4c0.1,1.3,0.2,2.8,0.3,4.3c0,0.1,0,0.2,0,0.3
							c0,0.6,0.1,1.3,0.1,2c0,0.2,0,0.5,0,0.7c0,0.6,0.1,1.1,0.1,1.7c0,0.3,0,0.6,0,0.9c0,0.5,0,1.1,0.1,1.6c0,0.3,0,0.6,0,1
							c0,0.5,0,1.1,0.1,1.7c0,0.3,0,0.7,0,1c0,0.6,0,1.1,0,1.7c0,0.3,0,0.7,0,1c0,0.6,0,1.2,0,1.8c0,0.3,0,0.7,0,1
							c0,0.6,0,1.3,0,1.9c0,0.3,0,0.7,0,1c0,0.7,0,1.4,0,2.2c0,0.3,0,0.5,0,0.8c0,2,0,4.1-0.1,6.1c0,0.3,0,0.6,0,0.9
							c0,0.8,0,1.5-0.1,2.3c0,0.4,0,0.8,0,1.1c0,0.7,0,1.3-0.1,2c0,0.4,0,0.8-0.1,1.3c0,0.6-0.1,1.3-0.1,1.9c0,0.4,0,0.9-0.1,1.3
							c0,0.6-0.1,1.3-0.1,1.9c0,0.4-0.1,0.9-0.1,1.3c0,0.6-0.1,1.3-0.1,1.9c0,0.5-0.1,0.9-0.1,1.4c-0.1,0.6-0.1,1.3-0.2,1.9
							c0,0.5-0.1,0.9-0.1,1.4c-0.1,0.7-0.1,1.3-0.2,2c0,0.4-0.1,0.9-0.1,1.3c-0.1,0.7-0.2,1.4-0.3,2.2c0,0.4-0.1,0.7-0.1,1.1
							c-0.1,1.1-0.3,2.2-0.4,3.2c-0.2,1.6-0.5,3.2-0.8,4.8c0,0,0,0.1,0,0.1c0,0,0,0,0,0c-0.2,0.9-0.4,1.9-0.5,2.8
							c-2.1,10.1-9.5,17.1-17.1,21.6c-3.3,2-6.6,3.5-9.6,4.7l-1.1-16.3c-13.5-7.6-38.5-12.7-67-12.7c-28.4,0-53.2,5-66.8,12.6
							l-1.1,16c-0.1,0-0.2-0.1-0.3-0.1l-0.1,1.9c11.8-6.2,37.5-10.8,67.3-10.8c31.6,0,58.6,5.1,69.3,11.9l0-0.5
							c4-1.3,7.1-2.8,10.1-4.5c10.2-5.9,16.4-13.3,18.4-22.2c0.2-0.9,0.4-1.9,0.6-2.8l0.1-0.2c0.3-1.5,0.6-3.2,0.8-4.8
							C441.7,519.4,436.8,480.7,436.7,480.3z"/>
					</g>
				</g>
				<g id="XMLID_131_">
					<path id="XMLID_198_" class="st0" d="M426.9,898.2l-1.6-24c-19.2-4.5-44.7-7.3-72.8-7.3c-43.7,0-81.3,6.7-98.2,16.2
						c7.2,2,14.9,4.2,23.1,6.6c1.6,0.5,3.3,1,4.9,1.4c16.6-2.8,36.7-4.5,58.5-4.5C377,886.6,408.8,891.2,426.9,898.2z"/>
					<path id="XMLID_199_" class="st0" d="M423.5,900.6c-19.1-4-43.6-6.5-70.3-6.5c-17.1,0-33.3,1-47.8,2.8
						C368.4,910.7,410.9,903.5,423.5,900.6z"/>
				</g>
			</g>
		</g>
	</g>
</g>
</svg>
