<?xml version="1.0" encoding="utf-8"?>
<!-- Generator: Adobe Illustrator 19.0.0, SVG Export Plug-In . SVG Version: 6.00 Build 0)  -->
<svg version="1.1" id="Layer_1" xmlns="http://www.w3.org/2000/svg" xmlns:xlink="http://www.w3.org/1999/xlink" x="0px" y="0px"
	 viewBox="-80 81.4 338.6 338.6" style="enable-background:new -80 81.4 338.6 338.6;" xml:space="preserve">
<style type="text/css">
	.st0{fill:#FFFFFF;}
	.st1{enable-background:new    ;}
</style>
<g id="XMLID_77_">
	<g id="XMLID_116_">
		<path id="XMLID_75_" class="st0" d="M184.3,115.3c-5.4,0.4-10.7,0.9-16.1,1.3c4.1,2.7,8.2,5.4,12.2,8.2c5.4-0.4,10.7-0.9,16.1-1.3
			C192.5,120.7,188.4,118,184.3,115.3L184.3,115.3z"/>
		<path id="XMLID_74_" class="st0" d="M185.2,114c-1.7-5.1-3.3-10.2-5-15.3c4.1,2.7,8.2,5.4,12.2,8.2c1.7,5.1,3.3,10.2,5,15.3
			C193.4,119.4,189.3,116.7,185.2,114L185.2,114z"/>
		<path id="XMLID_73_" class="st0" d="M199.4,128.1c-5.4-0.3-10.7-0.7-16.1-1c3.7,3.3,7.3,6.6,11,9.8c5.4,0.3,10.7,0.7,16.1,1
			C206.7,134.6,203.1,131.4,199.4,128.1L199.4,128.1z"/>
		<path id="XMLID_72_" class="st0" d="M200.5,126.9c-0.9-5.3-1.8-10.6-2.8-15.9c3.6,3.3,7.3,6.6,11,9.8c0.9,5.3,1.8,10.6,2.8,15.9
			C207.8,133.4,204.2,130.2,200.5,126.9L200.5,126.9z"/>
		<path id="XMLID_71_" class="st0" d="M212.8,142.7c-5.3-1.1-10.5-2.2-15.8-3.3c3.2,3.8,6.3,7.5,9.4,11.3c5.3,1.1,10.5,2.2,15.8,3.3
			C219.1,150.2,216,146.4,212.8,142.7L212.8,142.7z"/>
		<path id="XMLID_70_" class="st0" d="M214,141.6c-0.2-5.4-0.3-10.8-0.5-16.1c3.1,3.8,6.3,7.5,9.4,11.3c0.2,5.4,0.3,10.7,0.5,16.1
			C220.3,149.2,217.2,145.4,214,141.6L214,141.6z"/>
		<path id="XMLID_69_" class="st0" d="M224.3,158.8c-5-1.9-10.1-3.7-15.1-5.6c2.6,4.2,5.1,8.4,7.7,12.5c5.1,1.9,10.1,3.7,15.1,5.6
			C229.4,167.1,226.9,163,224.3,158.8L224.3,158.8z"/>
		<path id="XMLID_68_" class="st0" d="M225.6,158c0.6-5.3,1.3-10.7,1.9-16c2.6,4.2,5.1,8.4,7.7,12.5c-0.6,5.3-1.2,10.7-1.9,16
			C230.8,166.3,228.2,162.1,225.6,158L225.6,158z"/>
		<path id="XMLID_67_" class="st0" d="M233.5,176.2c-4.8-2.3-9.7-4.7-14.5-7c2.2,4.4,4.3,8.8,6.5,13.2c4.8,2.3,9.7,4.7,14.5,7
			C237.8,185,235.6,180.6,233.5,176.2L233.5,176.2z"/>
		<path id="XMLID_66_" class="st0" d="M234.9,175.5c1.1-5.3,2.3-10.5,3.4-15.8c2.2,4.4,4.3,8.8,6.5,13.2c-1.1,5.3-2.3,10.5-3.4,15.8
			C239.2,184.4,237,179.9,234.9,175.5L234.9,175.5z"/>
		<path id="XMLID_65_" class="st0" d="M240.4,194.8c-4.4-3-8.9-6-13.3-9.1c1.5,4.7,3,9.4,4.4,14c4.4,3,8.9,6,13.3,9.1
			C243.4,204.1,241.9,199.5,240.4,194.8L240.4,194.8z"/>
		<path id="XMLID_64_" class="st0" d="M241.9,194.3c1.9-5,3.8-10.1,5.7-15.1c1.5,4.7,3,9.4,4.4,14c-1.9,5-3.8,10.1-5.7,15.1
			C244.9,203.7,243.4,199,241.9,194.3L241.9,194.3z"/>
		<path id="XMLID_63_" class="st0" d="M244.9,214c-4.1-3.5-8.2-6.9-12.4-10.4c1,4.8,2,9.6,3,14.4c4.1,3.5,8.2,6.9,12.4,10.4
			C246.9,223.6,245.9,218.8,244.9,214L244.9,214z"/>
		<path id="XMLID_62_" class="st0" d="M246.5,213.7c2.4-4.8,4.8-9.6,7.2-14.4c1,4.8,2,9.6,3,14.4c-2.4,4.8-4.8,9.6-7.2,14.4
			C248.5,223.2,247.5,218.4,246.5,213.7L246.5,213.7z"/>
		<path id="XMLID_61_" class="st0" d="M246.9,233.7c-3.6-4-7.1-8.1-10.7-12.1c0.3,4.9,0.5,9.8,0.8,14.7c3.6,4,7.1,8.1,10.7,12.1
			C247.4,243.5,247.2,238.6,246.9,233.7L246.9,233.7z"/>
		<path id="XMLID_60_" class="st0" d="M248.5,233.6c3.1-4.4,6.2-8.8,9.3-13.2c0.3,4.9,0.5,9.8,0.8,14.7c-3.1,4.4-6.2,8.8-9.3,13.2
			C249,243.4,248.7,238.5,248.5,233.6L248.5,233.6z"/>
		<path id="XMLID_59_" class="st0" d="M246.4,253.4c-3.1-4.4-6.2-8.8-9.4-13.1c-0.2,4.9-0.5,9.8-0.7,14.7c3.1,4.4,6.2,8.8,9.4,13.1
			C245.9,263.2,246.2,258.3,246.4,253.4L246.4,253.4z"/>
		<path id="XMLID_58_" class="st0" d="M248,253.5c3.5-4.1,7.1-8.1,10.6-12.2c-0.2,4.9-0.5,9.8-0.7,14.7c-3.5,4.1-7,8.1-10.6,12.2
			C247.5,263.3,247.7,258.4,248,253.5L248,253.5z"/>
		<path id="XMLID_57_" class="st0" d="M243.4,273c-2.4-4.8-4.9-9.6-7.3-14.4c-1,4.8-1.9,9.6-2.9,14.4c2.4,4.8,4.9,9.6,7.3,14.4
			C241.4,282.6,242.4,277.8,243.4,273L243.4,273z"/>
		<path id="XMLID_56_" class="st0" d="M244.9,273.3c4.1-3.5,8.2-7,12.3-10.5c-1,4.8-1.9,9.6-2.9,14.4c-4.1,3.5-8.2,7-12.3,10.5
			C243,282.9,243.9,278.1,244.9,273.3L244.9,273.3z"/>
		<path id="XMLID_55_" class="st0" d="M237.9,292c-1.7-5.1-3.4-10.2-5.1-15.3c-1.7,4.6-3.3,9.2-5,13.8c1.7,5.1,3.4,10.2,5.1,15.3
			C234.5,301.2,236.2,296.6,237.9,292L237.9,292z"/>
		<path id="XMLID_54_" class="st0" d="M239.4,292.5c4.6-2.8,9.1-5.7,13.7-8.5c-1.7,4.6-3.3,9.2-5,13.8c-4.6,2.8-9.1,5.7-13.7,8.5
			C236,301.8,237.7,297.1,239.4,292.5L239.4,292.5z"/>
		<path id="XMLID_53_" class="st0" d="M230,310c-1.2-5.3-2.4-10.5-3.5-15.8c-2.1,4.4-4.2,8.9-6.3,13.3c1.2,5.3,2.4,10.5,3.5,15.8
			C225.7,318.9,227.8,314.5,230,310L230,310z"/>
		<path id="XMLID_52_" class="st0" d="M231.4,310.7c4.8-2.4,9.6-4.7,14.5-7.1c-2.1,4.4-4.2,8.8-6.4,13.3c-4.8,2.4-9.7,4.7-14.5,7.1
			C227.2,319.6,229.3,315.2,231.4,310.7L231.4,310.7z"/>
		<path id="XMLID_51_" class="st0" d="M219.8,327c-0.4-5.4-0.8-10.7-1.2-16.1c-2.7,4.1-5.5,8.2-8.2,12.2c0.4,5.4,0.8,10.7,1.2,16.1
			C214.3,335.2,217,331.1,219.8,327L219.8,327z"/>
		<path id="XMLID_50_" class="st0" d="M220.7,328.4c5.1-1.6,10.3-3.3,15.4-4.9c-2.7,4.1-5.5,8.1-8.3,12.2
			c-5.1,1.6-10.2,3.3-15.4,4.9C215.2,336.6,218,332.5,220.7,328.4L220.7,328.4z"/>
		<path id="XMLID_49_" class="st0" d="M207.2,343c0.1-5.4,0.3-10.8,0.4-16.1c-3.1,3.8-6.3,7.6-9.4,11.3c-0.1,5.4-0.3,10.8-0.4,16.1
			C200.9,350.5,204.1,346.8,207.2,343L207.2,343z"/>
		<path id="XMLID_48_" class="st0" d="M208.4,344c5.2-1.1,10.5-2.3,15.8-3.4c-3.1,3.8-6.3,7.6-9.4,11.3c-5.2,1.1-10.5,2.2-15.8,3.4
			C202.1,351.6,205.3,347.8,208.4,344L208.4,344z"/>
		<path id="XMLID_47_" class="st0" d="M193,356.8c0.9-5.3,1.8-10.6,2.7-15.9c-3.6,3.3-7.3,6.6-10.9,9.9c-0.9,5.3-1.8,10.6-2.7,15.9
			C185.7,363.3,189.3,360.1,193,356.8L193,356.8z"/>
		<path id="XMLID_46_" class="st0" d="M194,357.9c5.4-0.4,10.7-0.7,16.1-1.1c-3.6,3.3-7.3,6.6-10.9,9.9c-5.4,0.4-10.7,0.7-16.1,1.1
			C186.8,364.5,190.4,361.2,194,357.9L194,357.9z"/>
		<path id="XMLID_45_" class="st0" d="M177.1,368.6c1.6-5.1,3.3-10.2,4.9-15.4c-4.1,2.7-8.1,5.5-12.2,8.2
			c-1.6,5.1-3.3,10.2-4.9,15.4C169,374.1,173.1,371.4,177.1,368.6L177.1,368.6z"/>
		<path id="XMLID_44_" class="st0" d="M178,369.9c5.4,0.4,10.7,0.8,16.1,1.2c-4.1,2.7-8.1,5.5-12.2,8.2c-5.4-0.4-10.7-0.8-16.1-1.2
			C169.9,375.4,174,372.7,178,369.9L178,369.9z"/>
		<path id="XMLID_43_" class="st0" d="M160,378.4c2.1-4.9,4.3-9.9,6.4-14.8c-4.3,2.3-8.6,4.7-12.9,7c-2.1,4.9-4.3,9.9-6.4,14.8
			C151.4,383,155.7,380.7,160,378.4L160,378.4z"/>
		<path id="XMLID_42_" class="st0" d="M160.8,379.8c5.3,0.9,10.6,1.8,15.9,2.8c-4.3,2.3-8.6,4.7-13,7c-5.3-0.9-10.6-1.9-15.9-2.8
			C152.1,384.4,156.5,382.1,160.8,379.8L160.8,379.8z"/>
		<path id="XMLID_41_" class="st0" d="M141.7,385.8c2.8-4.6,5.7-9.1,8.5-13.7c-4.6,1.7-9.2,3.3-13.8,5c-2.8,4.6-5.7,9.1-8.5,13.7
			C132.4,389.1,137.1,387.5,141.7,385.8L141.7,385.8z"/>
		<path id="XMLID_40_" class="st0" d="M142.2,387.3c5.1,1.7,10.2,3.4,15.3,5.1c-4.6,1.7-9.2,3.3-13.8,5c-5.1-1.7-10.2-3.4-15.3-5.1
			C133,390.6,137.6,389,142.2,387.3L142.2,387.3z"/>
		<polygon id="XMLID_39_" class="st0" points="167.8,110.1 156.9,97.4 173.2,101.2 184,113.9 		"/>
	</g>
	<g id="XMLID_78_">
		<path id="XMLID_38_" class="st0" d="M-6.8,116.1c5.4,0.4,10.7,0.8,16.1,1.2c-4.1,2.8-8.1,5.5-12.2,8.3c-5.3-0.4-10.7-0.8-16.1-1.2
			C-14.9,121.6-10.8,118.9-6.8,116.1L-6.8,116.1z"/>
		<path id="XMLID_37_" class="st0" d="M-7.7,114.8c1.6-5.1,3.2-10.3,4.9-15.4c-4.1,2.7-8.1,5.5-12.2,8.3c-1.6,5.1-3.3,10.3-4.9,15.4
			C-15.8,120.3-11.7,117.6-7.7,114.8L-7.7,114.8z"/>
		<path id="XMLID_36_" class="st0" d="M-21.8,129c5.4-0.4,10.7-0.8,16.1-1.2c-3.6,3.3-7.2,6.6-10.9,9.9c-5.4,0.4-10.7,0.8-16.1,1.2
			C-29,135.6-25.4,132.3-21.8,129L-21.8,129z"/>
		<path id="XMLID_35_" class="st0" d="M-22.9,127.9c0.9-5.3,1.7-10.6,2.6-15.9c-3.6,3.3-7.2,6.6-10.9,9.9
			c-0.9,5.3-1.8,10.6-2.6,15.9C-30.1,134.5-26.5,131.2-22.9,127.9L-22.9,127.9z"/>
		<path id="XMLID_34_" class="st0" d="M-35.1,143.7c5.3-1.2,10.5-2.3,15.7-3.5c-3.1,3.8-6.2,7.6-9.3,11.4
			c-5.2,1.1-10.5,2.3-15.8,3.4C-41.3,151.3-38.2,147.5-35.1,143.7L-35.1,143.7z"/>
		<path id="XMLID_33_" class="st0" d="M-36.3,142.7c0.1-5.4,0.2-10.8,0.3-16.1c-3.1,3.8-6.2,7.6-9.3,11.4
			c-0.1,5.4-0.2,10.8-0.3,16.1C-42.5,150.3-39.4,146.5-36.3,142.7L-36.3,142.7z"/>
		<path id="XMLID_32_" class="st0" d="M-46.4,159.9c5-1.9,10.1-3.8,15.1-5.7c-2.5,4.2-5.1,8.4-7.6,12.6c-5,1.9-10.1,3.8-15.1,5.7
			C-51.5,168.3-48.9,164.1-46.4,159.9L-46.4,159.9z"/>
		<path id="XMLID_31_" class="st0" d="M-47.7,159.1c-0.7-5.3-1.3-10.7-2-16c-2.5,4.2-5.1,8.4-7.6,12.6c0.7,5.3,1.3,10.7,2,16
			C-52.8,167.5-50.3,163.3-47.7,159.1L-47.7,159.1z"/>
		<path id="XMLID_30_" class="st0" d="M-55.4,177.5c4.8-2.4,9.7-4.8,14.5-7.1c-2.1,4.4-4.2,8.9-6.3,13.3c-4.8,2.4-9.6,4.7-14.5,7.1
			C-59.6,186.3-57.5,181.9-55.4,177.5L-55.4,177.5z"/>
		<path id="XMLID_29_" class="st0" d="M-56.8,176.8c-1.2-5.3-2.4-10.5-3.6-15.7c-2.1,4.4-4.2,8.9-6.3,13.3
			c1.2,5.3,2.4,10.5,3.5,15.7C-61.1,185.6-59,181.2-56.8,176.8L-56.8,176.8z"/>
		<path id="XMLID_28_" class="st0" d="M-62.2,196.1c4.4-3.1,8.9-6.1,13.3-9.2c-1.4,4.7-2.9,9.4-4.3,14.1c-4.4,3.1-8.8,6.1-13.3,9.2
			C-65.1,205.4-63.6,200.8-62.2,196.1L-62.2,196.1z"/>
		<path id="XMLID_27_" class="st0" d="M-63.7,195.6c-1.9-5-3.9-10-5.8-15c-1.4,4.7-2.9,9.4-4.3,14.1c1.9,5,3.9,10,5.8,15
			C-66.6,205-65.2,200.3-63.7,195.6L-63.7,195.6z"/>
		<path id="XMLID_26_" class="st0" d="M-66.5,215.3c4.1-3.5,8.2-7,12.3-10.5c-1,4.8-1.9,9.6-2.9,14.4c-4.1,3.5-8.2,7-12.3,10.5
			C-68.5,224.9-67.5,220.1-66.5,215.3L-66.5,215.3z"/>
		<path id="XMLID_25_" class="st0" d="M-68.1,215c-2.4-4.8-4.9-9.6-7.3-14.4c-1,4.8-1.9,9.6-2.9,14.4c2.4,4.8,4.9,9.6,7.3,14.4
			C-70,224.6-69,219.8-68.1,215L-68.1,215z"/>
		<path id="XMLID_24_" class="st0" d="M-68.3,235c3.5-4.1,7-8.1,10.6-12.2c-0.2,4.9-0.4,9.8-0.7,14.7c-3.5,4.1-7,8.1-10.5,12.2
			C-68.8,244.8-68.6,239.9-68.3,235L-68.3,235z"/>
		<path id="XMLID_23_" class="st0" d="M-69.9,234.9c-3.1-4.4-6.3-8.7-9.4-13.1c-0.2,4.9-0.4,9.8-0.7,14.7c3.1,4.4,6.3,8.7,9.4,13.1
			C-70.4,244.7-70.2,239.8-69.9,234.9L-69.9,234.9z"/>
		<path id="XMLID_22_" class="st0" d="M-67.7,254.7c3.1-4.4,6.2-8.8,9.3-13.2c0.3,4.9,0.6,9.8,0.8,14.7c-3.1,4.4-6.2,8.8-9.3,13.2
			C-67.1,264.5-67.4,259.6-67.7,254.7L-67.7,254.7z"/>
		<path id="XMLID_21_" class="st0" d="M-69.3,254.8c-3.6-4-7.1-8.1-10.7-12.1c0.3,4.9,0.5,9.8,0.8,14.7c3.6,4,7.1,8.1,10.7,12.1
			C-68.7,264.6-69,259.7-69.3,254.8L-69.3,254.8z"/>
		<path id="XMLID_20_" class="st0" d="M-64.5,274.3c2.4-4.8,4.8-9.6,7.2-14.5c1,4.8,2,9.6,3,14.4c-2.4,4.8-4.8,9.6-7.2,14.5
			C-62.5,283.9-63.5,279.1-64.5,274.3L-64.5,274.3z"/>
		<path id="XMLID_19_" class="st0" d="M-66,274.6c-4.1-3.5-8.3-6.9-12.4-10.3c1,4.8,2,9.6,3,14.4c4.1,3.4,8.3,6.9,12.4,10.3
			C-64,284.2-65,279.4-66,274.6L-66,274.6z"/>
		<path id="XMLID_18_" class="st0" d="M-58.8,293.3c1.6-5.1,3.3-10.2,4.9-15.4c1.7,4.6,3.4,9.2,5.1,13.8c-1.6,5.1-3.3,10.2-4.9,15.4
			C-55.4,302.5-57.1,297.9-58.8,293.3L-58.8,293.3z"/>
		<path id="XMLID_17_" class="st0" d="M-60.3,293.8c-4.6-2.8-9.2-5.6-13.8-8.4c1.7,4.6,3.4,9.2,5.1,13.8c4.6,2.8,9.2,5.6,13.8,8.4
			C-56.9,303-58.6,298.4-60.3,293.8L-60.3,293.8z"/>
		<path id="XMLID_16_" class="st0" d="M-50.8,311.2c1.1-5.3,2.3-10.5,3.4-15.8c2.2,4.4,4.3,8.8,6.5,13.2c-1.1,5.3-2.3,10.5-3.4,15.8
			C-46.5,320.1-48.6,315.6-50.8,311.2L-50.8,311.2z"/>
		<path id="XMLID_15_" class="st0" d="M-52.2,311.9c-4.8-2.3-9.7-4.7-14.5-7c2.2,4.4,4.3,8.8,6.5,13.2c4.8,2.3,9.7,4.7,14.5,7
			C-47.9,320.7-50,316.3-52.2,311.9L-52.2,311.9z"/>
		<path id="XMLID_14_" class="st0" d="M-40.4,328.1c0.4-5.4,0.7-10.7,1.1-16.1c2.8,4,5.5,8.1,8.3,12.1c-0.4,5.4-0.7,10.7-1.1,16.1
			C-34.9,336.2-37.7,332.2-40.4,328.1L-40.4,328.1z"/>
		<path id="XMLID_13_" class="st0" d="M-42.1,328.4c-5.1-1.6-10.3-3.3-15.4-4.9c2.8,4.1,5.5,8.1,8.3,12.2c5.1,1.6,10.2,3.3,15.4,4.9
			C-36.6,336.6-39.4,332.5-42.1,328.4L-42.1,328.4z"/>
		<path id="XMLID_12_" class="st0" d="M-28.6,343c-0.1-5.4-0.3-10.8-0.4-16.1c3.1,3.8,6.3,7.6,9.4,11.3c0.1,5.4,0.3,10.8,0.4,16.1
			C-22.3,350.5-25.4,346.8-28.6,343L-28.6,343z"/>
		<path id="XMLID_11_" class="st0" d="M-29.8,344c-5.2-1.1-10.5-2.3-15.8-3.4c3.1,3.8,6.3,7.6,9.4,11.3c5.2,1.1,10.5,2.2,15.8,3.4
			C-23.5,351.6-26.7,347.8-29.8,344L-29.8,344z"/>
		<path id="XMLID_10_" class="st0" d="M-14.3,356.8c-0.9-5.3-1.8-10.6-2.7-15.9c3.6,3.3,7.3,6.6,10.9,9.9c0.9,5.3,1.8,10.6,2.7,15.9
			C-7.1,363.3-10.7,360.1-14.3,356.8L-14.3,356.8z"/>
		<path id="XMLID_9_" class="st0" d="M-15.4,357.9c-5.4-0.4-10.7-0.7-16.1-1.1c3.6,3.3,7.3,6.6,10.9,9.9c5.4,0.4,10.7,0.7,16.1,1.1
			C-8.1,364.5-11.8,361.2-15.4,357.9L-15.4,357.9z"/>
		<path id="XMLID_8_" class="st0" d="M1.5,368.6c-1.7-5.1-3.3-10.2-4.9-15.4c4.1,2.7,8.1,5.5,12.2,8.2c1.6,5.1,3.3,10.2,4.9,15.4
			C9.6,374.1,5.6,371.4,1.5,368.6L1.5,368.6z"/>
		<path id="XMLID_7_" class="st0" d="M0.6,369.9c-5.4,0.4-10.7,0.8-16.1,1.2c4.1,2.7,8.1,5.5,12.2,8.2c5.4-0.4,10.7-0.8,16.1-1.2
			C8.7,375.4,4.7,372.7,0.6,369.9L0.6,369.9z"/>
		<path id="XMLID_6_" class="st0" d="M18.6,378.4c-2.1-4.9-4.3-9.9-6.4-14.8c4.3,2.3,8.6,4.7,12.9,7c2.1,4.9,4.3,9.9,6.4,14.8
			C27.2,383,22.9,380.7,18.6,378.4L18.6,378.4z"/>
		<path id="XMLID_5_" class="st0" d="M17.9,379.8c-5.3,0.9-10.6,1.8-15.9,2.8c4.3,2.3,8.6,4.7,12.9,7c5.3-0.9,10.6-1.9,15.9-2.8
			C26.5,384.4,22.2,382.1,17.9,379.8L17.9,379.8z"/>
		<path id="XMLID_4_" class="st0" d="M37,385.8c-2.8-4.6-5.7-9.1-8.5-13.7c4.6,1.7,9.2,3.3,13.8,5c2.8,4.6,5.7,9.1,8.5,13.7
			C46.2,389.1,41.6,387.5,37,385.8L37,385.8z"/>
		<path id="XMLID_3_" class="st0" d="M36.4,387.3c-5.1,1.7-10.2,3.4-15.3,5.1c4.6,1.7,9.2,3.3,13.8,5c5.1-1.7,10.2-3.4,15.3-5.1
			C45.6,390.6,41,389,36.4,387.3L36.4,387.3z"/>
		<polygon id="XMLID_2_" class="st0" points="9.7,110.7 20.5,98 4.3,101.9 -6.5,114.7 		"/>
	</g>
</g>
<g class="st1">
	<path class="st0" d="M21.2,161.7h-3.5l-0.9-4.9c-0.7-0.6-1.6-1.1-2.8-1.5s-2.5-0.6-4.1-0.6c-2.5,0-4.3,0.5-5.6,1.6s-2,2.4-2,4.1
		c0,1.5,0.7,2.7,2,3.7s3.5,1.9,6.5,2.6c3.6,0.9,6.3,2.2,8.2,3.9s2.8,3.9,2.8,6.4c0,2.8-1.1,5-3.4,6.6s-5.2,2.5-8.8,2.5
		c-2.6,0-5-0.4-7-1.3s-3.7-2-5-3.4v-6.4h3.5l0.9,4.9c0.9,0.7,2,1.3,3.2,1.8s2.7,0.7,4.4,0.7c2.3,0,4.2-0.5,5.5-1.5s2-2.3,2-4
		c0-1.6-0.6-2.9-1.8-3.9s-3.2-1.9-6.2-2.7c-3.6-0.9-6.4-2.1-8.5-3.8s-3-3.8-3-6.3c0-2.7,1.1-4.9,3.4-6.7s5.2-2.7,8.8-2.7
		c2.4,0,4.6,0.4,6.5,1.2s3.5,1.8,4.7,3V161.7z"/>
	<path class="st0" d="M25.3,182.7l2.5-0.4l11.9-30.8h4l11.7,30.8l2.5,0.4v3h-9.8v-3l2.6-0.4l-2.2-6.3H34.8l-2.3,6.3l2.6,0.4v3h-9.8
		V182.7z M36.3,172.2h10.8l-5.3-14.6h-0.1L36.3,172.2z"/>
	<path class="st0" d="M60.9,182.7l3.8-0.7v-26.9l-3.8-0.7v-3h26.4v8.2h-3.9l-0.4-4.6H69.3V167h13.2v3.6H69.3v11.5l3.8,0.7v3H60.9
		V182.7z"/>
	<path class="st0" d="M90.7,185.7v-3l3.8-0.7v-26.9l-3.8-0.7v-3h26.2v8.2h-4l-0.4-4.6H99.1v11h13.1v3.6H99.1v12.2h13.7l0.4-4.6h3.9
		v8.2H90.7z"/>
	<path class="st0" d="M149.3,151.6v7.5h-3.9l-0.4-3.9h-7.6v26.9l3.8,0.7v3H129v-3l3.8-0.7v-26.9h-7.6l-0.3,3.9h-4v-7.5H149.3z"/>
	<path class="st0" d="M163.6,154.6l-3.7,0.4l7.1,13.9l7.1-13.9l-3.7-0.4v-3h11.7v3l-2.9,0.4l-10.1,18.7v8.4l3.8,0.7v3h-12.2v-3
		l3.8-0.7v-8.7l-9.9-18.4l-2.9-0.4v-3h11.7V154.6z"/>
</g>
<g class="st1">
	<path class="st0" d="M-15.9,228c-0.2,1.6-0.8,2.9-1.8,3.8s-2.3,1.3-4,1.3c-1.2,0-2.2-0.3-3.1-0.9s-1.6-1.4-2.1-2.5
		c-0.5-1.1-0.7-2.3-0.7-3.6v-2c0-1.4,0.2-2.6,0.7-3.7c0.5-1.1,1.2-1.9,2.1-2.5c0.9-0.6,2-0.9,3.2-0.9c1.7,0,3,0.5,4,1.4
		c1,0.9,1.5,2.2,1.7,3.7h-1.3c-0.3-2.7-1.8-4-4.3-4c-1.4,0-2.5,0.5-3.4,1.6c-0.8,1.1-1.3,2.5-1.3,4.4v1.9c0,1.8,0.4,3.2,1.2,4.3
		c0.8,1.1,1.9,1.6,3.3,1.6c1.4,0,2.4-0.3,3.1-1c0.7-0.7,1.1-1.7,1.3-3H-15.9z"/>
	<path class="st0" d="M-1.2,225.9c0,1.4-0.2,2.7-0.7,3.8c-0.5,1.1-1.2,1.9-2.1,2.5s-2,0.9-3.2,0.9c-1.8,0-3.3-0.7-4.4-2
		c-1.1-1.3-1.7-3.1-1.7-5.3v-1.6c0-1.4,0.3-2.7,0.8-3.8c0.5-1.1,1.2-1.9,2.1-2.5c0.9-0.6,2-0.9,3.2-0.9s2.3,0.3,3.2,0.9
		c0.9,0.6,1.6,1.4,2.1,2.5c0.5,1.1,0.8,2.3,0.8,3.7V225.9z M-2.5,224.2c0-1.9-0.4-3.4-1.3-4.4c-0.9-1.1-2-1.6-3.5-1.6
		c-1.5,0-2.6,0.5-3.5,1.6c-0.9,1.1-1.3,2.6-1.3,4.5v1.6c0,1.9,0.4,3.3,1.3,4.4c0.9,1.1,2,1.6,3.5,1.6c1.5,0,2.7-0.5,3.5-1.6
		c0.8-1.1,1.3-2.6,1.3-4.5V224.2z"/>
	<path class="st0" d="M13.8,232.8h-1.3l-9-13.4v13.4H2.2v-15.6h1.3l9,13.4v-13.4h1.3V232.8z"/>
	<path class="st0" d="M28.1,218.3h-5.4v14.5h-1.3v-14.5h-5.3v-1.1h12V218.3z"/>
	<path class="st0" d="M36.5,226.3h-4.5v6.5h-1.3v-15.6h5.1c1.7,0,3,0.4,3.9,1.2c0.9,0.8,1.4,1.9,1.4,3.4c0,1-0.3,1.9-0.9,2.6
		c-0.6,0.8-1.4,1.3-2.4,1.6l3.9,6.7v0.1h-1.4L36.5,226.3z M31.9,225.2h4c1.1,0,2-0.3,2.7-0.9c0.7-0.6,1-1.4,1-2.5
		c0-1.1-0.4-2-1.1-2.6c-0.7-0.6-1.7-0.9-3-0.9h-3.7V225.2z"/>
	<path class="st0" d="M46.2,232.8h-1.3v-15.6h1.3V232.8z"/>
	<path class="st0" d="M50.4,232.8v-15.6H55c1.7,0,2.9,0.3,3.8,1c0.9,0.7,1.3,1.7,1.3,3.1c0,0.8-0.2,1.5-0.7,2.1
		c-0.4,0.6-1,1-1.8,1.3c0.9,0.2,1.6,0.6,2.2,1.3c0.6,0.7,0.8,1.5,0.8,2.4c0,1.4-0.4,2.5-1.3,3.2s-2.1,1.2-3.7,1.2H50.4z M51.8,224.2
		h3.6c1.1,0,2-0.3,2.6-0.8c0.6-0.5,0.9-1.2,0.9-2.2c0-1-0.3-1.7-0.9-2.2c-0.6-0.5-1.6-0.7-2.8-0.7h-3.3V224.2z M51.8,225.3v6.4h4
		c1.1,0,2-0.3,2.7-0.9c0.7-0.6,1-1.4,1-2.4c0-1-0.3-1.7-1-2.3s-1.5-0.8-2.6-0.8H51.8z"/>
	<path class="st0" d="M74.7,217.2v10.7c0,1.1-0.2,2-0.7,2.8c-0.5,0.8-1.1,1.4-1.9,1.8c-0.8,0.4-1.8,0.6-2.9,0.6c-1.6,0-3-0.4-4-1.3
		c-1-0.9-1.5-2.1-1.5-3.7v-10.8H65v10.6c0,1.3,0.4,2.3,1.1,3.1c0.8,0.7,1.8,1.1,3.1,1.1s2.3-0.4,3.1-1.1c0.7-0.7,1.1-1.7,1.1-3.1
		v-10.6H74.7z"/>
	<path class="st0" d="M89,218.3h-5.4v14.5h-1.3v-14.5H77v-1.1h12V218.3z"/>
	<path class="st0" d="M93.1,232.8h-1.3v-15.6h1.3V232.8z"/>
	<path class="st0" d="M108.9,225.9c0,1.4-0.2,2.7-0.7,3.8c-0.5,1.1-1.2,1.9-2.1,2.5s-2,0.9-3.2,0.9c-1.8,0-3.3-0.7-4.4-2
		c-1.1-1.3-1.7-3.1-1.7-5.3v-1.6c0-1.4,0.3-2.7,0.8-3.8c0.5-1.1,1.2-1.9,2.1-2.5c0.9-0.6,2-0.9,3.2-0.9s2.3,0.3,3.2,0.9
		c0.9,0.6,1.6,1.4,2.1,2.5s0.8,2.3,0.8,3.7V225.9z M107.6,224.2c0-1.9-0.4-3.4-1.3-4.4s-2-1.6-3.5-1.6c-1.5,0-2.6,0.5-3.5,1.6
		c-0.9,1.1-1.3,2.6-1.3,4.5v1.6c0,1.9,0.4,3.3,1.3,4.4c0.9,1.1,2,1.6,3.5,1.6c1.5,0,2.7-0.5,3.5-1.6c0.8-1.1,1.3-2.6,1.3-4.5V224.2z
		"/>
	<path class="st0" d="M123.9,232.8h-1.3l-9-13.4v13.4h-1.3v-15.6h1.3l9,13.4v-13.4h1.3V232.8z"/>
	<path class="st0" d="M143.4,218.3H138v14.5h-1.3v-14.5h-5.3v-1.1h12V218.3z"/>
	<path class="st0" d="M157.2,225.9c0,1.4-0.2,2.7-0.7,3.8c-0.5,1.1-1.2,1.9-2.1,2.5s-2,0.9-3.2,0.9c-1.8,0-3.3-0.7-4.4-2
		c-1.1-1.3-1.7-3.1-1.7-5.3v-1.6c0-1.4,0.3-2.7,0.8-3.8c0.5-1.1,1.2-1.9,2.1-2.5c0.9-0.6,2-0.9,3.2-0.9s2.3,0.3,3.2,0.9
		c0.9,0.6,1.6,1.4,2.1,2.5s0.8,2.3,0.8,3.7V225.9z M155.9,224.2c0-1.9-0.4-3.4-1.3-4.4s-2-1.6-3.5-1.6c-1.5,0-2.6,0.5-3.5,1.6
		c-0.9,1.1-1.3,2.6-1.3,4.5v1.6c0,1.9,0.4,3.3,1.3,4.4c0.9,1.1,2,1.6,3.5,1.6c1.5,0,2.7-0.5,3.5-1.6c0.8-1.1,1.3-2.6,1.3-4.5V224.2z
		"/>
	<path class="st0" d="M172.9,225.8l-7.6-3.3v-1.3l9.1,4.1v1l-9.1,4.1V229L172.9,225.8z"/>
	<path class="st0" d="M182.7,232.8h-1.3v-14.1l-4.3,1.6v-1.2l5.3-2h0.2V232.8z"/>
	<path class="st0" d="M191.2,217.2L197,231l5.8-13.8h1.8v15.6h-1.3V226l0.1-7l-5.8,13.8h-1l-5.8-13.7l0.1,6.9v6.9h-1.3v-15.6H191.2z
		"/>
</g>
<g class="st1">
	<path class="st0" d="M-38.9,243.6l5.8,13.8l5.8-13.8h1.8v15.6h-1.3v-6.8l0.1-7l-5.8,13.8h-1l-5.8-13.7l0.1,6.9v6.9h-1.3v-15.6
		H-38.9z"/>
	<path class="st0" d="M-12.9,254.8H-20l-1.6,4.4H-23l5.9-15.6h1.3l5.9,15.6h-1.4L-12.9,254.8z M-19.6,253.7h6.3l-3.1-8.5
		L-19.6,253.7z"/>
	<path class="st0" d="M4,259.2H2.7l-9-13.4v13.4h-1.3v-15.6h1.3l9,13.4v-13.4H4V259.2z"/>
	<path class="st0" d="M24.9,259.2h-1.3v-7.5h-8.9v7.5h-1.3v-15.6h1.3v7h8.9v-7h1.3V259.2z"/>
	<path class="st0" d="M40.4,252.3c0,1.4-0.2,2.7-0.7,3.8c-0.5,1.1-1.2,1.9-2.1,2.5s-2,0.9-3.2,0.9c-1.8,0-3.3-0.7-4.4-2
		c-1.1-1.3-1.7-3.1-1.7-5.3v-1.6c0-1.4,0.3-2.7,0.8-3.8c0.5-1.1,1.2-1.9,2.1-2.5c0.9-0.6,2-0.9,3.2-0.9s2.3,0.3,3.2,0.9
		c0.9,0.6,1.6,1.4,2.1,2.5c0.5,1.1,0.8,2.3,0.8,3.7V252.3z M39.1,250.6c0-1.9-0.4-3.4-1.3-4.4c-0.9-1.1-2-1.6-3.5-1.6
		c-1.5,0-2.6,0.5-3.5,1.6c-0.9,1.1-1.3,2.6-1.3,4.5v1.6c0,1.9,0.4,3.3,1.3,4.4c0.9,1.1,2,1.6,3.5,1.6c1.5,0,2.7-0.5,3.5-1.6
		c0.8-1.1,1.3-2.6,1.3-4.5V250.6z"/>
	<path class="st0" d="M54.6,243.6v10.7c0,1.1-0.2,2-0.7,2.8c-0.5,0.8-1.1,1.4-1.9,1.8c-0.8,0.4-1.8,0.6-2.9,0.6c-1.6,0-3-0.4-4-1.3
		c-1-0.9-1.5-2.1-1.5-3.7v-10.8h1.3v10.6c0,1.3,0.4,2.3,1.1,3.1c0.8,0.7,1.8,1.1,3.1,1.1s2.3-0.4,3.1-1.1c0.7-0.7,1.1-1.7,1.1-3.1
		v-10.6H54.6z"/>
	<path class="st0" d="M64.1,252.7h-4.5v6.5h-1.3v-15.6h5.1c1.7,0,3,0.4,3.9,1.2c0.9,0.8,1.4,1.9,1.4,3.4c0,1-0.3,1.9-0.9,2.6
		c-0.6,0.8-1.4,1.3-2.4,1.6l3.9,6.7v0.1h-1.4L64.1,252.7z M59.5,251.6h4c1.1,0,2-0.3,2.7-0.9c0.7-0.6,1-1.4,1-2.5
		c0-1.1-0.4-2-1.1-2.6c-0.7-0.6-1.7-0.9-3-0.9h-3.7V251.6z"/>
	<path class="st0" d="M81.1,255.4c0-0.9-0.3-1.6-0.9-2.1c-0.6-0.5-1.7-1-3.3-1.4c-1.6-0.5-2.8-1-3.5-1.5c-1.1-0.8-1.6-1.8-1.6-3
		c0-1.2,0.5-2.2,1.5-2.9c1-0.7,2.2-1.1,3.8-1.1c1,0,2,0.2,2.8,0.6c0.8,0.4,1.5,1,1.9,1.7s0.7,1.5,0.7,2.4H81c0-1.1-0.4-1.9-1.1-2.6
		c-0.7-0.7-1.7-1-2.9-1c-1.2,0-2.1,0.3-2.9,0.8s-1.1,1.2-1.1,2.1c0,0.8,0.3,1.4,1,1.9c0.6,0.5,1.7,0.9,3.1,1.3
		c1.4,0.4,2.5,0.8,3.2,1.2c0.7,0.4,1.3,0.9,1.6,1.5s0.5,1.2,0.5,2c0,1.2-0.5,2.2-1.5,3c-1,0.7-2.3,1.1-3.9,1.1c-1.1,0-2.1-0.2-3-0.6
		c-0.9-0.4-1.6-0.9-2.1-1.7c-0.5-0.7-0.7-1.5-0.7-2.4h1.3c0,1.1,0.4,2,1.2,2.6c0.8,0.6,1.9,1,3.3,1c1.2,0,2.2-0.3,2.9-0.8
		C80.7,257,81.1,256.3,81.1,255.4z"/>
	<path class="st0" d="M93.5,255l0.5,2.4l0.6-2.3l3.4-11.5h1.2l3.4,11.5l0.6,2.3l0.5-2.4l2.8-11.4h1.4l-4,15.6h-1.3L98.9,247
		l-0.4-1.5l-0.4,1.5l-3.6,12.2h-1.3l-4-15.6h1.4L93.5,255z"/>
	<path class="st0" d="M111.9,259.2h-1.3v-15.6h1.3V259.2z"/>
	<path class="st0" d="M126.5,244.7h-5.4v14.5h-1.3v-14.5h-5.3v-1.1h12V244.7z"/>
	<path class="st0" d="M140.6,259.2h-1.3v-7.5h-8.9v7.5H129v-15.6h1.3v7h8.9v-7h1.3V259.2z"/>
	<path class="st0" d="M156.1,252.3c0,1.4-0.2,2.7-0.7,3.8s-1.2,1.9-2.1,2.5s-2,0.9-3.2,0.9c-1.8,0-3.3-0.7-4.4-2
		c-1.1-1.3-1.7-3.1-1.7-5.3v-1.6c0-1.4,0.3-2.7,0.8-3.8c0.5-1.1,1.2-1.9,2.1-2.5c0.9-0.6,2-0.9,3.2-0.9s2.3,0.3,3.2,0.9
		s1.6,1.4,2.1,2.5c0.5,1.1,0.8,2.3,0.8,3.7V252.3z M154.8,250.6c0-1.9-0.4-3.4-1.3-4.4c-0.9-1.1-2-1.6-3.5-1.6
		c-1.5,0-2.6,0.5-3.5,1.6c-0.9,1.1-1.3,2.6-1.3,4.5v1.6c0,1.9,0.4,3.3,1.3,4.4c0.9,1.1,2,1.6,3.5,1.6c1.5,0,2.7-0.5,3.5-1.6
		c0.8-1.1,1.3-2.6,1.3-4.5V250.6z"/>
	<path class="st0" d="M170.2,243.6v10.7c0,1.1-0.2,2-0.7,2.8c-0.5,0.8-1.1,1.4-1.9,1.8c-0.8,0.4-1.8,0.6-2.9,0.6c-1.6,0-3-0.4-4-1.3
		c-1-0.9-1.5-2.1-1.5-3.7v-10.8h1.3v10.6c0,1.3,0.4,2.3,1.1,3.1c0.8,0.7,1.8,1.1,3.1,1.1s2.3-0.4,3.1-1.1s1.1-1.7,1.1-3.1v-10.6
		H170.2z"/>
	<path class="st0" d="M184.5,244.7h-5.4v14.5h-1.3v-14.5h-5.3v-1.1h12V244.7z"/>
	<path class="st0" d="M193.3,258.1h7.7v1.1H192v-15.6h1.3V258.1z"/>
	<path class="st0" d="M211.2,244.7h-5.4v14.5h-1.3v-14.5h-5.3v-1.1h12V244.7z"/>
	<path class="st0" d="M215.3,259.2H214v-15.6h1.3V259.2z"/>
</g>
<path id="XMLID_81_" class="st0" d="M-24.4,205.8c0,0,3.6-0.1,9.8-0.3c6.2-0.2,15.1-0.6,25.8-0.8c10.7-0.2,23.1-0.6,36.4-0.6
	c13.3-0.1,27.5-0.2,41.8-0.3c14.2,0.1,28.4,0.2,41.8,0.3c13.3,0.1,25.8,0.5,36.4,0.6c10.7,0.2,19.5,0.6,25.8,0.8
	c6.2,0.2,9.8,0.3,9.8,0.3v0.2H-24.4V205.8z"/>
<path id="XMLID_80_" class="st0" d="M214.8,277.5c0,0-3.9,0.1-10.8,0.4c-6.9,0.2-16.7,0.7-28.4,0.9c-11.8,0.2-25.5,0.6-40.2,0.7
	c-14.7,0.1-30.4,0.2-46.1,0.3c-15.7-0.1-31.4-0.2-46.1-0.3c-14.7-0.1-28.4-0.5-40.2-0.7s-21.6-0.7-28.4-0.9
	c-6.9-0.2-10.8-0.4-10.8-0.4v-0.3h251L214.8,277.5L214.8,277.5z"/>
<g class="st1">
	<path class="st0" d="M24.6,339.8v-15.6h4.6c1.7,0,2.9,0.3,3.8,1c0.9,0.7,1.3,1.7,1.3,3.1c0,0.8-0.2,1.5-0.7,2.1
		c-0.4,0.6-1,1-1.8,1.3c0.9,0.2,1.6,0.6,2.2,1.3c0.6,0.7,0.8,1.5,0.8,2.4c0,1.4-0.4,2.5-1.3,3.2s-2.1,1.2-3.7,1.2H24.6z M25.9,331.2
		h3.6c1.1,0,2-0.3,2.6-0.8c0.6-0.5,0.9-1.2,0.9-2.2c0-1-0.3-1.7-0.9-2.2c-0.6-0.5-1.6-0.7-2.8-0.7h-3.3V331.2z M25.9,332.3v6.4h4
		c1.1,0,2-0.3,2.7-0.9c0.7-0.6,1-1.4,1-2.4c0-1-0.3-1.7-1-2.3s-1.5-0.8-2.6-0.8H25.9z"/>
	<path class="st0" d="M39.4,333.4v6.4h-1.3v-15.6h5.3c1.6,0,2.9,0.4,3.9,1.2c0.9,0.8,1.4,2,1.4,3.4c0,1.5-0.5,2.6-1.4,3.4
		c-0.9,0.8-2.2,1.2-3.9,1.2H39.4z M39.4,332.3h4c1.3,0,2.3-0.3,2.9-0.9c0.7-0.6,1-1.5,1-2.5c0-1.1-0.3-1.9-1-2.6
		c-0.7-0.6-1.6-1-2.9-1h-4.1V332.3z"/>
	<path class="st0" d="M65.4,335.4h-7.1l-1.6,4.4h-1.4l5.9-15.6h1.3l5.9,15.6H67L65.4,335.4z M58.7,334.3H65l-3.1-8.5L58.7,334.3z"/>
	<path class="st0" d="M71.4,338.7h7.6v1.1h-9.1v-0.9l7-9.6H70v-1.1h8.5v1L71.4,338.7z"/>
	<path class="st0" d="M85.5,340c-1,0-1.9-0.2-2.7-0.7c-0.8-0.5-1.4-1.2-1.9-2c-0.4-0.9-0.7-1.8-0.7-2.9v-0.5c0-1.1,0.2-2.1,0.6-3
		c0.4-0.9,1-1.6,1.8-2.1c0.8-0.5,1.6-0.8,2.5-0.8c1.4,0,2.5,0.5,3.4,1.4c0.8,1,1.2,2.3,1.2,3.9v0.7h-8.3v0.2c0,1.3,0.4,2.4,1.1,3.3
		c0.8,0.9,1.7,1.3,2.9,1.3c0.7,0,1.3-0.1,1.8-0.4s1-0.7,1.4-1.2l0.8,0.6C88.7,339.3,87.3,340,85.5,340z M85.3,329
		c-1,0-1.8,0.4-2.4,1.1c-0.7,0.7-1.1,1.7-1.2,2.9h7v-0.1c0-1.1-0.4-2-1-2.7S86.3,329,85.3,329z"/>
	<path class="st0" d="M97.8,329.3c-0.3,0-0.6-0.1-0.9-0.1c-0.8,0-1.5,0.2-2,0.7c-0.6,0.4-1,1.1-1.2,2v8h-1.3v-11.6h1.3l0,1.8
		c0.7-1.4,1.8-2.1,3.3-2.1c0.4,0,0.6,0,0.8,0.1L97.8,329.3z"/>
	<path class="st0" d="M109.2,334.1c0,1.8-0.4,3.2-1.2,4.3c-0.8,1.1-1.9,1.6-3.2,1.6c-1.6,0-2.8-0.6-3.7-1.8l-0.1,1.6h-1.2v-16.5h1.3
		v6.6c0.8-1.3,2-1.9,3.6-1.9c1.4,0,2.5,0.5,3.3,1.6c0.8,1,1.2,2.5,1.2,4.4V334.1z M107.9,333.9c0-1.5-0.3-2.7-0.9-3.5
		c-0.6-0.8-1.4-1.3-2.5-1.3c-0.8,0-1.5,0.2-2.1,0.6c-0.6,0.4-1,1-1.3,1.8v5.2c0.6,1.5,1.8,2.2,3.4,2.2c1.1,0,1.9-0.4,2.5-1.3
		S107.9,335.5,107.9,333.9z"/>
	<path class="st0" d="M119.3,339.8c-0.1-0.4-0.2-0.9-0.2-1.6c-0.5,0.6-1,1-1.7,1.4c-0.7,0.3-1.4,0.5-2.2,0.5c-1.1,0-2-0.3-2.7-0.9
		s-1-1.4-1-2.4c0-1.1,0.5-2,1.4-2.7s2.3-1,3.9-1h2.3v-1.3c0-0.8-0.3-1.5-0.8-2c-0.5-0.5-1.3-0.7-2.2-0.7c-0.9,0-1.6,0.2-2.2,0.7
		c-0.6,0.5-0.9,1-0.9,1.7l-1.3,0c0-0.9,0.4-1.7,1.3-2.4c0.9-0.7,1.9-1,3.2-1c1.3,0,2.3,0.3,3.1,1c0.7,0.6,1.1,1.6,1.2,2.7v5.5
		c0,1.1,0.1,2,0.4,2.5v0.1H119.3z M115.3,338.9c0.9,0,1.6-0.2,2.3-0.6s1.2-1,1.5-1.7V334h-2.3c-1.3,0-2.3,0.2-3,0.7
		c-0.7,0.5-1.1,1.1-1.1,1.9c0,0.7,0.2,1.2,0.7,1.6S114.5,338.9,115.3,338.9z"/>
	<path class="st0" d="M123.7,324.8c0-0.2,0.1-0.4,0.2-0.6c0.2-0.2,0.4-0.3,0.6-0.3c0.3,0,0.5,0.1,0.6,0.3s0.2,0.4,0.2,0.6
		c0,0.2-0.1,0.4-0.2,0.6c-0.2,0.2-0.4,0.2-0.6,0.2c-0.3,0-0.5-0.1-0.6-0.2C123.8,325.2,123.7,325,123.7,324.8z M125.2,339.8h-1.3
		v-11.6h1.3V339.8z"/>
	<path class="st0" d="M130.1,328.2v13c0,1.1-0.3,1.9-0.8,2.5s-1.3,0.8-2.3,0.8c-0.4,0-0.8-0.1-1.1-0.2l0-1.1c0.3,0.1,0.6,0.1,1,0.1
		c1.3,0,1.9-0.7,1.9-2.2v-13H130.1z M129.5,323.9c0.3,0,0.5,0.1,0.7,0.3c0.2,0.2,0.2,0.4,0.2,0.6c0,0.2-0.1,0.4-0.2,0.6
		c-0.2,0.2-0.4,0.2-0.7,0.2c-0.3,0-0.5-0.1-0.6-0.2c-0.2-0.2-0.2-0.4-0.2-0.6c0-0.2,0.1-0.4,0.2-0.6S129.2,323.9,129.5,323.9z"/>
	<path class="st0" d="M141.1,339.8c-0.1-0.4-0.2-0.9-0.2-1.6c-0.5,0.6-1,1-1.7,1.4c-0.7,0.3-1.4,0.5-2.2,0.5c-1.1,0-2-0.3-2.7-0.9
		s-1-1.4-1-2.4c0-1.1,0.5-2,1.4-2.7s2.3-1,3.9-1h2.3v-1.3c0-0.8-0.3-1.5-0.8-2c-0.5-0.5-1.3-0.7-2.2-0.7c-0.9,0-1.6,0.2-2.2,0.7
		c-0.6,0.5-0.9,1-0.9,1.7l-1.3,0c0-0.9,0.4-1.7,1.3-2.4c0.9-0.7,1.9-1,3.2-1c1.3,0,2.3,0.3,3.1,1c0.7,0.6,1.1,1.6,1.2,2.7v5.5
		c0,1.1,0.1,2,0.4,2.5v0.1H141.1z M137,338.9c0.9,0,1.6-0.2,2.3-0.6s1.2-1,1.5-1.7V334h-2.3c-1.3,0-2.3,0.2-3,0.7
		c-0.7,0.5-1.1,1.1-1.1,1.9c0,0.7,0.2,1.2,0.7,1.6S136.3,338.9,137,338.9z"/>
	<path class="st0" d="M146.7,328.2l0,2c0.4-0.7,1-1.3,1.6-1.6c0.7-0.4,1.4-0.6,2.2-0.6c1.2,0,2.2,0.4,2.8,1.1
		c0.6,0.7,0.9,1.8,0.9,3.2v7.6H153v-7.6c0-1-0.2-1.8-0.7-2.3s-1.1-0.8-2.1-0.8c-0.8,0-1.5,0.2-2.1,0.7c-0.6,0.5-1.1,1.2-1.4,2v8
		h-1.3v-11.6H146.7z"/>
</g>
<g class="st1">
	<path class="st0" d="M-12.2,313.9v-15.6h4.6c1.7,0,2.9,0.3,3.8,1c0.9,0.7,1.3,1.7,1.3,3.1c0,0.8-0.2,1.5-0.7,2.1
		c-0.4,0.6-1,1-1.8,1.3c0.9,0.2,1.6,0.6,2.2,1.3c0.6,0.7,0.8,1.5,0.8,2.4c0,1.4-0.4,2.5-1.3,3.2s-2.1,1.2-3.7,1.2H-12.2z
		 M-10.9,305.3h3.6c1.1,0,2-0.3,2.6-0.8c0.6-0.5,0.9-1.2,0.9-2.2c0-1-0.3-1.7-0.9-2.2c-0.6-0.5-1.6-0.7-2.8-0.7h-3.3V305.3z
		 M-10.9,306.4v6.4h4c1.1,0,2-0.3,2.7-0.9c0.7-0.6,1-1.4,1-2.4c0-1-0.3-1.7-1-2.3s-1.5-0.8-2.6-0.8H-10.9z"/>
	<path class="st0" d="M9.7,309.5H2.6L1,313.9h-1.4l5.9-15.6h1.3l5.9,15.6h-1.4L9.7,309.5z M3,308.4h6.3l-3.1-8.5L3,308.4z"/>
	<path class="st0" d="M18.5,306.1l-2.2,2.2v5.6H15v-15.6h1.3v8.4l8-8.4H26l-6.6,7l7.1,8.7h-1.6L18.5,306.1z"/>
	<path class="st0" d="M39.6,298.3v10.7c0,1.1-0.2,2-0.7,2.8c-0.5,0.8-1.1,1.4-1.9,1.8c-0.8,0.4-1.8,0.6-2.9,0.6c-1.6,0-3-0.4-4-1.3
		c-1-0.9-1.5-2.1-1.5-3.7v-10.8h1.3v10.6c0,1.3,0.4,2.3,1.1,3.1c0.8,0.7,1.8,1.1,3.1,1.1s2.3-0.4,3.1-1.1c0.7-0.7,1.1-1.7,1.1-3.1
		v-10.6H39.6z"/>
	<path class="st0" d="M57.5,310.1c0-0.9-0.3-1.6-0.9-2.1c-0.6-0.5-1.7-1-3.3-1.4c-1.6-0.5-2.8-1-3.5-1.5c-1.1-0.8-1.6-1.8-1.6-3
		c0-1.2,0.5-2.2,1.5-2.9c1-0.7,2.2-1.1,3.8-1.1c1,0,2,0.2,2.8,0.6c0.8,0.4,1.5,1,1.9,1.7s0.7,1.5,0.7,2.4h-1.3
		c0-1.1-0.4-1.9-1.1-2.6c-0.7-0.7-1.7-1-2.9-1c-1.2,0-2.1,0.3-2.9,0.8s-1.1,1.2-1.1,2.1c0,0.8,0.3,1.4,1,1.9
		c0.6,0.5,1.7,0.9,3.1,1.3c1.4,0.4,2.5,0.8,3.2,1.2c0.7,0.4,1.3,0.9,1.6,1.5s0.5,1.2,0.5,2c0,1.2-0.5,2.2-1.5,3
		c-1,0.7-2.3,1.1-3.9,1.1c-1.1,0-2.1-0.2-3-0.6c-0.9-0.4-1.6-0.9-2.1-1.7c-0.5-0.7-0.7-1.5-0.7-2.4H49c0,1.1,0.4,2,1.2,2.6
		c0.8,0.6,1.9,1,3.3,1c1.2,0,2.2-0.3,2.9-0.8C57.1,311.7,57.5,311,57.5,310.1z"/>
	<path class="st0" d="M73.3,313.9H72v-7.5H63v7.5h-1.3v-15.6H63v7H72v-7h1.3V313.9z"/>
	<path class="st0" d="M78.9,313.9h-1.3v-15.6h1.3V313.9z"/>
	<path class="st0" d="M84.4,307.5v6.4h-1.3v-15.6h5.3c1.6,0,2.9,0.4,3.9,1.2c0.9,0.8,1.4,2,1.4,3.4c0,1.5-0.5,2.6-1.4,3.4
		c-0.9,0.8-2.2,1.2-3.9,1.2H84.4z M84.4,306.4h4c1.3,0,2.3-0.3,2.9-0.9c0.7-0.6,1-1.5,1-2.5c0-1.1-0.3-1.9-1-2.6
		c-0.7-0.6-1.6-1-2.9-1h-4.1V306.4z"/>
	<path class="st0" d="M101.2,306.8l4.8-8.5h1.5l-5.7,9.8v5.9h-1.3V308l-5.6-9.8h1.6L101.2,306.8z"/>
	<path class="st0" d="M117.3,309.5h-7.1l-1.6,4.4h-1.4l5.9-15.6h1.3l5.9,15.6h-1.4L117.3,309.5z M110.6,308.4h6.3l-3.1-8.5
		L110.6,308.4z"/>
	<path class="st0" d="M128.4,307.4h-4.5v6.5h-1.3v-15.6h5.1c1.7,0,3,0.4,3.9,1.2c0.9,0.8,1.4,1.9,1.4,3.4c0,1-0.3,1.9-0.9,2.6
		s-1.4,1.3-2.4,1.6l3.9,6.7v0.1h-1.4L128.4,307.4z M123.9,306.3h4c1.1,0,2-0.3,2.7-0.9c0.7-0.6,1-1.4,1-2.5c0-1.1-0.4-2-1.1-2.6
		c-0.7-0.6-1.7-0.9-3-0.9h-3.7V306.3z"/>
	<path class="st0" d="M136.5,313.9v-15.6h4.4c1.3,0,2.4,0.3,3.4,0.9c1,0.6,1.8,1.4,2.4,2.5s0.9,2.3,0.9,3.7v1.4
		c0,1.4-0.3,2.6-0.8,3.7s-1.4,1.9-2.4,2.5c-1,0.6-2.2,0.9-3.5,0.9H136.5z M137.8,299.4v13.4h3c1.6,0,3-0.5,4-1.6s1.5-2.6,1.5-4.4
		v-1.4c0-1.8-0.5-3.2-1.5-4.3c-1-1.1-2.3-1.6-3.9-1.6H137.8z"/>
	<path class="st0" d="M157.6,312.8h7.7v1.1h-9.1v-15.6h1.3V312.8z"/>
	<path class="st0" d="M169.2,312.8h7.7v1.1h-9.1v-15.6h1.3V312.8z"/>
	<path class="st0" d="M189.8,309c-0.2,1.6-0.8,2.9-1.8,3.8s-2.3,1.3-4,1.3c-1.2,0-2.2-0.3-3.1-0.9s-1.6-1.4-2.1-2.5
		c-0.5-1.1-0.7-2.3-0.7-3.6v-2c0-1.4,0.2-2.6,0.7-3.7s1.2-1.9,2.1-2.5c0.9-0.6,2-0.9,3.2-0.9c1.7,0,3,0.5,4,1.4
		c1,0.9,1.5,2.2,1.7,3.7h-1.3c-0.3-2.7-1.8-4-4.3-4c-1.4,0-2.5,0.5-3.4,1.6c-0.8,1.1-1.3,2.5-1.3,4.4v1.9c0,1.8,0.4,3.2,1.2,4.3
		c0.8,1.1,1.9,1.6,3.3,1.6c1.4,0,2.4-0.3,3.1-1c0.7-0.7,1.1-1.7,1.3-3H189.8z"/>
</g>
<g class="st1">
	<path class="st0" d="M67.6,397.4v-1.5l5.1-5.7c0.9-1,1.5-1.8,1.9-2.4c0.3-0.6,0.5-1.2,0.5-1.8c0-0.8-0.2-1.4-0.7-2
		c-0.5-0.5-1.1-0.8-1.8-0.8c-1.1,0-1.9,0.3-2.4,0.8c-0.5,0.6-0.8,1.3-0.8,2.3h-2l0-0.1c0-1.3,0.4-2.5,1.3-3.4
		c0.9-0.9,2.2-1.4,3.9-1.4c1.4,0,2.5,0.4,3.4,1.2c0.8,0.8,1.3,1.9,1.3,3.1c0,0.9-0.3,1.7-0.8,2.6s-1.2,1.8-2.1,2.8l-4.1,4.5l0,0.1
		h5.6l0.2-1.8h1.8v3.4H67.6z"/>
	<path class="st0" d="M90,391.4c0,2-0.4,3.5-1.3,4.6c-0.9,1.1-2.1,1.6-3.6,1.6c-1.5,0-2.7-0.5-3.6-1.6c-0.9-1.1-1.3-2.6-1.3-4.6
		v-3.7c0-2,0.4-3.5,1.3-4.6c0.9-1.1,2.1-1.6,3.6-1.6c1.5,0,2.8,0.5,3.7,1.6c0.9,1.1,1.3,2.6,1.3,4.6V391.4z M87.9,387.3
		c0-1.4-0.2-2.4-0.7-3.1c-0.5-0.7-1.2-1-2.1-1c-0.9,0-1.6,0.3-2.1,1c-0.5,0.7-0.7,1.7-0.7,3.1v4.6c0,1.4,0.2,2.4,0.7,3.1
		c0.5,0.7,1.2,1,2.1,1c0.9,0,1.6-0.3,2.1-1s0.7-1.7,0.7-3.1V387.3z"/>
	<path class="st0" d="M92.6,396l2.4-0.3V384l-2.5,0v-1.3l4.6-1v14l2.4,0.3v1.4h-6.9V396z"/>
	<path class="st0" d="M109.2,384.8l-0.2-1.2h-4.7l-0.5,4.4c0.3-0.2,0.7-0.4,1.1-0.6c0.4-0.2,0.9-0.2,1.4-0.3c1.4,0,2.6,0.5,3.4,1.4
		s1.2,2.2,1.2,3.8c0,1.6-0.4,2.8-1.3,3.8c-0.8,1-2.1,1.4-3.7,1.4c-1.3,0-2.4-0.4-3.3-1.1c-0.9-0.7-1.3-1.8-1.3-3.2l0-0.1h1.9
		c0,0.8,0.2,1.5,0.7,2c0.5,0.5,1.1,0.7,1.9,0.7c0.9,0,1.6-0.3,2.1-0.9s0.7-1.5,0.7-2.6c0-1-0.2-1.8-0.7-2.5c-0.5-0.6-1.2-1-2.1-1
		c-0.8,0-1.4,0.1-1.8,0.4s-0.7,0.6-0.8,1.1l-1.8-0.2l0.9-8.6h8.3v3.1H109.2z"/>
</g>
</svg>
