<?xml version="1.0" encoding="utf-8"?>
<!-- Generator: Adobe Illustrator 19.0.0, SVG Export Plug-In . SVG Version: 6.00 Build 0)  -->
<svg version="1.1" id="Layer_1" xmlns="http://www.w3.org/2000/svg" xmlns:xlink="http://www.w3.org/1999/xlink" x="0px" y="0px"
	 viewBox="0 0 338.6 338.6" style="enable-background:new 0 0 338.6 338.6;" xml:space="preserve">
<style type="text/css">
	.st0{fill-rule:evenodd;clip-rule:evenodd;fill:#FFFFFF;}
	.st1{fill:#FFFFFF;}
	.st2{font-family:'RobotoSlab-Regular';}
	.st3{font-size:48px;}
	.st4{font-family:'Roboto-Light';}
	.st5{font-size:22px;}
</style>
<g id="XMLID_77_">
	<g id="XMLID_116_">
		<path id="XMLID_75_" class="st0" d="M264.3,33.9c-5.4,0.4-10.7,0.9-16.1,1.3c4.1,2.7,8.2,5.4,12.2,8.2c5.4-0.4,10.7-0.9,16.1-1.3
			C272.5,39.3,268.4,36.6,264.3,33.9L264.3,33.9z"/>
		<path id="XMLID_74_" class="st0" d="M265.2,32.6c-1.7-5.1-3.3-10.2-5-15.3c4.1,2.7,8.2,5.4,12.2,8.2c1.7,5.1,3.3,10.2,5,15.3
			C273.4,38,269.3,35.3,265.2,32.6L265.2,32.6z"/>
		<path id="XMLID_73_" class="st0" d="M279.4,46.7c-5.4-0.3-10.7-0.7-16.1-1c3.7,3.3,7.3,6.6,11,9.8c5.4,0.3,10.7,0.7,16.1,1
			C286.7,53.2,283.1,50,279.4,46.7L279.4,46.7z"/>
		<path id="XMLID_72_" class="st0" d="M280.5,45.5c-0.9-5.3-1.8-10.6-2.8-15.9c3.6,3.3,7.3,6.6,11,9.8c0.9,5.3,1.8,10.6,2.8,15.9
			C287.8,52,284.2,48.8,280.5,45.5L280.5,45.5z"/>
		<path id="XMLID_71_" class="st0" d="M292.8,61.3c-5.3-1.1-10.5-2.2-15.8-3.3c3.2,3.8,6.3,7.5,9.4,11.3c5.3,1.1,10.5,2.2,15.8,3.3
			C299.1,68.8,296,65,292.8,61.3L292.8,61.3z"/>
		<path id="XMLID_70_" class="st0" d="M294,60.2c-0.2-5.4-0.3-10.8-0.5-16.1c3.1,3.8,6.3,7.5,9.4,11.3c0.2,5.4,0.3,10.7,0.5,16.1
			C300.3,67.8,297.2,64,294,60.2L294,60.2z"/>
		<path id="XMLID_69_" class="st0" d="M304.3,77.4c-5-1.9-10.1-3.7-15.1-5.6c2.6,4.2,5.1,8.4,7.7,12.5c5.1,1.9,10.1,3.7,15.1,5.6
			C309.4,85.7,306.9,81.6,304.3,77.4L304.3,77.4z"/>
		<path id="XMLID_68_" class="st0" d="M305.6,76.6c0.6-5.3,1.3-10.7,1.9-16c2.6,4.2,5.1,8.4,7.7,12.5c-0.6,5.3-1.2,10.7-1.9,16
			C310.8,84.9,308.2,80.7,305.6,76.6L305.6,76.6z"/>
		<path id="XMLID_67_" class="st0" d="M313.5,94.8c-4.8-2.3-9.7-4.7-14.5-7c2.2,4.4,4.3,8.8,6.5,13.2c4.8,2.3,9.7,4.7,14.5,7
			C317.8,103.6,315.6,99.2,313.5,94.8L313.5,94.8z"/>
		<path id="XMLID_66_" class="st0" d="M314.9,94.1c1.1-5.3,2.3-10.5,3.4-15.8c2.2,4.4,4.3,8.8,6.5,13.2c-1.1,5.3-2.3,10.5-3.4,15.8
			C319.2,103,317,98.5,314.9,94.1L314.9,94.1z"/>
		<path id="XMLID_65_" class="st0" d="M320.4,113.4c-4.4-3-8.9-6-13.3-9.1c1.5,4.7,3,9.4,4.4,14c4.4,3,8.9,6,13.3,9.1
			C323.4,122.7,321.9,118.1,320.4,113.4L320.4,113.4z"/>
		<path id="XMLID_64_" class="st0" d="M321.9,112.9c1.9-5,3.8-10.1,5.7-15.1c1.5,4.7,3,9.4,4.4,14c-1.9,5-3.8,10.1-5.7,15.1
			C324.9,122.3,323.4,117.6,321.9,112.9L321.9,112.9z"/>
		<path id="XMLID_63_" class="st0" d="M324.9,132.6c-4.1-3.5-8.2-6.9-12.4-10.4c1,4.8,2,9.6,3,14.4c4.1,3.5,8.2,6.9,12.4,10.4
			C326.9,142.2,325.9,137.4,324.9,132.6L324.9,132.6z"/>
		<path id="XMLID_62_" class="st0" d="M326.5,132.3c2.4-4.8,4.8-9.6,7.2-14.4c1,4.8,2,9.6,3,14.4c-2.4,4.8-4.8,9.6-7.2,14.4
			C328.5,141.8,327.5,137,326.5,132.3L326.5,132.3z"/>
		<path id="XMLID_61_" class="st0" d="M326.9,152.3c-3.6-4-7.1-8.1-10.7-12.1c0.3,4.9,0.5,9.8,0.8,14.7c3.6,4,7.1,8.1,10.7,12.1
			C327.4,162.1,327.2,157.2,326.9,152.3L326.9,152.3z"/>
		<path id="XMLID_60_" class="st0" d="M328.5,152.2c3.1-4.4,6.2-8.8,9.3-13.2c0.3,4.9,0.5,9.8,0.8,14.7c-3.1,4.4-6.2,8.8-9.3,13.2
			C329,162,328.7,157.1,328.5,152.2L328.5,152.2z"/>
		<path id="XMLID_59_" class="st0" d="M326.4,172c-3.1-4.4-6.2-8.8-9.4-13.1c-0.2,4.9-0.5,9.8-0.7,14.7c3.1,4.4,6.2,8.8,9.4,13.1
			C325.9,181.8,326.2,176.9,326.4,172L326.4,172z"/>
		<path id="XMLID_58_" class="st0" d="M328,172.1c3.5-4.1,7.1-8.1,10.6-12.2c-0.2,4.9-0.5,9.8-0.7,14.7c-3.5,4.1-7,8.1-10.6,12.2
			C327.5,181.9,327.7,177,328,172.1L328,172.1z"/>
		<path id="XMLID_57_" class="st0" d="M323.4,191.6c-2.4-4.8-4.9-9.6-7.3-14.4c-1,4.8-1.9,9.6-2.9,14.4c2.4,4.8,4.9,9.6,7.3,14.4
			C321.4,201.2,322.4,196.4,323.4,191.6L323.4,191.6z"/>
		<path id="XMLID_56_" class="st0" d="M324.9,191.9c4.1-3.5,8.2-7,12.3-10.5c-1,4.8-1.9,9.6-2.9,14.4c-4.1,3.5-8.2,7-12.3,10.5
			C323,201.5,323.9,196.7,324.9,191.9L324.9,191.9z"/>
		<path id="XMLID_55_" class="st0" d="M317.9,210.6c-1.7-5.1-3.4-10.2-5.1-15.3c-1.7,4.6-3.3,9.2-5,13.8c1.7,5.1,3.4,10.2,5.1,15.3
			C314.5,219.8,316.2,215.2,317.9,210.6L317.9,210.6z"/>
		<path id="XMLID_54_" class="st0" d="M319.4,211.1c4.6-2.8,9.1-5.7,13.7-8.5c-1.7,4.6-3.3,9.2-5,13.8c-4.6,2.8-9.1,5.7-13.7,8.5
			C316,220.4,317.7,215.7,319.4,211.1L319.4,211.1z"/>
		<path id="XMLID_53_" class="st0" d="M310,228.6c-1.2-5.3-2.4-10.5-3.5-15.8c-2.1,4.4-4.2,8.9-6.3,13.3c1.2,5.3,2.4,10.5,3.5,15.8
			C305.7,237.5,307.8,233.1,310,228.6L310,228.6z"/>
		<path id="XMLID_52_" class="st0" d="M311.4,229.3c4.8-2.4,9.6-4.7,14.5-7.1c-2.1,4.4-4.2,8.8-6.4,13.3c-4.8,2.4-9.7,4.7-14.5,7.1
			C307.2,238.2,309.3,233.8,311.4,229.3L311.4,229.3z"/>
		<path id="XMLID_51_" class="st0" d="M299.8,245.6c-0.4-5.4-0.8-10.7-1.2-16.1c-2.7,4.1-5.5,8.2-8.2,12.2
			c0.4,5.4,0.8,10.7,1.2,16.1C294.3,253.8,297,249.7,299.8,245.6L299.8,245.6z"/>
		<path id="XMLID_50_" class="st0" d="M300.7,247c5.1-1.6,10.3-3.3,15.4-4.9c-2.7,4.1-5.5,8.1-8.3,12.2c-5.1,1.6-10.2,3.3-15.4,4.9
			C295.2,255.2,298,251.1,300.7,247L300.7,247z"/>
		<path id="XMLID_49_" class="st0" d="M287.2,261.6c0.1-5.4,0.3-10.8,0.4-16.1c-3.1,3.8-6.3,7.6-9.4,11.3
			c-0.1,5.4-0.3,10.8-0.4,16.1C280.9,269.1,284.1,265.4,287.2,261.6L287.2,261.6z"/>
		<path id="XMLID_48_" class="st0" d="M288.4,262.6c5.2-1.1,10.5-2.3,15.8-3.4c-3.1,3.8-6.3,7.6-9.4,11.3
			c-5.2,1.1-10.5,2.2-15.8,3.4C282.1,270.2,285.3,266.4,288.4,262.6L288.4,262.6z"/>
		<path id="XMLID_47_" class="st0" d="M273,275.4c0.9-5.3,1.8-10.6,2.7-15.9c-3.6,3.3-7.3,6.6-10.9,9.9c-0.9,5.3-1.8,10.6-2.7,15.9
			C265.7,281.9,269.3,278.7,273,275.4L273,275.4z"/>
		<path id="XMLID_46_" class="st0" d="M274,276.5c5.4-0.4,10.7-0.7,16.1-1.1c-3.6,3.3-7.3,6.6-10.9,9.9c-5.4,0.4-10.7,0.7-16.1,1.1
			C266.8,283.1,270.4,279.8,274,276.5L274,276.5z"/>
		<path id="XMLID_45_" class="st0" d="M257.1,287.2c1.6-5.1,3.3-10.2,4.9-15.4c-4.1,2.7-8.1,5.5-12.2,8.2
			c-1.6,5.1-3.3,10.2-4.9,15.4C249,292.7,253.1,290,257.1,287.2L257.1,287.2z"/>
		<path id="XMLID_44_" class="st0" d="M258,288.5c5.4,0.4,10.7,0.8,16.1,1.2c-4.1,2.7-8.1,5.5-12.2,8.2c-5.4-0.4-10.7-0.8-16.1-1.2
			C249.9,294,254,291.3,258,288.5L258,288.5z"/>
		<path id="XMLID_43_" class="st0" d="M240,297c2.1-4.9,4.3-9.9,6.4-14.8c-4.3,2.3-8.6,4.7-12.9,7c-2.1,4.9-4.3,9.9-6.4,14.8
			C231.4,301.6,235.7,299.3,240,297L240,297z"/>
		<path id="XMLID_42_" class="st0" d="M240.8,298.4c5.3,0.9,10.6,1.8,15.9,2.8c-4.3,2.3-8.6,4.7-13,7c-5.3-0.9-10.6-1.9-15.9-2.8
			C232.1,303,236.5,300.7,240.8,298.4L240.8,298.4z"/>
		<path id="XMLID_41_" class="st0" d="M221.7,304.4c2.8-4.6,5.7-9.1,8.5-13.7c-4.6,1.7-9.2,3.3-13.8,5c-2.8,4.6-5.7,9.1-8.5,13.7
			C212.4,307.7,217.1,306.1,221.7,304.4L221.7,304.4z"/>
		<path id="XMLID_40_" class="st0" d="M222.2,305.9c5.1,1.7,10.2,3.4,15.3,5.1c-4.6,1.7-9.2,3.3-13.8,5c-5.1-1.7-10.2-3.4-15.3-5.1
			C213,309.2,217.6,307.6,222.2,305.9L222.2,305.9z"/>
		<polygon id="XMLID_39_" class="st0" points="247.8,28.7 236.9,16 253.2,19.8 264,32.5 247.8,28.7 		"/>
	</g>
	<g id="XMLID_78_">
		<path id="XMLID_38_" class="st0" d="M73.2,34.7c5.4,0.4,10.7,0.8,16.1,1.2c-4.1,2.8-8.1,5.5-12.2,8.3C71.8,43.8,66.4,43.4,61,43
			C65.1,40.2,69.2,37.5,73.2,34.7L73.2,34.7z"/>
		<path id="XMLID_37_" class="st0" d="M72.3,33.4c1.6-5.1,3.2-10.3,4.9-15.4c-4.1,2.7-8.1,5.5-12.2,8.3c-1.6,5.1-3.3,10.3-4.9,15.4
			C64.2,38.9,68.3,36.2,72.3,33.4L72.3,33.4z"/>
		<path id="XMLID_36_" class="st0" d="M58.2,47.6c5.4-0.4,10.7-0.8,16.1-1.2c-3.6,3.3-7.2,6.6-10.9,9.9c-5.4,0.4-10.7,0.8-16.1,1.2
			C51,54.2,54.6,50.9,58.2,47.6L58.2,47.6z"/>
		<path id="XMLID_35_" class="st0" d="M57.1,46.5c0.9-5.3,1.7-10.6,2.6-15.9c-3.6,3.3-7.2,6.6-10.9,9.9c-0.9,5.3-1.8,10.6-2.6,15.9
			C49.9,53.1,53.5,49.8,57.1,46.5L57.1,46.5z"/>
		<path id="XMLID_34_" class="st0" d="M44.9,62.3c5.3-1.2,10.5-2.3,15.7-3.5c-3.1,3.8-6.2,7.6-9.3,11.4c-5.2,1.1-10.5,2.3-15.8,3.4
			C38.7,69.9,41.8,66.1,44.9,62.3L44.9,62.3z"/>
		<path id="XMLID_33_" class="st0" d="M43.7,61.3c0.1-5.4,0.2-10.8,0.3-16.1c-3.1,3.8-6.2,7.6-9.3,11.4c-0.1,5.4-0.2,10.8-0.3,16.1
			C37.5,68.9,40.6,65.1,43.7,61.3L43.7,61.3z"/>
		<path id="XMLID_32_" class="st0" d="M33.6,78.5c5-1.9,10.1-3.8,15.1-5.7c-2.5,4.2-5.1,8.4-7.6,12.6c-5,1.9-10.1,3.8-15.1,5.7
			C28.5,86.9,31.1,82.7,33.6,78.5L33.6,78.5z"/>
		<path id="XMLID_31_" class="st0" d="M32.3,77.7c-0.7-5.3-1.3-10.7-2-16c-2.5,4.2-5.1,8.4-7.6,12.6c0.7,5.3,1.3,10.7,2,16
			C27.2,86.1,29.7,81.9,32.3,77.7L32.3,77.7z"/>
		<path id="XMLID_30_" class="st0" d="M24.6,96.1c4.8-2.4,9.7-4.8,14.5-7.1c-2.1,4.4-4.2,8.9-6.3,13.3c-4.8,2.4-9.6,4.7-14.5,7.1
			C20.4,104.9,22.5,100.5,24.6,96.1L24.6,96.1z"/>
		<path id="XMLID_29_" class="st0" d="M23.2,95.4c-1.2-5.3-2.4-10.5-3.6-15.7c-2.1,4.4-4.2,8.9-6.3,13.3c1.2,5.3,2.4,10.5,3.5,15.7
			C18.9,104.2,21,99.8,23.2,95.4L23.2,95.4z"/>
		<path id="XMLID_28_" class="st0" d="M17.8,114.7c4.4-3.1,8.9-6.1,13.3-9.2c-1.4,4.7-2.9,9.4-4.3,14.1c-4.4,3.1-8.8,6.1-13.3,9.2
			C14.9,124,16.4,119.4,17.8,114.7L17.8,114.7z"/>
		<path id="XMLID_27_" class="st0" d="M16.3,114.2c-1.9-5-3.9-10-5.8-15c-1.4,4.7-2.9,9.4-4.3,14.1c1.9,5,3.9,10,5.8,15
			C13.4,123.6,14.8,118.9,16.3,114.2L16.3,114.2z"/>
		<path id="XMLID_26_" class="st0" d="M13.5,133.9c4.1-3.5,8.2-7,12.3-10.5c-1,4.8-1.9,9.6-2.9,14.4c-4.1,3.5-8.2,7-12.3,10.5
			C11.5,143.5,12.5,138.7,13.5,133.9L13.5,133.9z"/>
		<path id="XMLID_25_" class="st0" d="M11.9,133.6c-2.4-4.8-4.9-9.6-7.3-14.4c-1,4.8-1.9,9.6-2.9,14.4c2.4,4.8,4.9,9.6,7.3,14.4
			C10,143.2,11,138.4,11.9,133.6L11.9,133.6z"/>
		<path id="XMLID_24_" class="st0" d="M11.7,153.6c3.5-4.1,7-8.1,10.6-12.2c-0.2,4.9-0.4,9.8-0.7,14.7c-3.5,4.1-7,8.1-10.5,12.2
			C11.2,163.4,11.4,158.5,11.7,153.6L11.7,153.6z"/>
		<path id="XMLID_23_" class="st0" d="M10.1,153.5c-3.1-4.4-6.3-8.7-9.4-13.1c-0.2,4.9-0.4,9.8-0.7,14.7c3.1,4.4,6.3,8.7,9.4,13.1
			C9.6,163.3,9.8,158.4,10.1,153.5L10.1,153.5z"/>
		<path id="XMLID_22_" class="st0" d="M12.3,173.3c3.1-4.4,6.2-8.8,9.3-13.2c0.3,4.9,0.6,9.8,0.8,14.7c-3.1,4.4-6.2,8.8-9.3,13.2
			C12.9,183.1,12.6,178.2,12.3,173.3L12.3,173.3z"/>
		<path id="XMLID_21_" class="st0" d="M10.7,173.4c-3.6-4-7.1-8.1-10.7-12.1c0.3,4.9,0.5,9.8,0.8,14.7c3.6,4,7.1,8.1,10.7,12.1
			C11.3,183.2,11,178.3,10.7,173.4L10.7,173.4z"/>
		<path id="XMLID_20_" class="st0" d="M15.5,192.9c2.4-4.8,4.8-9.6,7.2-14.5c1,4.8,2,9.6,3,14.4c-2.4,4.8-4.8,9.6-7.2,14.5
			C17.5,202.5,16.5,197.7,15.5,192.9L15.5,192.9z"/>
		<path id="XMLID_19_" class="st0" d="M14,193.2c-4.1-3.5-8.3-6.9-12.4-10.3c1,4.8,2,9.6,3,14.4c4.1,3.4,8.3,6.9,12.4,10.3
			C16,202.8,15,198,14,193.2L14,193.2z"/>
		<path id="XMLID_18_" class="st0" d="M21.2,211.9c1.6-5.1,3.3-10.2,4.9-15.4c1.7,4.6,3.4,9.2,5.1,13.8c-1.6,5.1-3.3,10.2-4.9,15.4
			C24.6,221.1,22.9,216.5,21.2,211.9L21.2,211.9z"/>
		<path id="XMLID_17_" class="st0" d="M19.7,212.4c-4.6-2.8-9.2-5.6-13.8-8.4c1.7,4.6,3.4,9.2,5.1,13.8c4.6,2.8,9.2,5.6,13.8,8.4
			C23.1,221.6,21.4,217,19.7,212.4L19.7,212.4z"/>
		<path id="XMLID_16_" class="st0" d="M29.2,229.8c1.1-5.3,2.3-10.5,3.4-15.8c2.2,4.4,4.3,8.8,6.5,13.2c-1.1,5.3-2.3,10.5-3.4,15.8
			C33.5,238.7,31.4,234.2,29.2,229.8L29.2,229.8z"/>
		<path id="XMLID_15_" class="st0" d="M27.8,230.5c-4.8-2.3-9.7-4.7-14.5-7c2.2,4.4,4.3,8.8,6.5,13.2c4.8,2.3,9.7,4.7,14.5,7
			C32.1,239.3,30,234.9,27.8,230.5L27.8,230.5z"/>
		<path id="XMLID_14_" class="st0" d="M39.6,246.7c0.4-5.4,0.7-10.7,1.1-16.1c2.8,4,5.5,8.1,8.3,12.1c-0.4,5.4-0.7,10.7-1.1,16.1
			C45.1,254.8,42.3,250.8,39.6,246.7L39.6,246.7z"/>
		<path id="XMLID_13_" class="st0" d="M37.9,247c-5.1-1.6-10.3-3.3-15.4-4.9c2.8,4.1,5.5,8.1,8.3,12.2c5.1,1.6,10.2,3.3,15.4,4.9
			C43.4,255.2,40.6,251.1,37.9,247L37.9,247z"/>
		<path id="XMLID_12_" class="st0" d="M51.4,261.6c-0.1-5.4-0.3-10.8-0.4-16.1c3.1,3.8,6.3,7.6,9.4,11.3c0.1,5.4,0.3,10.8,0.4,16.1
			C57.7,269.1,54.6,265.4,51.4,261.6L51.4,261.6z"/>
		<path id="XMLID_11_" class="st0" d="M50.2,262.6c-5.2-1.1-10.5-2.3-15.8-3.4c3.1,3.8,6.3,7.6,9.4,11.3c5.2,1.1,10.5,2.2,15.8,3.4
			C56.5,270.2,53.3,266.4,50.2,262.6L50.2,262.6z"/>
		<path id="XMLID_10_" class="st0" d="M65.7,275.4c-0.9-5.3-1.8-10.6-2.7-15.9c3.6,3.3,7.3,6.6,10.9,9.9c0.9,5.3,1.8,10.6,2.7,15.9
			C72.9,281.9,69.3,278.7,65.7,275.4L65.7,275.4z"/>
		<path id="XMLID_9_" class="st0" d="M64.6,276.5c-5.4-0.4-10.7-0.7-16.1-1.1c3.6,3.3,7.3,6.6,10.9,9.9c5.4,0.4,10.7,0.7,16.1,1.1
			C71.9,283.1,68.2,279.8,64.6,276.5L64.6,276.5z"/>
		<path id="XMLID_8_" class="st0" d="M81.5,287.2c-1.7-5.1-3.3-10.2-4.9-15.4c4.1,2.7,8.1,5.5,12.2,8.2c1.6,5.1,3.3,10.2,4.9,15.4
			C89.6,292.7,85.6,290,81.5,287.2L81.5,287.2z"/>
		<path id="XMLID_7_" class="st0" d="M80.6,288.5c-5.4,0.4-10.7,0.8-16.1,1.2c4.1,2.7,8.1,5.5,12.2,8.2c5.4-0.4,10.7-0.8,16.1-1.2
			C88.7,294,84.7,291.3,80.6,288.5L80.6,288.5z"/>
		<path id="XMLID_6_" class="st0" d="M98.6,297c-2.1-4.9-4.3-9.9-6.4-14.8c4.3,2.3,8.6,4.7,12.9,7c2.1,4.9,4.3,9.9,6.4,14.8
			C107.2,301.6,102.9,299.3,98.6,297L98.6,297z"/>
		<path id="XMLID_5_" class="st0" d="M97.9,298.4c-5.3,0.9-10.6,1.8-15.9,2.8c4.3,2.3,8.6,4.7,12.9,7c5.3-0.9,10.6-1.9,15.9-2.8
			C106.5,303,102.2,300.7,97.9,298.4L97.9,298.4z"/>
		<path id="XMLID_4_" class="st0" d="M117,304.4c-2.8-4.6-5.7-9.1-8.5-13.7c4.6,1.7,9.2,3.3,13.8,5c2.8,4.6,5.7,9.1,8.5,13.7
			C126.2,307.7,121.6,306.1,117,304.4L117,304.4z"/>
		<path id="XMLID_3_" class="st0" d="M116.4,305.9c-5.1,1.7-10.2,3.4-15.3,5.1c4.6,1.7,9.2,3.3,13.8,5c5.1-1.7,10.2-3.4,15.3-5.1
			C125.6,309.2,121,307.6,116.4,305.9L116.4,305.9z"/>
		<polygon id="XMLID_2_" class="st0" points="89.7,29.3 100.5,16.6 84.3,20.5 73.5,33.3 89.7,29.3 		"/>
	</g>
</g>
<text id="XMLID_76_" transform="matrix(1 0 0 1 74.8071 104.2991)" class="st1 st2 st3">SAFETY</text>
<text id="XMLID_79_" transform="matrix(1 0 0 1 51.0121 151.4363)"><tspan x="0" y="0" class="st1 st4 st5">CONTRIBUTION TO &gt;1M</tspan><tspan x="-13.6" y="26.4" class="st1 st4 st5">MAN HOURS WITHOUT LTI</tspan></text>
<path id="XMLID_81_" class="st1" d="M55.6,124.4c0,0,3.6-0.1,9.8-0.3c6.2-0.2,15.1-0.6,25.8-0.8c10.7-0.2,23.1-0.6,36.4-0.6
	c13.3-0.1,27.5-0.2,41.8-0.3c14.2,0.1,28.4,0.2,41.8,0.3c13.3,0.1,25.8,0.5,36.4,0.6c10.7,0.2,19.5,0.6,25.8,0.8
	c6.2,0.2,9.8,0.3,9.8,0.3v0.2H55.6V124.4z"/>
<path id="XMLID_80_" class="st1" d="M294.8,196.1c0,0-3.9,0.1-10.8,0.4c-6.9,0.2-16.7,0.7-28.4,0.9c-11.8,0.2-25.5,0.6-40.2,0.7
	c-14.7,0.1-30.4,0.2-46.1,0.3c-15.7-0.1-31.4-0.2-46.1-0.3c-14.7-0.1-28.4-0.5-40.2-0.7c-11.8-0.2-21.6-0.7-28.4-0.9
	c-6.9-0.2-10.8-0.4-10.8-0.4v-0.3h251V196.1z"/>
<text id="XMLID_82_" transform="matrix(1 0 0 1 102.5963 258.3842)" class="st1 st4 st5">BP Azerbaijan</text>
<text id="XMLID_83_" transform="matrix(1 0 0 1 65.7825 232.5095)" class="st1 st4 st5">BAKU SHIPYARD LLC</text>
<text id="XMLID_84_" transform="matrix(1 0 0 1 146.5959 315.9749)" class="st1 st2 st5">2015</text>
</svg>
