<?xml version="1.0" encoding="utf-8"?>
<!-- Generator: Adobe Illustrator 19.0.0, SVG Export Plug-In . SVG Version: 6.00 Build 0)  -->
<svg version="1.1" id="Layer_1" xmlns="http://www.w3.org/2000/svg" xmlns:xlink="http://www.w3.org/1999/xlink" x="0px" y="0px"
	 viewBox="0 0 297.3 232.2" style="enable-background:new 0 0 297.3 232.2;" xml:space="preserve">
<style type="text/css">
	.st0{fill:#1A76D2;stroke:#545454;stroke-width:6;stroke-miterlimit:10;}
	.st1{fill:#FFFFFF;stroke:#545454;stroke-width:6;stroke-miterlimit:10;}
	.st2{fill:#FF9802;stroke:#545454;stroke-width:6;stroke-miterlimit:10;}
</style>
<g>
	<polygon class="st0" points="261.3,178.1 292.9,199.4 286.1,164.1 265,149.8 229.6,156.7 81.9,57.1 75,21.8 53.9,7.6 18.6,14.4 
		50.2,35.8 36,56.9 4.3,35.5 11.2,70.9 32.3,85.1 67.6,78.2 215.4,177.8 222.3,213.2 243.4,227.4 278.7,220.5 247.1,199.2 	"/>
	<g>
		<polygon class="st1" points="238.1,17.4 225.6,42.7 84.4,148.7 99.7,169.1 240.9,63.1 269.2,58.7 293.1,23.9 277.8,3.6 		"/>
		
			<rect x="3.2" y="140.1" transform="matrix(-0.7998 0.6003 -0.6003 -0.7998 261.6482 231.1667)" class="st2" width="178.2" height="38.2"/>
	</g>
</g>
</svg>
