<?xml version="1.0" encoding="utf-8"?>
<!-- Generator: Adobe Illustrator 19.0.0, SVG Export Plug-In . SVG Version: 6.00 Build 0)  -->
<svg version="1.1" id="Layer_1" xmlns="http://www.w3.org/2000/svg" xmlns:xlink="http://www.w3.org/1999/xlink" x="0px" y="0px"
	 viewBox="0 0 246.2 238.5" style="enable-background:new 0 0 246.2 238.5;" xml:space="preserve">
<style type="text/css">
	.st0{fill:none;stroke:#545454;stroke-width:6;stroke-miterlimit:10;}
	.st1{fill:#EF5E5E;stroke:#545454;stroke-width:6;stroke-miterlimit:10;}
	.st2{fill:#08C5FF;stroke:#545454;stroke-width:6;stroke-miterlimit:10;}
	.st3{fill:#1A76D2;stroke:#545454;stroke-width:6;stroke-miterlimit:10;}
	.st4{fill:#FF9802;stroke:#545454;stroke-width:6;stroke-miterlimit:10;}
</style>
<g>
	<circle class="st0" cx="123.1" cy="119.6" r="111.8"/>
	<line class="st0" x1="123.1" y1="7.8" x2="123.1" y2="231.4"/>
	<path class="st0" d="M116.1,7.8c-73,42.3-82.8,169.5,0,223.6"/>
	<path class="st0" d="M129,230.9c73-42.3,82.8-169.5,0-223.6"/>
	<path class="st0" d="M116.1,7.8c-73,42.3-82.8,169.5,0,223.6"/>
	<path class="st0" d="M129,230.9c73-42.3,82.8-169.5,0-223.6"/>
	<line class="st0" x1="11.3" y1="119.6" x2="235" y2="119.6"/>
	<line class="st0" x1="26.2" y1="61.4" x2="218.6" y2="61.4"/>
	<line class="st0" x1="26.2" y1="177.8" x2="218.6" y2="177.8"/>
</g>
<circle class="st1" cx="70.9" cy="177.8" r="8.1"/>
<circle class="st2" cx="217" cy="178.6" r="8.1"/>
<circle class="st3" cx="11.1" cy="119.6" r="8.1"/>
<circle class="st3" cx="235.1" cy="119.9" r="8.1"/>
<circle class="st1" cx="69" cy="61.4" r="8.1"/>
<circle class="st1" cx="175.5" cy="61.4" r="8.1"/>
<circle class="st4" cx="123.1" cy="119.1" r="8.1"/>
<polygon class="st3" points="229.3,63.2 173.3,7.2 173.3,35.2 14.3,35.2 14.3,91.2 173.3,91.2 173.3,119.2 "/>
<polygon class="st4" points="16.9,175.2 72.9,231.2 72.9,203.2 231.9,203.2 231.9,147.2 72.9,147.2 72.9,119.2 "/>
</svg>
